<mxfile host="app.diagrams.net" agent="Mozilla/5.0 (Windows NT 10.0; Win64; x64; rv:128.0) Gecko/20100101 Firefox/128.0" version="24.7.6">
  <diagram name="Page-1" id="c4acf3e9-155e-7222-9cf6-157b1a14988f">
    <mxGraphModel dx="5769" dy="1164" grid="1" gridSize="10" guides="1" tooltips="1" connect="1" arrows="1" fold="1" page="1" pageScale="1" pageWidth="4681" pageHeight="3300" background="none" math="0" shadow="0">
      <root>
        <mxCell id="0" />
        <mxCell id="1" parent="0" />
        <mxCell id="v5tH6zYExcCofQopODxD-1" value="01_DRC" style="swimlane;fontStyle=0;childLayout=stackLayout;horizontal=1;startSize=30;horizontalStack=0;resizeParent=1;resizeParentMax=0;resizeLast=0;collapsible=1;marginBottom=0;whiteSpace=wrap;html=1;fillColor=#e3c800;fontColor=#000000;strokeColor=#B09500;" parent="1" vertex="1">
          <mxGeometry x="-2140" y="455" width="140" height="570" as="geometry" />
        </mxCell>
        <mxCell id="v5tH6zYExcCofQopODxD-2" value="drc_id" style="text;strokeColor=none;fillColor=none;align=left;verticalAlign=middle;spacingLeft=4;spacingRight=4;overflow=hidden;points=[[0,0.5],[1,0.5]];portConstraint=eastwest;rotatable=0;whiteSpace=wrap;html=1;" parent="v5tH6zYExcCofQopODxD-1" vertex="1">
          <mxGeometry y="30" width="140" height="30" as="geometry" />
        </mxCell>
        <mxCell id="v5tH6zYExcCofQopODxD-5" value="first_name" style="text;strokeColor=none;fillColor=none;align=left;verticalAlign=middle;spacingLeft=4;spacingRight=4;overflow=hidden;points=[[0,0.5],[1,0.5]];portConstraint=eastwest;rotatable=0;whiteSpace=wrap;html=1;" parent="v5tH6zYExcCofQopODxD-1" vertex="1">
          <mxGeometry y="60" width="140" height="30" as="geometry" />
        </mxCell>
        <mxCell id="v5tH6zYExcCofQopODxD-8" value="infix" style="text;strokeColor=none;fillColor=none;align=left;verticalAlign=middle;spacingLeft=4;spacingRight=4;overflow=hidden;points=[[0,0.5],[1,0.5]];portConstraint=eastwest;rotatable=0;whiteSpace=wrap;html=1;" parent="v5tH6zYExcCofQopODxD-1" vertex="1">
          <mxGeometry y="90" width="140" height="30" as="geometry" />
        </mxCell>
        <mxCell id="v5tH6zYExcCofQopODxD-7" value="surname" style="text;strokeColor=none;fillColor=none;align=left;verticalAlign=middle;spacingLeft=4;spacingRight=4;overflow=hidden;points=[[0,0.5],[1,0.5]];portConstraint=eastwest;rotatable=0;whiteSpace=wrap;html=1;" parent="v5tH6zYExcCofQopODxD-1" vertex="1">
          <mxGeometry y="120" width="140" height="30" as="geometry" />
        </mxCell>
        <mxCell id="v5tH6zYExcCofQopODxD-38" value="name_info_family" style="text;strokeColor=none;fillColor=none;align=left;verticalAlign=middle;spacingLeft=4;spacingRight=4;overflow=hidden;points=[[0,0.5],[1,0.5]];portConstraint=eastwest;rotatable=0;whiteSpace=wrap;html=1;" parent="v5tH6zYExcCofQopODxD-1" vertex="1">
          <mxGeometry y="150" width="140" height="30" as="geometry" />
        </mxCell>
        <mxCell id="v5tH6zYExcCofQopODxD-6" value="place_birth" style="text;strokeColor=none;fillColor=none;align=left;verticalAlign=middle;spacingLeft=4;spacingRight=4;overflow=hidden;points=[[0,0.5],[1,0.5]];portConstraint=eastwest;rotatable=0;whiteSpace=wrap;html=1;" parent="v5tH6zYExcCofQopODxD-1" vertex="1">
          <mxGeometry y="180" width="140" height="30" as="geometry" />
        </mxCell>
        <mxCell id="v5tH6zYExcCofQopODxD-3" value="birth_year" style="text;strokeColor=none;fillColor=none;align=left;verticalAlign=middle;spacingLeft=4;spacingRight=4;overflow=hidden;points=[[0,0.5],[1,0.5]];portConstraint=eastwest;rotatable=0;whiteSpace=wrap;html=1;" parent="v5tH6zYExcCofQopODxD-1" vertex="1">
          <mxGeometry y="210" width="140" height="30" as="geometry" />
        </mxCell>
        <mxCell id="v5tH6zYExcCofQopODxD-41" value="year_birth_accuracy" style="text;strokeColor=none;fillColor=none;align=left;verticalAlign=middle;spacingLeft=4;spacingRight=4;overflow=hidden;points=[[0,0.5],[1,0.5]];portConstraint=eastwest;rotatable=0;whiteSpace=wrap;html=1;" parent="v5tH6zYExcCofQopODxD-1" vertex="1">
          <mxGeometry y="240" width="140" height="30" as="geometry" />
        </mxCell>
        <mxCell id="v5tH6zYExcCofQopODxD-4" value="place_baptized" style="text;strokeColor=none;fillColor=none;align=left;verticalAlign=middle;spacingLeft=4;spacingRight=4;overflow=hidden;points=[[0,0.5],[1,0.5]];portConstraint=eastwest;rotatable=0;whiteSpace=wrap;html=1;" parent="v5tH6zYExcCofQopODxD-1" vertex="1">
          <mxGeometry y="270" width="140" height="30" as="geometry" />
        </mxCell>
        <mxCell id="v5tH6zYExcCofQopODxD-33" value="year_baptism" style="text;strokeColor=none;fillColor=none;align=left;verticalAlign=middle;spacingLeft=4;spacingRight=4;overflow=hidden;points=[[0,0.5],[1,0.5]];portConstraint=eastwest;rotatable=0;whiteSpace=wrap;html=1;" parent="v5tH6zYExcCofQopODxD-1" vertex="1">
          <mxGeometry y="300" width="140" height="30" as="geometry" />
        </mxCell>
        <mxCell id="v5tH6zYExcCofQopODxD-42" value="year_baptism_accuracy" style="text;strokeColor=none;fillColor=none;align=left;verticalAlign=middle;spacingLeft=4;spacingRight=4;overflow=hidden;points=[[0,0.5],[1,0.5]];portConstraint=eastwest;rotatable=0;whiteSpace=wrap;html=1;" parent="v5tH6zYExcCofQopODxD-1" vertex="1">
          <mxGeometry y="330" width="140" height="30" as="geometry" />
        </mxCell>
        <mxCell id="v5tH6zYExcCofQopODxD-34" value="place_death" style="text;strokeColor=none;fillColor=none;align=left;verticalAlign=middle;spacingLeft=4;spacingRight=4;overflow=hidden;points=[[0,0.5],[1,0.5]];portConstraint=eastwest;rotatable=0;whiteSpace=wrap;html=1;" parent="v5tH6zYExcCofQopODxD-1" vertex="1">
          <mxGeometry y="360" width="140" height="30" as="geometry" />
        </mxCell>
        <mxCell id="v5tH6zYExcCofQopODxD-35" value="year_death" style="text;strokeColor=none;fillColor=none;align=left;verticalAlign=middle;spacingLeft=4;spacingRight=4;overflow=hidden;points=[[0,0.5],[1,0.5]];portConstraint=eastwest;rotatable=0;whiteSpace=wrap;html=1;" parent="v5tH6zYExcCofQopODxD-1" vertex="1">
          <mxGeometry y="390" width="140" height="30" as="geometry" />
        </mxCell>
        <mxCell id="v5tH6zYExcCofQopODxD-43" value="year_death_accuracy" style="text;strokeColor=none;fillColor=none;align=left;verticalAlign=middle;spacingLeft=4;spacingRight=4;overflow=hidden;points=[[0,0.5],[1,0.5]];portConstraint=eastwest;rotatable=0;whiteSpace=wrap;html=1;" parent="v5tH6zYExcCofQopODxD-1" vertex="1">
          <mxGeometry y="420" width="140" height="30" as="geometry" />
        </mxCell>
        <mxCell id="v5tH6zYExcCofQopODxD-36" value="place_burried" style="text;strokeColor=none;fillColor=none;align=left;verticalAlign=middle;spacingLeft=4;spacingRight=4;overflow=hidden;points=[[0,0.5],[1,0.5]];portConstraint=eastwest;rotatable=0;whiteSpace=wrap;html=1;" parent="v5tH6zYExcCofQopODxD-1" vertex="1">
          <mxGeometry y="450" width="140" height="30" as="geometry" />
        </mxCell>
        <mxCell id="v5tH6zYExcCofQopODxD-37" value="year_funeral" style="text;strokeColor=none;fillColor=none;align=left;verticalAlign=middle;spacingLeft=4;spacingRight=4;overflow=hidden;points=[[0,0.5],[1,0.5]];portConstraint=eastwest;rotatable=0;whiteSpace=wrap;html=1;" parent="v5tH6zYExcCofQopODxD-1" vertex="1">
          <mxGeometry y="480" width="140" height="30" as="geometry" />
        </mxCell>
        <mxCell id="v5tH6zYExcCofQopODxD-44" value="year_funeral_accuracy" style="text;strokeColor=none;fillColor=none;align=left;verticalAlign=middle;spacingLeft=4;spacingRight=4;overflow=hidden;points=[[0,0.5],[1,0.5]];portConstraint=eastwest;rotatable=0;whiteSpace=wrap;html=1;" parent="v5tH6zYExcCofQopODxD-1" vertex="1">
          <mxGeometry y="510" width="140" height="30" as="geometry" />
        </mxCell>
        <mxCell id="v5tH6zYExcCofQopODxD-39" value="original_input" style="text;strokeColor=none;fillColor=none;align=left;verticalAlign=middle;spacingLeft=4;spacingRight=4;overflow=hidden;points=[[0,0.5],[1,0.5]];portConstraint=eastwest;rotatable=0;whiteSpace=wrap;html=1;" parent="v5tH6zYExcCofQopODxD-1" vertex="1">
          <mxGeometry y="540" width="140" height="30" as="geometry" />
        </mxCell>
        <mxCell id="v5tH6zYExcCofQopODxD-45" value="02_DRC_name" style="swimlane;fontStyle=0;childLayout=stackLayout;horizontal=1;startSize=30;horizontalStack=0;resizeParent=1;resizeParentMax=0;resizeLast=0;collapsible=1;marginBottom=0;whiteSpace=wrap;html=1;fillColor=#e3c800;fontColor=#000000;strokeColor=#B09500;" parent="1" vertex="1">
          <mxGeometry x="-1660" y="450" width="140" height="180" as="geometry" />
        </mxCell>
        <mxCell id="v5tH6zYExcCofQopODxD-46" value="drc_id" style="text;strokeColor=none;fillColor=none;align=left;verticalAlign=middle;spacingLeft=4;spacingRight=4;overflow=hidden;points=[[0,0.5],[1,0.5]];portConstraint=eastwest;rotatable=0;whiteSpace=wrap;html=1;" parent="v5tH6zYExcCofQopODxD-45" vertex="1">
          <mxGeometry y="30" width="140" height="30" as="geometry" />
        </mxCell>
        <mxCell id="06i2pUNaTt7zVlCuUhyh-1" value="alt_name" style="text;strokeColor=none;fillColor=none;align=left;verticalAlign=middle;spacingLeft=4;spacingRight=4;overflow=hidden;points=[[0,0.5],[1,0.5]];portConstraint=eastwest;rotatable=0;whiteSpace=wrap;html=1;" parent="v5tH6zYExcCofQopODxD-45" vertex="1">
          <mxGeometry y="60" width="140" height="30" as="geometry" />
        </mxCell>
        <mxCell id="06i2pUNaTt7zVlCuUhyh-2" value="alt_first_name" style="text;strokeColor=none;fillColor=none;align=left;verticalAlign=middle;spacingLeft=4;spacingRight=4;overflow=hidden;points=[[0,0.5],[1,0.5]];portConstraint=eastwest;rotatable=0;whiteSpace=wrap;html=1;" parent="v5tH6zYExcCofQopODxD-45" vertex="1">
          <mxGeometry y="90" width="140" height="30" as="geometry" />
        </mxCell>
        <mxCell id="06i2pUNaTt7zVlCuUhyh-3" value="alt_infix" style="text;strokeColor=none;fillColor=none;align=left;verticalAlign=middle;spacingLeft=4;spacingRight=4;overflow=hidden;points=[[0,0.5],[1,0.5]];portConstraint=eastwest;rotatable=0;whiteSpace=wrap;html=1;" parent="v5tH6zYExcCofQopODxD-45" vertex="1">
          <mxGeometry y="120" width="140" height="30" as="geometry" />
        </mxCell>
        <mxCell id="06i2pUNaTt7zVlCuUhyh-4" value="alt_surname" style="text;strokeColor=none;fillColor=none;align=left;verticalAlign=middle;spacingLeft=4;spacingRight=4;overflow=hidden;points=[[0,0.5],[1,0.5]];portConstraint=eastwest;rotatable=0;whiteSpace=wrap;html=1;" parent="v5tH6zYExcCofQopODxD-45" vertex="1">
          <mxGeometry y="150" width="140" height="30" as="geometry" />
        </mxCell>
        <mxCell id="t8jxFMlalKWOaSQotO5f-135" style="edgeStyle=orthogonalEdgeStyle;rounded=0;orthogonalLoop=1;jettySize=auto;html=1;entryX=0;entryY=0.5;entryDx=0;entryDy=0;endArrow=none;endFill=0;exitX=0;exitY=0.5;exitDx=0;exitDy=0;" parent="v5tH6zYExcCofQopODxD-45" source="v5tH6zYExcCofQopODxD-46" target="v5tH6zYExcCofQopODxD-46" edge="1">
          <mxGeometry relative="1" as="geometry">
            <Array as="points" />
          </mxGeometry>
        </mxCell>
        <mxCell id="v5tH6zYExcCofQopODxD-69" value="02_DRC_role" style="swimlane;fontStyle=0;childLayout=stackLayout;horizontal=1;startSize=30;horizontalStack=0;resizeParent=1;resizeParentMax=0;resizeLast=0;collapsible=1;marginBottom=0;whiteSpace=wrap;html=1;fillColor=#e3c800;fontColor=#000000;strokeColor=#B09500;" parent="1" vertex="1">
          <mxGeometry x="-1660" y="675" width="140" height="210" as="geometry" />
        </mxCell>
        <mxCell id="v5tH6zYExcCofQopODxD-70" value="drc_id" style="text;strokeColor=none;fillColor=none;align=left;verticalAlign=middle;spacingLeft=4;spacingRight=4;overflow=hidden;points=[[0,0.5],[1,0.5]];portConstraint=eastwest;rotatable=0;whiteSpace=wrap;html=1;" parent="v5tH6zYExcCofQopODxD-69" vertex="1">
          <mxGeometry y="30" width="140" height="30" as="geometry" />
        </mxCell>
        <mxCell id="v5tH6zYExcCofQopODxD-71" value="role" style="text;strokeColor=none;fillColor=none;align=left;verticalAlign=middle;spacingLeft=4;spacingRight=4;overflow=hidden;points=[[0,0.5],[1,0.5]];portConstraint=eastwest;rotatable=0;whiteSpace=wrap;html=1;" parent="v5tH6zYExcCofQopODxD-69" vertex="1">
          <mxGeometry y="60" width="140" height="30" as="geometry" />
        </mxCell>
        <mxCell id="v5tH6zYExcCofQopODxD-72" value="role_place" style="text;strokeColor=none;fillColor=none;align=left;verticalAlign=middle;spacingLeft=4;spacingRight=4;overflow=hidden;points=[[0,0.5],[1,0.5]];portConstraint=eastwest;rotatable=0;whiteSpace=wrap;html=1;" parent="v5tH6zYExcCofQopODxD-69" vertex="1">
          <mxGeometry y="90" width="140" height="30" as="geometry" />
        </mxCell>
        <mxCell id="v5tH6zYExcCofQopODxD-73" value="role_year" style="text;strokeColor=none;fillColor=none;align=left;verticalAlign=middle;spacingLeft=4;spacingRight=4;overflow=hidden;points=[[0,0.5],[1,0.5]];portConstraint=eastwest;rotatable=0;whiteSpace=wrap;html=1;" parent="v5tH6zYExcCofQopODxD-69" vertex="1">
          <mxGeometry y="120" width="140" height="30" as="geometry" />
        </mxCell>
        <mxCell id="v5tH6zYExcCofQopODxD-74" value="role_year_accuracy" style="text;strokeColor=none;fillColor=none;align=left;verticalAlign=middle;spacingLeft=4;spacingRight=4;overflow=hidden;points=[[0,0.5],[1,0.5]];portConstraint=eastwest;rotatable=0;whiteSpace=wrap;html=1;" parent="v5tH6zYExcCofQopODxD-69" vertex="1">
          <mxGeometry y="150" width="140" height="30" as="geometry" />
        </mxCell>
        <mxCell id="v5tH6zYExcCofQopODxD-75" value="role_remarks" style="text;strokeColor=none;fillColor=none;align=left;verticalAlign=middle;spacingLeft=4;spacingRight=4;overflow=hidden;points=[[0,0.5],[1,0.5]];portConstraint=eastwest;rotatable=0;whiteSpace=wrap;html=1;" parent="v5tH6zYExcCofQopODxD-69" vertex="1">
          <mxGeometry y="180" width="140" height="30" as="geometry" />
        </mxCell>
        <mxCell id="v5tH6zYExcCofQopODxD-87" value="DM" style="swimlane;fontStyle=0;childLayout=stackLayout;horizontal=1;startSize=30;horizontalStack=0;resizeParent=1;resizeParentMax=0;resizeLast=0;collapsible=1;marginBottom=0;whiteSpace=wrap;html=1;fillColor=#fad9d5;strokeColor=#ae4132;" parent="1" vertex="1">
          <mxGeometry x="-1110" y="450" width="220" height="480" as="geometry" />
        </mxCell>
        <mxCell id="AG2McBLE8GteRgOnOXGc-89" value="DM_id" style="text;strokeColor=none;fillColor=none;align=left;verticalAlign=middle;spacingLeft=4;spacingRight=4;overflow=hidden;points=[[0,0.5],[1,0.5]];portConstraint=eastwest;rotatable=0;whiteSpace=wrap;html=1;" parent="v5tH6zYExcCofQopODxD-87" vertex="1">
          <mxGeometry y="30" width="220" height="30" as="geometry" />
        </mxCell>
        <mxCell id="v5tH6zYExcCofQopODxD-88" value="provincie" style="text;strokeColor=none;fillColor=none;align=left;verticalAlign=middle;spacingLeft=4;spacingRight=4;overflow=hidden;points=[[0,0.5],[1,0.5]];portConstraint=eastwest;rotatable=0;whiteSpace=wrap;html=1;" parent="v5tH6zYExcCofQopODxD-87" vertex="1">
          <mxGeometry y="60" width="220" height="30" as="geometry" />
        </mxCell>
        <mxCell id="v5tH6zYExcCofQopODxD-89" value="classis" style="text;strokeColor=none;fillColor=none;align=left;verticalAlign=middle;spacingLeft=4;spacingRight=4;overflow=hidden;points=[[0,0.5],[1,0.5]];portConstraint=eastwest;rotatable=0;whiteSpace=wrap;html=1;" parent="v5tH6zYExcCofQopODxD-87" vertex="1">
          <mxGeometry y="90" width="220" height="30" as="geometry" />
        </mxCell>
        <mxCell id="v5tH6zYExcCofQopODxD-90" value="gemeente" style="text;strokeColor=none;fillColor=none;align=left;verticalAlign=middle;spacingLeft=4;spacingRight=4;overflow=hidden;points=[[0,0.5],[1,0.5]];portConstraint=eastwest;rotatable=0;whiteSpace=wrap;html=1;" parent="v5tH6zYExcCofQopODxD-87" vertex="1">
          <mxGeometry y="120" width="220" height="30" as="geometry" />
        </mxCell>
        <mxCell id="v5tH6zYExcCofQopODxD-91" value="wijk" style="text;strokeColor=none;fillColor=none;align=left;verticalAlign=middle;spacingLeft=4;spacingRight=4;overflow=hidden;points=[[0,0.5],[1,0.5]];portConstraint=eastwest;rotatable=0;whiteSpace=wrap;html=1;" parent="v5tH6zYExcCofQopODxD-87" vertex="1">
          <mxGeometry y="150" width="220" height="30" as="geometry" />
        </mxCell>
        <mxCell id="v5tH6zYExcCofQopODxD-92" value="predikant" style="text;strokeColor=none;fillColor=none;align=left;verticalAlign=middle;spacingLeft=4;spacingRight=4;overflow=hidden;points=[[0,0.5],[1,0.5]];portConstraint=eastwest;rotatable=0;whiteSpace=wrap;html=1;" parent="v5tH6zYExcCofQopODxD-87" vertex="1">
          <mxGeometry y="180" width="220" height="30" as="geometry" />
        </mxCell>
        <mxCell id="v5tH6zYExcCofQopODxD-93" value="Herkomst" style="text;strokeColor=none;fillColor=none;align=left;verticalAlign=middle;spacingLeft=4;spacingRight=4;overflow=hidden;points=[[0,0.5],[1,0.5]];portConstraint=eastwest;rotatable=0;whiteSpace=wrap;html=1;" parent="v5tH6zYExcCofQopODxD-87" vertex="1">
          <mxGeometry y="210" width="220" height="30" as="geometry" />
        </mxCell>
        <mxCell id="v5tH6zYExcCofQopODxD-94" value="dag intrede" style="text;strokeColor=none;fillColor=none;align=left;verticalAlign=middle;spacingLeft=4;spacingRight=4;overflow=hidden;points=[[0,0.5],[1,0.5]];portConstraint=eastwest;rotatable=0;whiteSpace=wrap;html=1;" parent="v5tH6zYExcCofQopODxD-87" vertex="1">
          <mxGeometry y="240" width="220" height="30" as="geometry" />
        </mxCell>
        <mxCell id="v5tH6zYExcCofQopODxD-95" value="maand intrede" style="text;strokeColor=none;fillColor=none;align=left;verticalAlign=middle;spacingLeft=4;spacingRight=4;overflow=hidden;points=[[0,0.5],[1,0.5]];portConstraint=eastwest;rotatable=0;whiteSpace=wrap;html=1;" parent="v5tH6zYExcCofQopODxD-87" vertex="1">
          <mxGeometry y="270" width="220" height="30" as="geometry" />
        </mxCell>
        <mxCell id="v5tH6zYExcCofQopODxD-96" value="jaar intrede" style="text;strokeColor=none;fillColor=none;align=left;verticalAlign=middle;spacingLeft=4;spacingRight=4;overflow=hidden;points=[[0,0.5],[1,0.5]];portConstraint=eastwest;rotatable=0;whiteSpace=wrap;html=1;" parent="v5tH6zYExcCofQopODxD-87" vertex="1">
          <mxGeometry y="300" width="220" height="30" as="geometry" />
        </mxCell>
        <mxCell id="v5tH6zYExcCofQopODxD-97" value="vertrek naar of vanwege" style="text;strokeColor=none;fillColor=none;align=left;verticalAlign=middle;spacingLeft=4;spacingRight=4;overflow=hidden;points=[[0,0.5],[1,0.5]];portConstraint=eastwest;rotatable=0;whiteSpace=wrap;html=1;" parent="v5tH6zYExcCofQopODxD-87" vertex="1">
          <mxGeometry y="330" width="220" height="30" as="geometry" />
        </mxCell>
        <mxCell id="v5tH6zYExcCofQopODxD-98" value="dag vertrek" style="text;strokeColor=none;fillColor=none;align=left;verticalAlign=middle;spacingLeft=4;spacingRight=4;overflow=hidden;points=[[0,0.5],[1,0.5]];portConstraint=eastwest;rotatable=0;whiteSpace=wrap;html=1;" parent="v5tH6zYExcCofQopODxD-87" vertex="1">
          <mxGeometry y="360" width="220" height="30" as="geometry" />
        </mxCell>
        <mxCell id="v5tH6zYExcCofQopODxD-99" value="maand vertrek" style="text;strokeColor=none;fillColor=none;align=left;verticalAlign=middle;spacingLeft=4;spacingRight=4;overflow=hidden;points=[[0,0.5],[1,0.5]];portConstraint=eastwest;rotatable=0;whiteSpace=wrap;html=1;" parent="v5tH6zYExcCofQopODxD-87" vertex="1">
          <mxGeometry y="390" width="220" height="30" as="geometry" />
        </mxCell>
        <mxCell id="v5tH6zYExcCofQopODxD-100" value="jaar vertrek" style="text;strokeColor=none;fillColor=none;align=left;verticalAlign=middle;spacingLeft=4;spacingRight=4;overflow=hidden;points=[[0,0.5],[1,0.5]];portConstraint=eastwest;rotatable=0;whiteSpace=wrap;html=1;" parent="v5tH6zYExcCofQopODxD-87" vertex="1">
          <mxGeometry y="420" width="220" height="30" as="geometry" />
        </mxCell>
        <mxCell id="v5tH6zYExcCofQopODxD-101" value="Bijzonderheden" style="text;strokeColor=none;fillColor=none;align=left;verticalAlign=middle;spacingLeft=4;spacingRight=4;overflow=hidden;points=[[0,0.5],[1,0.5]];portConstraint=eastwest;rotatable=0;whiteSpace=wrap;html=1;" parent="v5tH6zYExcCofQopODxD-87" vertex="1">
          <mxGeometry y="450" width="220" height="30" as="geometry" />
        </mxCell>
        <mxCell id="HJhV2FQeV8XM8kMmGPjY-104" value="01_clerus_bio" style="swimlane;childLayout=stackLayout;resizeParent=1;resizeParentMax=0;startSize=20;html=1;" parent="1" vertex="1">
          <mxGeometry x="-4620" y="270" width="800" height="940" as="geometry" />
        </mxCell>
        <mxCell id="HJhV2FQeV8XM8kMmGPjY-105" value="collumn_name" style="swimlane;startSize=20;html=1;" parent="HJhV2FQeV8XM8kMmGPjY-104" vertex="1">
          <mxGeometry y="20" width="170" height="920" as="geometry">
            <mxRectangle y="20" width="40" height="460" as="alternateBounds" />
          </mxGeometry>
        </mxCell>
        <mxCell id="HJhV2FQeV8XM8kMmGPjY-80" value="first_name" style="text;strokeColor=none;fillColor=none;align=left;verticalAlign=middle;spacingLeft=4;spacingRight=4;overflow=hidden;points=[[0,0.5],[1,0.5]];portConstraint=eastwest;rotatable=0;whiteSpace=wrap;html=1;" parent="HJhV2FQeV8XM8kMmGPjY-105" vertex="1">
          <mxGeometry y="50" width="140" height="30" as="geometry" />
        </mxCell>
        <mxCell id="HJhV2FQeV8XM8kMmGPjY-79" value="clerus_id" style="text;strokeColor=#6c8ebf;fillColor=#dae8fc;align=left;verticalAlign=middle;spacingLeft=4;spacingRight=4;overflow=hidden;points=[[0,0.5],[1,0.5]];portConstraint=eastwest;rotatable=0;whiteSpace=wrap;html=1;" parent="HJhV2FQeV8XM8kMmGPjY-105" vertex="1">
          <mxGeometry y="20" width="170" height="30" as="geometry" />
        </mxCell>
        <mxCell id="HJhV2FQeV8XM8kMmGPjY-81" value="infix" style="text;strokeColor=none;fillColor=none;align=left;verticalAlign=middle;spacingLeft=4;spacingRight=4;overflow=hidden;points=[[0,0.5],[1,0.5]];portConstraint=eastwest;rotatable=0;whiteSpace=wrap;html=1;" parent="HJhV2FQeV8XM8kMmGPjY-105" vertex="1">
          <mxGeometry y="80" width="140" height="30" as="geometry" />
        </mxCell>
        <mxCell id="HJhV2FQeV8XM8kMmGPjY-82" value="surname" style="text;strokeColor=none;fillColor=none;align=left;verticalAlign=middle;spacingLeft=4;spacingRight=4;overflow=hidden;points=[[0,0.5],[1,0.5]];portConstraint=eastwest;rotatable=0;whiteSpace=wrap;html=1;" parent="HJhV2FQeV8XM8kMmGPjY-105" vertex="1">
          <mxGeometry y="110" width="140" height="30" as="geometry" />
        </mxCell>
        <mxCell id="HJhV2FQeV8XM8kMmGPjY-83" value="initials" style="text;strokeColor=none;fillColor=none;align=left;verticalAlign=middle;spacingLeft=4;spacingRight=4;overflow=hidden;points=[[0,0.5],[1,0.5]];portConstraint=eastwest;rotatable=0;whiteSpace=wrap;html=1;" parent="HJhV2FQeV8XM8kMmGPjY-105" vertex="1">
          <mxGeometry y="140" width="140" height="30" as="geometry" />
        </mxCell>
        <mxCell id="AzpIxYVinU37_Tb9Akn6-183" value="remarks_source" style="text;strokeColor=none;fillColor=none;align=left;verticalAlign=middle;spacingLeft=4;spacingRight=4;overflow=hidden;points=[[0,0.5],[1,0.5]];portConstraint=eastwest;rotatable=0;whiteSpace=wrap;html=1;" parent="HJhV2FQeV8XM8kMmGPjY-105" vertex="1">
          <mxGeometry y="874" width="140" height="30" as="geometry" />
        </mxCell>
        <mxCell id="HJhV2FQeV8XM8kMmGPjY-137" value="keys" style="swimlane;startSize=20;html=1;" parent="HJhV2FQeV8XM8kMmGPjY-104" vertex="1">
          <mxGeometry x="170" y="20" width="140" height="920" as="geometry">
            <mxRectangle x="170" y="20" width="40" height="770" as="alternateBounds" />
          </mxGeometry>
        </mxCell>
        <mxCell id="HJhV2FQeV8XM8kMmGPjY-138" value="primary_key" style="text;strokeColor=#6c8ebf;fillColor=#dae8fc;align=left;verticalAlign=middle;spacingLeft=4;spacingRight=4;overflow=hidden;points=[[0,0.5],[1,0.5]];portConstraint=eastwest;rotatable=0;whiteSpace=wrap;html=1;" parent="HJhV2FQeV8XM8kMmGPjY-137" vertex="1">
          <mxGeometry y="20" width="140" height="30" as="geometry" />
        </mxCell>
        <mxCell id="HJhV2FQeV8XM8kMmGPjY-106" value="type" style="swimlane;startSize=20;html=1;" parent="HJhV2FQeV8XM8kMmGPjY-104" vertex="1">
          <mxGeometry x="310" y="20" width="190" height="920" as="geometry">
            <mxRectangle x="260" y="20" width="40" height="770" as="alternateBounds" />
          </mxGeometry>
        </mxCell>
        <mxCell id="HJhV2FQeV8XM8kMmGPjY-110" value="varchar" style="text;strokeColor=none;fillColor=none;align=left;verticalAlign=middle;spacingLeft=4;spacingRight=4;overflow=hidden;points=[[0,0.5],[1,0.5]];portConstraint=eastwest;rotatable=0;whiteSpace=wrap;html=1;" parent="HJhV2FQeV8XM8kMmGPjY-106" vertex="1">
          <mxGeometry y="50" width="140" height="30" as="geometry" />
        </mxCell>
        <mxCell id="HJhV2FQeV8XM8kMmGPjY-111" value="integer" style="text;strokeColor=#6c8ebf;fillColor=#dae8fc;align=left;verticalAlign=middle;spacingLeft=4;spacingRight=4;overflow=hidden;points=[[0,0.5],[1,0.5]];portConstraint=eastwest;rotatable=0;whiteSpace=wrap;html=1;" parent="HJhV2FQeV8XM8kMmGPjY-106" vertex="1">
          <mxGeometry y="20" width="190" height="30" as="geometry" />
        </mxCell>
        <mxCell id="HJhV2FQeV8XM8kMmGPjY-112" value="varchar" style="text;strokeColor=none;fillColor=none;align=left;verticalAlign=middle;spacingLeft=4;spacingRight=4;overflow=hidden;points=[[0,0.5],[1,0.5]];portConstraint=eastwest;rotatable=0;whiteSpace=wrap;html=1;" parent="HJhV2FQeV8XM8kMmGPjY-106" vertex="1">
          <mxGeometry y="80" width="140" height="30" as="geometry" />
        </mxCell>
        <mxCell id="HJhV2FQeV8XM8kMmGPjY-113" value="varchar" style="text;strokeColor=none;fillColor=none;align=left;verticalAlign=middle;spacingLeft=4;spacingRight=4;overflow=hidden;points=[[0,0.5],[1,0.5]];portConstraint=eastwest;rotatable=0;whiteSpace=wrap;html=1;" parent="HJhV2FQeV8XM8kMmGPjY-106" vertex="1">
          <mxGeometry y="110" width="140" height="30" as="geometry" />
        </mxCell>
        <mxCell id="HJhV2FQeV8XM8kMmGPjY-114" value="varchar" style="text;strokeColor=none;fillColor=none;align=left;verticalAlign=middle;spacingLeft=4;spacingRight=4;overflow=hidden;points=[[0,0.5],[1,0.5]];portConstraint=eastwest;rotatable=0;whiteSpace=wrap;html=1;" parent="HJhV2FQeV8XM8kMmGPjY-106" vertex="1">
          <mxGeometry y="140" width="140" height="30" as="geometry" />
        </mxCell>
        <mxCell id="HJhV2FQeV8XM8kMmGPjY-107" value="description" style="swimlane;startSize=20;html=1;" parent="HJhV2FQeV8XM8kMmGPjY-104" vertex="1">
          <mxGeometry x="500" y="20" width="300" height="920" as="geometry" />
        </mxCell>
        <mxCell id="HJhV2FQeV8XM8kMmGPjY-490" value="first name(s) " style="text;strokeColor=none;fillColor=none;align=left;verticalAlign=middle;spacingLeft=4;spacingRight=4;overflow=hidden;points=[[0,0.5],[1,0.5]];portConstraint=eastwest;rotatable=0;whiteSpace=wrap;html=1;" parent="HJhV2FQeV8XM8kMmGPjY-107" vertex="1">
          <mxGeometry y="50" width="230" height="30" as="geometry" />
        </mxCell>
        <mxCell id="HJhV2FQeV8XM8kMmGPjY-491" value="unique identifier for every individual" style="text;strokeColor=#6c8ebf;fillColor=#dae8fc;align=left;verticalAlign=middle;spacingLeft=4;spacingRight=4;overflow=hidden;points=[[0,0.5],[1,0.5]];portConstraint=eastwest;rotatable=0;whiteSpace=wrap;html=1;" parent="HJhV2FQeV8XM8kMmGPjY-107" vertex="1">
          <mxGeometry y="20" width="300" height="30" as="geometry" />
        </mxCell>
        <mxCell id="HJhV2FQeV8XM8kMmGPjY-492" value="infix " style="text;strokeColor=none;fillColor=none;align=left;verticalAlign=middle;spacingLeft=4;spacingRight=4;overflow=hidden;points=[[0,0.5],[1,0.5]];portConstraint=eastwest;rotatable=0;whiteSpace=wrap;html=1;" parent="HJhV2FQeV8XM8kMmGPjY-107" vertex="1">
          <mxGeometry y="80" width="230" height="30" as="geometry" />
        </mxCell>
        <mxCell id="HJhV2FQeV8XM8kMmGPjY-493" value="surname" style="text;strokeColor=none;fillColor=none;align=left;verticalAlign=middle;spacingLeft=4;spacingRight=4;overflow=hidden;points=[[0,0.5],[1,0.5]];portConstraint=eastwest;rotatable=0;whiteSpace=wrap;html=1;" parent="HJhV2FQeV8XM8kMmGPjY-107" vertex="1">
          <mxGeometry y="110" width="230" height="30" as="geometry" />
        </mxCell>
        <mxCell id="HJhV2FQeV8XM8kMmGPjY-495" value="Initials" style="text;strokeColor=none;fillColor=none;align=left;verticalAlign=middle;spacingLeft=4;spacingRight=4;overflow=hidden;points=[[0,0.5],[1,0.5]];portConstraint=eastwest;rotatable=0;whiteSpace=wrap;html=1;" parent="HJhV2FQeV8XM8kMmGPjY-107" vertex="1">
          <mxGeometry y="140" width="230" height="30" as="geometry" />
        </mxCell>
        <mxCell id="AzpIxYVinU37_Tb9Akn6-18" value="male or female" style="text;strokeColor=none;fillColor=none;align=left;verticalAlign=middle;spacingLeft=4;spacingRight=4;overflow=hidden;points=[[0,0.5],[1,0.5]];portConstraint=eastwest;rotatable=0;whiteSpace=wrap;html=1;" parent="HJhV2FQeV8XM8kMmGPjY-107" vertex="1">
          <mxGeometry y="170" width="300" height="30" as="geometry" />
        </mxCell>
        <mxCell id="AzpIxYVinU37_Tb9Akn6-19" value="varchar" style="text;strokeColor=none;fillColor=none;align=left;verticalAlign=middle;spacingLeft=4;spacingRight=4;overflow=hidden;points=[[0,0.5],[1,0.5]];portConstraint=eastwest;rotatable=0;whiteSpace=wrap;html=1;" parent="HJhV2FQeV8XM8kMmGPjY-107" vertex="1">
          <mxGeometry x="-190" y="170" width="190" height="30" as="geometry" />
        </mxCell>
        <mxCell id="AzpIxYVinU37_Tb9Akn6-20" value="sex" style="text;strokeColor=none;fillColor=none;align=left;verticalAlign=middle;spacingLeft=4;spacingRight=4;overflow=hidden;points=[[0,0.5],[1,0.5]];portConstraint=eastwest;rotatable=0;whiteSpace=wrap;html=1;" parent="HJhV2FQeV8XM8kMmGPjY-107" vertex="1">
          <mxGeometry x="-500" y="170" width="170" height="30" as="geometry" />
        </mxCell>
        <mxCell id="HJhV2FQeV8XM8kMmGPjY-84" value="info_family" style="text;strokeColor=none;fillColor=none;align=left;verticalAlign=middle;spacingLeft=4;spacingRight=4;overflow=hidden;points=[[0,0.5],[1,0.5]];portConstraint=eastwest;rotatable=0;whiteSpace=wrap;html=1;" parent="HJhV2FQeV8XM8kMmGPjY-107" vertex="1">
          <mxGeometry x="-500" y="200" width="140" height="30" as="geometry" />
        </mxCell>
        <mxCell id="HJhV2FQeV8XM8kMmGPjY-85" value="birth_place" style="text;strokeColor=none;fillColor=none;align=left;verticalAlign=middle;spacingLeft=4;spacingRight=4;overflow=hidden;points=[[0,0.5],[1,0.5]];portConstraint=eastwest;rotatable=0;whiteSpace=wrap;html=1;" parent="HJhV2FQeV8XM8kMmGPjY-107" vertex="1">
          <mxGeometry x="-500" y="230" width="140" height="30" as="geometry" />
        </mxCell>
        <mxCell id="HJhV2FQeV8XM8kMmGPjY-86" value="birth_place_id" style="text;strokeColor=#6c8ebf;fillColor=#dae8fc;align=left;verticalAlign=middle;spacingLeft=4;spacingRight=4;overflow=hidden;points=[[0,0.5],[1,0.5]];portConstraint=eastwest;rotatable=0;whiteSpace=wrap;html=1;" parent="HJhV2FQeV8XM8kMmGPjY-107" vertex="1">
          <mxGeometry x="-500" y="260" width="170" height="30" as="geometry" />
        </mxCell>
        <mxCell id="HJhV2FQeV8XM8kMmGPjY-87" value="birth_year" style="text;strokeColor=none;fillColor=none;align=left;verticalAlign=middle;spacingLeft=4;spacingRight=4;overflow=hidden;points=[[0,0.5],[1,0.5]];portConstraint=eastwest;rotatable=0;whiteSpace=wrap;html=1;" parent="HJhV2FQeV8XM8kMmGPjY-107" vertex="1">
          <mxGeometry x="-500" y="290" width="140" height="30" as="geometry" />
        </mxCell>
        <mxCell id="HJhV2FQeV8XM8kMmGPjY-88" value="birth_date_accuracy" style="text;strokeColor=none;fillColor=none;align=left;verticalAlign=middle;spacingLeft=4;spacingRight=4;overflow=hidden;points=[[0,0.5],[1,0.5]];portConstraint=eastwest;rotatable=0;whiteSpace=wrap;html=1;" parent="HJhV2FQeV8XM8kMmGPjY-107" vertex="1">
          <mxGeometry x="-500" y="350" width="140" height="30" as="geometry" />
        </mxCell>
        <mxCell id="HJhV2FQeV8XM8kMmGPjY-320" value="primary_key" style="text;strokeColor=#6c8ebf;fillColor=#dae8fc;align=left;verticalAlign=middle;spacingLeft=4;spacingRight=4;overflow=hidden;points=[[0,0.5],[1,0.5]];portConstraint=eastwest;rotatable=0;whiteSpace=wrap;html=1;" parent="HJhV2FQeV8XM8kMmGPjY-107" vertex="1">
          <mxGeometry x="-330" y="260" width="140" height="30" as="geometry" />
        </mxCell>
        <mxCell id="HJhV2FQeV8XM8kMmGPjY-115" value="varchar" style="text;strokeColor=none;fillColor=none;align=left;verticalAlign=middle;spacingLeft=4;spacingRight=4;overflow=hidden;points=[[0,0.5],[1,0.5]];portConstraint=eastwest;rotatable=0;whiteSpace=wrap;html=1;" parent="HJhV2FQeV8XM8kMmGPjY-107" vertex="1">
          <mxGeometry x="-190" y="200" width="140" height="30" as="geometry" />
        </mxCell>
        <mxCell id="HJhV2FQeV8XM8kMmGPjY-116" value="varchar" style="text;strokeColor=none;fillColor=none;align=left;verticalAlign=middle;spacingLeft=4;spacingRight=4;overflow=hidden;points=[[0,0.5],[1,0.5]];portConstraint=eastwest;rotatable=0;whiteSpace=wrap;html=1;" parent="HJhV2FQeV8XM8kMmGPjY-107" vertex="1">
          <mxGeometry x="-190" y="230" width="140" height="30" as="geometry" />
        </mxCell>
        <mxCell id="HJhV2FQeV8XM8kMmGPjY-117" value="integer" style="text;strokeColor=#6c8ebf;fillColor=#dae8fc;align=left;verticalAlign=middle;spacingLeft=4;spacingRight=4;overflow=hidden;points=[[0,0.5],[1,0.5]];portConstraint=eastwest;rotatable=0;whiteSpace=wrap;html=1;" parent="HJhV2FQeV8XM8kMmGPjY-107" vertex="1">
          <mxGeometry x="-190" y="260" width="190" height="30" as="geometry" />
        </mxCell>
        <mxCell id="HJhV2FQeV8XM8kMmGPjY-118" value="integer" style="text;strokeColor=none;fillColor=none;align=left;verticalAlign=middle;spacingLeft=4;spacingRight=4;overflow=hidden;points=[[0,0.5],[1,0.5]];portConstraint=eastwest;rotatable=0;whiteSpace=wrap;html=1;" parent="HJhV2FQeV8XM8kMmGPjY-107" vertex="1">
          <mxGeometry x="-190" y="290" width="140" height="30" as="geometry" />
        </mxCell>
        <mxCell id="HJhV2FQeV8XM8kMmGPjY-119" value="varchar" style="text;strokeColor=none;fillColor=none;align=left;verticalAlign=middle;spacingLeft=4;spacingRight=4;overflow=hidden;points=[[0,0.5],[1,0.5]];portConstraint=eastwest;rotatable=0;whiteSpace=wrap;html=1;" parent="HJhV2FQeV8XM8kMmGPjY-107" vertex="1">
          <mxGeometry x="-190" y="350" width="140" height="30" as="geometry" />
        </mxCell>
        <mxCell id="HJhV2FQeV8XM8kMmGPjY-494" value="Information about the family e.g. brother, son etc. " style="text;strokeColor=none;fillColor=none;align=left;verticalAlign=middle;spacingLeft=4;spacingRight=4;overflow=hidden;points=[[0,0.5],[1,0.5]];portConstraint=eastwest;rotatable=0;whiteSpace=wrap;html=1;" parent="HJhV2FQeV8XM8kMmGPjY-107" vertex="1">
          <mxGeometry y="200" width="300" height="30" as="geometry" />
        </mxCell>
        <mxCell id="HJhV2FQeV8XM8kMmGPjY-496" value="place of birth" style="text;strokeColor=none;fillColor=none;align=left;verticalAlign=middle;spacingLeft=4;spacingRight=4;overflow=hidden;points=[[0,0.5],[1,0.5]];portConstraint=eastwest;rotatable=0;whiteSpace=wrap;html=1;" parent="HJhV2FQeV8XM8kMmGPjY-107" vertex="1">
          <mxGeometry y="230" width="230" height="30" as="geometry" />
        </mxCell>
        <mxCell id="HJhV2FQeV8XM8kMmGPjY-497" value="id to add alternative spelling of place" style="text;strokeColor=#6c8ebf;fillColor=#dae8fc;align=left;verticalAlign=middle;spacingLeft=4;spacingRight=4;overflow=hidden;points=[[0,0.5],[1,0.5]];portConstraint=eastwest;rotatable=0;whiteSpace=wrap;html=1;" parent="HJhV2FQeV8XM8kMmGPjY-107" vertex="1">
          <mxGeometry y="260" width="300" height="30" as="geometry" />
        </mxCell>
        <mxCell id="HJhV2FQeV8XM8kMmGPjY-498" value="accuracy of the year, like exact date or ca." style="text;strokeColor=none;fillColor=none;align=left;verticalAlign=middle;spacingLeft=4;spacingRight=4;overflow=hidden;points=[[0,0.5],[1,0.5]];portConstraint=eastwest;rotatable=0;whiteSpace=wrap;html=1;" parent="HJhV2FQeV8XM8kMmGPjY-107" vertex="1">
          <mxGeometry y="350" width="300" height="30" as="geometry" />
        </mxCell>
        <mxCell id="HJhV2FQeV8XM8kMmGPjY-499" value="year of birth" style="text;strokeColor=none;fillColor=none;align=left;verticalAlign=middle;spacingLeft=4;spacingRight=4;overflow=hidden;points=[[0,0.5],[1,0.5]];portConstraint=eastwest;rotatable=0;whiteSpace=wrap;html=1;" parent="HJhV2FQeV8XM8kMmGPjY-107" vertex="1">
          <mxGeometry y="290" width="230" height="30" as="geometry" />
        </mxCell>
        <mxCell id="AzpIxYVinU37_Tb9Akn6-2" value="birth_date_exact" style="text;strokeColor=none;fillColor=none;align=left;verticalAlign=middle;spacingLeft=4;spacingRight=4;overflow=hidden;points=[[0,0.5],[1,0.5]];portConstraint=eastwest;rotatable=0;whiteSpace=wrap;html=1;" parent="HJhV2FQeV8XM8kMmGPjY-107" vertex="1">
          <mxGeometry x="-500" y="320" width="170" height="30" as="geometry" />
        </mxCell>
        <mxCell id="AzpIxYVinU37_Tb9Akn6-3" value="varchar" style="text;strokeColor=none;fillColor=none;align=left;verticalAlign=middle;spacingLeft=4;spacingRight=4;overflow=hidden;points=[[0,0.5],[1,0.5]];portConstraint=eastwest;rotatable=0;whiteSpace=wrap;html=1;" parent="HJhV2FQeV8XM8kMmGPjY-107" vertex="1">
          <mxGeometry x="-190" y="320" width="190" height="30" as="geometry" />
        </mxCell>
        <mxCell id="AzpIxYVinU37_Tb9Akn6-4" value="exact date of birth dd-mm-yyyy" style="text;strokeColor=none;fillColor=none;align=left;verticalAlign=middle;spacingLeft=4;spacingRight=4;overflow=hidden;points=[[0,0.5],[1,0.5]];portConstraint=eastwest;rotatable=0;whiteSpace=wrap;html=1;" parent="HJhV2FQeV8XM8kMmGPjY-107" vertex="1">
          <mxGeometry y="320" width="300" height="30" as="geometry" />
        </mxCell>
        <mxCell id="HJhV2FQeV8XM8kMmGPjY-89" value="baptism_place" style="text;strokeColor=none;fillColor=none;align=left;verticalAlign=middle;spacingLeft=4;spacingRight=4;overflow=hidden;points=[[0,0.5],[1,0.5]];portConstraint=eastwest;rotatable=0;whiteSpace=wrap;html=1;" parent="HJhV2FQeV8XM8kMmGPjY-107" vertex="1">
          <mxGeometry x="-500" y="380" width="140" height="30" as="geometry" />
        </mxCell>
        <mxCell id="HJhV2FQeV8XM8kMmGPjY-90" value="baptism_place_id" style="text;strokeColor=#6c8ebf;fillColor=#dae8fc;align=left;verticalAlign=middle;spacingLeft=4;spacingRight=4;overflow=hidden;points=[[0,0.5],[1,0.5]];portConstraint=eastwest;rotatable=0;whiteSpace=wrap;html=1;" parent="HJhV2FQeV8XM8kMmGPjY-107" vertex="1">
          <mxGeometry x="-500" y="410" width="170" height="30" as="geometry" />
        </mxCell>
        <mxCell id="HJhV2FQeV8XM8kMmGPjY-91" value="baptism_year" style="text;strokeColor=none;fillColor=none;align=left;verticalAlign=middle;spacingLeft=4;spacingRight=4;overflow=hidden;points=[[0,0.5],[1,0.5]];portConstraint=eastwest;rotatable=0;whiteSpace=wrap;html=1;" parent="HJhV2FQeV8XM8kMmGPjY-107" vertex="1">
          <mxGeometry x="-500" y="440" width="140" height="30" as="geometry" />
        </mxCell>
        <mxCell id="HJhV2FQeV8XM8kMmGPjY-321" value="primary_key" style="text;strokeColor=#6c8ebf;fillColor=#dae8fc;align=left;verticalAlign=middle;spacingLeft=4;spacingRight=4;overflow=hidden;points=[[0,0.5],[1,0.5]];portConstraint=eastwest;rotatable=0;whiteSpace=wrap;html=1;" parent="HJhV2FQeV8XM8kMmGPjY-107" vertex="1">
          <mxGeometry x="-330" y="410" width="140" height="30" as="geometry" />
        </mxCell>
        <mxCell id="HJhV2FQeV8XM8kMmGPjY-120" value="varchar" style="text;strokeColor=none;fillColor=none;align=left;verticalAlign=middle;spacingLeft=4;spacingRight=4;overflow=hidden;points=[[0,0.5],[1,0.5]];portConstraint=eastwest;rotatable=0;whiteSpace=wrap;html=1;" parent="HJhV2FQeV8XM8kMmGPjY-107" vertex="1">
          <mxGeometry x="-190" y="380" width="140" height="30" as="geometry" />
        </mxCell>
        <mxCell id="HJhV2FQeV8XM8kMmGPjY-121" value="integer" style="text;strokeColor=#6c8ebf;fillColor=#dae8fc;align=left;verticalAlign=middle;spacingLeft=4;spacingRight=4;overflow=hidden;points=[[0,0.5],[1,0.5]];portConstraint=eastwest;rotatable=0;whiteSpace=wrap;html=1;" parent="HJhV2FQeV8XM8kMmGPjY-107" vertex="1">
          <mxGeometry x="-190" y="410" width="190" height="30" as="geometry" />
        </mxCell>
        <mxCell id="HJhV2FQeV8XM8kMmGPjY-122" value="integer" style="text;strokeColor=none;fillColor=none;align=left;verticalAlign=middle;spacingLeft=4;spacingRight=4;overflow=hidden;points=[[0,0.5],[1,0.5]];portConstraint=eastwest;rotatable=0;whiteSpace=wrap;html=1;" parent="HJhV2FQeV8XM8kMmGPjY-107" vertex="1">
          <mxGeometry x="-190" y="440" width="140" height="30" as="geometry" />
        </mxCell>
        <mxCell id="HJhV2FQeV8XM8kMmGPjY-500" value="place of baptism" style="text;strokeColor=none;fillColor=none;align=left;verticalAlign=middle;spacingLeft=4;spacingRight=4;overflow=hidden;points=[[0,0.5],[1,0.5]];portConstraint=eastwest;rotatable=0;whiteSpace=wrap;html=1;" parent="HJhV2FQeV8XM8kMmGPjY-107" vertex="1">
          <mxGeometry y="380" width="230" height="30" as="geometry" />
        </mxCell>
        <mxCell id="HJhV2FQeV8XM8kMmGPjY-501" value="id to add alternative spelling of place" style="text;strokeColor=#6c8ebf;fillColor=#dae8fc;align=left;verticalAlign=middle;spacingLeft=4;spacingRight=4;overflow=hidden;points=[[0,0.5],[1,0.5]];portConstraint=eastwest;rotatable=0;whiteSpace=wrap;html=1;" parent="HJhV2FQeV8XM8kMmGPjY-107" vertex="1">
          <mxGeometry y="410" width="300" height="30" as="geometry" />
        </mxCell>
        <mxCell id="HJhV2FQeV8XM8kMmGPjY-503" value="year of baptism" style="text;strokeColor=none;fillColor=none;align=left;verticalAlign=middle;spacingLeft=4;spacingRight=4;overflow=hidden;points=[[0,0.5],[1,0.5]];portConstraint=eastwest;rotatable=0;whiteSpace=wrap;html=1;" parent="HJhV2FQeV8XM8kMmGPjY-107" vertex="1">
          <mxGeometry y="440" width="230" height="30" as="geometry" />
        </mxCell>
        <mxCell id="AzpIxYVinU37_Tb9Akn6-6" value="baptism_date_exact" style="text;strokeColor=none;fillColor=none;align=left;verticalAlign=middle;spacingLeft=4;spacingRight=4;overflow=hidden;points=[[0,0.5],[1,0.5]];portConstraint=eastwest;rotatable=0;whiteSpace=wrap;html=1;" parent="HJhV2FQeV8XM8kMmGPjY-107" vertex="1">
          <mxGeometry x="-500" y="470" width="170" height="30" as="geometry" />
        </mxCell>
        <mxCell id="AzpIxYVinU37_Tb9Akn6-7" value="varchar" style="text;strokeColor=none;fillColor=none;align=left;verticalAlign=middle;spacingLeft=4;spacingRight=4;overflow=hidden;points=[[0,0.5],[1,0.5]];portConstraint=eastwest;rotatable=0;whiteSpace=wrap;html=1;" parent="HJhV2FQeV8XM8kMmGPjY-107" vertex="1">
          <mxGeometry x="-190" y="470" width="190" height="30" as="geometry" />
        </mxCell>
        <mxCell id="AzpIxYVinU37_Tb9Akn6-8" value="exact date of baptism dd-mm-yyyy" style="text;strokeColor=none;fillColor=none;align=left;verticalAlign=middle;spacingLeft=4;spacingRight=4;overflow=hidden;points=[[0,0.5],[1,0.5]];portConstraint=eastwest;rotatable=0;whiteSpace=wrap;html=1;" parent="HJhV2FQeV8XM8kMmGPjY-107" vertex="1">
          <mxGeometry y="470" width="300" height="30" as="geometry" />
        </mxCell>
        <mxCell id="HJhV2FQeV8XM8kMmGPjY-92" value="baptism_date_accuracy" style="text;strokeColor=none;fillColor=none;align=left;verticalAlign=middle;spacingLeft=4;spacingRight=4;overflow=hidden;points=[[0,0.5],[1,0.5]];portConstraint=eastwest;rotatable=0;whiteSpace=wrap;html=1;" parent="HJhV2FQeV8XM8kMmGPjY-107" vertex="1">
          <mxGeometry x="-500" y="500" width="140" height="30" as="geometry" />
        </mxCell>
        <mxCell id="HJhV2FQeV8XM8kMmGPjY-123" value="varchar" style="text;strokeColor=none;fillColor=none;align=left;verticalAlign=middle;spacingLeft=4;spacingRight=4;overflow=hidden;points=[[0,0.5],[1,0.5]];portConstraint=eastwest;rotatable=0;whiteSpace=wrap;html=1;" parent="HJhV2FQeV8XM8kMmGPjY-107" vertex="1">
          <mxGeometry x="-190" y="500" width="140" height="30" as="geometry" />
        </mxCell>
        <mxCell id="HJhV2FQeV8XM8kMmGPjY-502" value="accuracy of the year, like exact date or ca." style="text;strokeColor=none;fillColor=none;align=left;verticalAlign=middle;spacingLeft=4;spacingRight=4;overflow=hidden;points=[[0,0.5],[1,0.5]];portConstraint=eastwest;rotatable=0;whiteSpace=wrap;html=1;" parent="HJhV2FQeV8XM8kMmGPjY-107" vertex="1">
          <mxGeometry y="500" width="300" height="30" as="geometry" />
        </mxCell>
        <mxCell id="HJhV2FQeV8XM8kMmGPjY-93" value="death_place" style="text;strokeColor=none;fillColor=none;align=left;verticalAlign=middle;spacingLeft=4;spacingRight=4;overflow=hidden;points=[[0,0.5],[1,0.5]];portConstraint=eastwest;rotatable=0;whiteSpace=wrap;html=1;" parent="HJhV2FQeV8XM8kMmGPjY-107" vertex="1">
          <mxGeometry x="-500" y="530" width="140" height="30" as="geometry" />
        </mxCell>
        <mxCell id="HJhV2FQeV8XM8kMmGPjY-94" value="death_place_id" style="text;strokeColor=#6c8ebf;fillColor=#dae8fc;align=left;verticalAlign=middle;spacingLeft=4;spacingRight=4;overflow=hidden;points=[[0,0.5],[1,0.5]];portConstraint=eastwest;rotatable=0;whiteSpace=wrap;html=1;" parent="HJhV2FQeV8XM8kMmGPjY-107" vertex="1">
          <mxGeometry x="-500" y="560" width="170" height="30" as="geometry" />
        </mxCell>
        <mxCell id="HJhV2FQeV8XM8kMmGPjY-95" value="death_year" style="text;strokeColor=none;fillColor=none;align=left;verticalAlign=middle;spacingLeft=4;spacingRight=4;overflow=hidden;points=[[0,0.5],[1,0.5]];portConstraint=eastwest;rotatable=0;whiteSpace=wrap;html=1;" parent="HJhV2FQeV8XM8kMmGPjY-107" vertex="1">
          <mxGeometry x="-500" y="590" width="140" height="30" as="geometry" />
        </mxCell>
        <mxCell id="HJhV2FQeV8XM8kMmGPjY-322" value="primary_key" style="text;strokeColor=#6c8ebf;fillColor=#dae8fc;align=left;verticalAlign=middle;spacingLeft=4;spacingRight=4;overflow=hidden;points=[[0,0.5],[1,0.5]];portConstraint=eastwest;rotatable=0;whiteSpace=wrap;html=1;" parent="HJhV2FQeV8XM8kMmGPjY-107" vertex="1">
          <mxGeometry x="-330" y="560" width="140" height="30" as="geometry" />
        </mxCell>
        <mxCell id="HJhV2FQeV8XM8kMmGPjY-124" value="varchar" style="text;strokeColor=none;fillColor=none;align=left;verticalAlign=middle;spacingLeft=4;spacingRight=4;overflow=hidden;points=[[0,0.5],[1,0.5]];portConstraint=eastwest;rotatable=0;whiteSpace=wrap;html=1;" parent="HJhV2FQeV8XM8kMmGPjY-107" vertex="1">
          <mxGeometry x="-190" y="530" width="140" height="30" as="geometry" />
        </mxCell>
        <mxCell id="HJhV2FQeV8XM8kMmGPjY-125" value="integer" style="text;strokeColor=#6c8ebf;fillColor=#dae8fc;align=left;verticalAlign=middle;spacingLeft=4;spacingRight=4;overflow=hidden;points=[[0,0.5],[1,0.5]];portConstraint=eastwest;rotatable=0;whiteSpace=wrap;html=1;" parent="HJhV2FQeV8XM8kMmGPjY-107" vertex="1">
          <mxGeometry x="-190" y="560" width="190" height="30" as="geometry" />
        </mxCell>
        <mxCell id="HJhV2FQeV8XM8kMmGPjY-126" value="integer" style="text;strokeColor=none;fillColor=none;align=left;verticalAlign=middle;spacingLeft=4;spacingRight=4;overflow=hidden;points=[[0,0.5],[1,0.5]];portConstraint=eastwest;rotatable=0;whiteSpace=wrap;html=1;" parent="HJhV2FQeV8XM8kMmGPjY-107" vertex="1">
          <mxGeometry x="-190" y="590" width="140" height="30" as="geometry" />
        </mxCell>
        <mxCell id="HJhV2FQeV8XM8kMmGPjY-504" value="place of death" style="text;strokeColor=none;fillColor=none;align=left;verticalAlign=middle;spacingLeft=4;spacingRight=4;overflow=hidden;points=[[0,0.5],[1,0.5]];portConstraint=eastwest;rotatable=0;whiteSpace=wrap;html=1;" parent="HJhV2FQeV8XM8kMmGPjY-107" vertex="1">
          <mxGeometry y="530" width="230" height="30" as="geometry" />
        </mxCell>
        <mxCell id="HJhV2FQeV8XM8kMmGPjY-505" value="id to add alternative spelling of place" style="text;strokeColor=#6c8ebf;fillColor=#dae8fc;align=left;verticalAlign=middle;spacingLeft=4;spacingRight=4;overflow=hidden;points=[[0,0.5],[1,0.5]];portConstraint=eastwest;rotatable=0;whiteSpace=wrap;html=1;" parent="HJhV2FQeV8XM8kMmGPjY-107" vertex="1">
          <mxGeometry y="560" width="300" height="30" as="geometry" />
        </mxCell>
        <mxCell id="HJhV2FQeV8XM8kMmGPjY-507" value="year of death" style="text;strokeColor=none;fillColor=none;align=left;verticalAlign=middle;spacingLeft=4;spacingRight=4;overflow=hidden;points=[[0,0.5],[1,0.5]];portConstraint=eastwest;rotatable=0;whiteSpace=wrap;html=1;" parent="HJhV2FQeV8XM8kMmGPjY-107" vertex="1">
          <mxGeometry y="590" width="230" height="30" as="geometry" />
        </mxCell>
        <mxCell id="AzpIxYVinU37_Tb9Akn6-9" value="death_date_exact" style="text;strokeColor=none;fillColor=none;align=left;verticalAlign=middle;spacingLeft=4;spacingRight=4;overflow=hidden;points=[[0,0.5],[1,0.5]];portConstraint=eastwest;rotatable=0;whiteSpace=wrap;html=1;" parent="HJhV2FQeV8XM8kMmGPjY-107" vertex="1">
          <mxGeometry x="-500" y="620" width="170" height="30" as="geometry" />
        </mxCell>
        <mxCell id="AzpIxYVinU37_Tb9Akn6-10" value="varchar" style="text;strokeColor=none;fillColor=none;align=left;verticalAlign=middle;spacingLeft=4;spacingRight=4;overflow=hidden;points=[[0,0.5],[1,0.5]];portConstraint=eastwest;rotatable=0;whiteSpace=wrap;html=1;" parent="HJhV2FQeV8XM8kMmGPjY-107" vertex="1">
          <mxGeometry x="-190" y="620" width="190" height="30" as="geometry" />
        </mxCell>
        <mxCell id="AzpIxYVinU37_Tb9Akn6-11" value="exact date of death dd-mm-yyyy" style="text;strokeColor=none;fillColor=none;align=left;verticalAlign=middle;spacingLeft=4;spacingRight=4;overflow=hidden;points=[[0,0.5],[1,0.5]];portConstraint=eastwest;rotatable=0;whiteSpace=wrap;html=1;" parent="HJhV2FQeV8XM8kMmGPjY-107" vertex="1">
          <mxGeometry y="620" width="300" height="30" as="geometry" />
        </mxCell>
        <mxCell id="HJhV2FQeV8XM8kMmGPjY-96" value="death_date_accuracy" style="text;strokeColor=none;fillColor=none;align=left;verticalAlign=middle;spacingLeft=4;spacingRight=4;overflow=hidden;points=[[0,0.5],[1,0.5]];portConstraint=eastwest;rotatable=0;whiteSpace=wrap;html=1;" parent="HJhV2FQeV8XM8kMmGPjY-107" vertex="1">
          <mxGeometry x="-500" y="650" width="140" height="30" as="geometry" />
        </mxCell>
        <mxCell id="HJhV2FQeV8XM8kMmGPjY-127" value="varchar" style="text;strokeColor=none;fillColor=none;align=left;verticalAlign=middle;spacingLeft=4;spacingRight=4;overflow=hidden;points=[[0,0.5],[1,0.5]];portConstraint=eastwest;rotatable=0;whiteSpace=wrap;html=1;" parent="HJhV2FQeV8XM8kMmGPjY-107" vertex="1">
          <mxGeometry x="-190" y="650" width="140" height="30" as="geometry" />
        </mxCell>
        <mxCell id="HJhV2FQeV8XM8kMmGPjY-506" value="accuracy of the year" style="text;strokeColor=none;fillColor=none;align=left;verticalAlign=middle;spacingLeft=4;spacingRight=4;overflow=hidden;points=[[0,0.5],[1,0.5]];portConstraint=eastwest;rotatable=0;whiteSpace=wrap;html=1;" parent="HJhV2FQeV8XM8kMmGPjY-107" vertex="1">
          <mxGeometry y="650" width="300" height="30" as="geometry" />
        </mxCell>
        <mxCell id="HJhV2FQeV8XM8kMmGPjY-97" value="burried_place" style="text;strokeColor=none;fillColor=none;align=left;verticalAlign=middle;spacingLeft=4;spacingRight=4;overflow=hidden;points=[[0,0.5],[1,0.5]];portConstraint=eastwest;rotatable=0;whiteSpace=wrap;html=1;" parent="HJhV2FQeV8XM8kMmGPjY-107" vertex="1">
          <mxGeometry x="-500" y="680" width="140" height="30" as="geometry" />
        </mxCell>
        <mxCell id="HJhV2FQeV8XM8kMmGPjY-98" value="burried_place_id" style="text;strokeColor=#6c8ebf;fillColor=#dae8fc;align=left;verticalAlign=middle;spacingLeft=4;spacingRight=4;overflow=hidden;points=[[0,0.5],[1,0.5]];portConstraint=eastwest;rotatable=0;whiteSpace=wrap;html=1;" parent="HJhV2FQeV8XM8kMmGPjY-107" vertex="1">
          <mxGeometry x="-500" y="710" width="170" height="30" as="geometry" />
        </mxCell>
        <mxCell id="HJhV2FQeV8XM8kMmGPjY-323" value="primary_key" style="text;strokeColor=#6c8ebf;fillColor=#dae8fc;align=left;verticalAlign=middle;spacingLeft=4;spacingRight=4;overflow=hidden;points=[[0,0.5],[1,0.5]];portConstraint=eastwest;rotatable=0;whiteSpace=wrap;html=1;" parent="HJhV2FQeV8XM8kMmGPjY-107" vertex="1">
          <mxGeometry x="-330" y="710" width="140" height="30" as="geometry" />
        </mxCell>
        <mxCell id="HJhV2FQeV8XM8kMmGPjY-128" value="varchar" style="text;strokeColor=none;fillColor=none;align=left;verticalAlign=middle;spacingLeft=4;spacingRight=4;overflow=hidden;points=[[0,0.5],[1,0.5]];portConstraint=eastwest;rotatable=0;whiteSpace=wrap;html=1;" parent="HJhV2FQeV8XM8kMmGPjY-107" vertex="1">
          <mxGeometry x="-190" y="680" width="140" height="30" as="geometry" />
        </mxCell>
        <mxCell id="HJhV2FQeV8XM8kMmGPjY-129" value="integer" style="text;strokeColor=#6c8ebf;fillColor=#dae8fc;align=left;verticalAlign=middle;spacingLeft=4;spacingRight=4;overflow=hidden;points=[[0,0.5],[1,0.5]];portConstraint=eastwest;rotatable=0;whiteSpace=wrap;html=1;" parent="HJhV2FQeV8XM8kMmGPjY-107" vertex="1">
          <mxGeometry x="-190" y="710" width="190" height="30" as="geometry" />
        </mxCell>
        <mxCell id="HJhV2FQeV8XM8kMmGPjY-508" value="place where someone is burried" style="text;strokeColor=none;fillColor=none;align=left;verticalAlign=middle;spacingLeft=4;spacingRight=4;overflow=hidden;points=[[0,0.5],[1,0.5]];portConstraint=eastwest;rotatable=0;whiteSpace=wrap;html=1;" parent="HJhV2FQeV8XM8kMmGPjY-107" vertex="1">
          <mxGeometry y="680" width="230" height="30" as="geometry" />
        </mxCell>
        <mxCell id="HJhV2FQeV8XM8kMmGPjY-509" value="id to add alternative spelling of place" style="text;strokeColor=#6c8ebf;fillColor=#dae8fc;align=left;verticalAlign=middle;spacingLeft=4;spacingRight=4;overflow=hidden;points=[[0,0.5],[1,0.5]];portConstraint=eastwest;rotatable=0;whiteSpace=wrap;html=1;" parent="HJhV2FQeV8XM8kMmGPjY-107" vertex="1">
          <mxGeometry y="710" width="300" height="30" as="geometry" />
        </mxCell>
        <mxCell id="HJhV2FQeV8XM8kMmGPjY-99" value="funeral_year" style="text;strokeColor=none;fillColor=none;align=left;verticalAlign=middle;spacingLeft=4;spacingRight=4;overflow=hidden;points=[[0,0.5],[1,0.5]];portConstraint=eastwest;rotatable=0;whiteSpace=wrap;html=1;" parent="HJhV2FQeV8XM8kMmGPjY-107" vertex="1">
          <mxGeometry x="-500" y="740" width="140" height="30" as="geometry" />
        </mxCell>
        <mxCell id="HJhV2FQeV8XM8kMmGPjY-131" value="integer" style="text;strokeColor=none;fillColor=none;align=left;verticalAlign=middle;spacingLeft=4;spacingRight=4;overflow=hidden;points=[[0,0.5],[1,0.5]];portConstraint=eastwest;rotatable=0;whiteSpace=wrap;html=1;" parent="HJhV2FQeV8XM8kMmGPjY-107" vertex="1">
          <mxGeometry x="-190" y="740" width="140" height="30" as="geometry" />
        </mxCell>
        <mxCell id="HJhV2FQeV8XM8kMmGPjY-511" value="year of funeral" style="text;strokeColor=none;fillColor=none;align=left;verticalAlign=middle;spacingLeft=4;spacingRight=4;overflow=hidden;points=[[0,0.5],[1,0.5]];portConstraint=eastwest;rotatable=0;whiteSpace=wrap;html=1;" parent="HJhV2FQeV8XM8kMmGPjY-107" vertex="1">
          <mxGeometry y="740" width="230" height="30" as="geometry" />
        </mxCell>
        <mxCell id="AzpIxYVinU37_Tb9Akn6-14" value="exact date of funeral dd-mm-yyyy" style="text;strokeColor=none;fillColor=none;align=left;verticalAlign=middle;spacingLeft=4;spacingRight=4;overflow=hidden;points=[[0,0.5],[1,0.5]];portConstraint=eastwest;rotatable=0;whiteSpace=wrap;html=1;" parent="HJhV2FQeV8XM8kMmGPjY-107" vertex="1">
          <mxGeometry y="770" width="300" height="30" as="geometry" />
        </mxCell>
        <mxCell id="AzpIxYVinU37_Tb9Akn6-13" value="varchar" style="text;strokeColor=none;fillColor=none;align=left;verticalAlign=middle;spacingLeft=4;spacingRight=4;overflow=hidden;points=[[0,0.5],[1,0.5]];portConstraint=eastwest;rotatable=0;whiteSpace=wrap;html=1;" parent="HJhV2FQeV8XM8kMmGPjY-107" vertex="1">
          <mxGeometry x="-190" y="770" width="190" height="30" as="geometry" />
        </mxCell>
        <mxCell id="AzpIxYVinU37_Tb9Akn6-12" value="funeral_date_exact" style="text;strokeColor=none;fillColor=none;align=left;verticalAlign=middle;spacingLeft=4;spacingRight=4;overflow=hidden;points=[[0,0.5],[1,0.5]];portConstraint=eastwest;rotatable=0;whiteSpace=wrap;html=1;" parent="HJhV2FQeV8XM8kMmGPjY-107" vertex="1">
          <mxGeometry x="-500" y="770" width="170" height="30" as="geometry" />
        </mxCell>
        <mxCell id="HJhV2FQeV8XM8kMmGPjY-100" value="funeral_date_accuracy" style="text;strokeColor=none;fillColor=none;align=left;verticalAlign=middle;spacingLeft=4;spacingRight=4;overflow=hidden;points=[[0,0.5],[1,0.5]];portConstraint=eastwest;rotatable=0;whiteSpace=wrap;html=1;" parent="HJhV2FQeV8XM8kMmGPjY-107" vertex="1">
          <mxGeometry x="-500" y="800" width="140" height="30" as="geometry" />
        </mxCell>
        <mxCell id="HJhV2FQeV8XM8kMmGPjY-130" value="varchar" style="text;strokeColor=none;fillColor=none;align=left;verticalAlign=middle;spacingLeft=4;spacingRight=4;overflow=hidden;points=[[0,0.5],[1,0.5]];portConstraint=eastwest;rotatable=0;whiteSpace=wrap;html=1;" parent="HJhV2FQeV8XM8kMmGPjY-107" vertex="1">
          <mxGeometry x="-190" y="800" width="140" height="30" as="geometry" />
        </mxCell>
        <mxCell id="HJhV2FQeV8XM8kMmGPjY-510" value="accuracy of the date of funeral" style="text;strokeColor=none;fillColor=none;align=left;verticalAlign=middle;spacingLeft=4;spacingRight=4;overflow=hidden;points=[[0,0.5],[1,0.5]];portConstraint=eastwest;rotatable=0;whiteSpace=wrap;html=1;" parent="HJhV2FQeV8XM8kMmGPjY-107" vertex="1">
          <mxGeometry y="800" width="230" height="30" as="geometry" />
        </mxCell>
        <mxCell id="HJhV2FQeV8XM8kMmGPjY-103" value="remarks" style="text;strokeColor=none;fillColor=none;align=left;verticalAlign=middle;spacingLeft=4;spacingRight=4;overflow=hidden;points=[[0,0.5],[1,0.5]];portConstraint=eastwest;rotatable=0;whiteSpace=wrap;html=1;" parent="HJhV2FQeV8XM8kMmGPjY-107" vertex="1">
          <mxGeometry x="-500" y="830" width="140" height="30" as="geometry" />
        </mxCell>
        <mxCell id="HJhV2FQeV8XM8kMmGPjY-134" value="varchar" style="text;strokeColor=none;fillColor=none;align=left;verticalAlign=middle;spacingLeft=4;spacingRight=4;overflow=hidden;points=[[0,0.5],[1,0.5]];portConstraint=eastwest;rotatable=0;whiteSpace=wrap;html=1;" parent="HJhV2FQeV8XM8kMmGPjY-107" vertex="1">
          <mxGeometry x="-190" y="830" width="140" height="30" as="geometry" />
        </mxCell>
        <mxCell id="HJhV2FQeV8XM8kMmGPjY-514" value="remarks about the person (which does not relate to his/her role) also use to store other data which does not fit the other fields" style="text;strokeColor=none;fillColor=none;align=left;verticalAlign=middle;spacingLeft=4;spacingRight=4;overflow=hidden;points=[[0,0.5],[1,0.5]];portConstraint=eastwest;rotatable=0;whiteSpace=wrap;html=1;" parent="HJhV2FQeV8XM8kMmGPjY-107" vertex="1">
          <mxGeometry y="829" width="300" height="30" as="geometry" />
        </mxCell>
        <mxCell id="AzpIxYVinU37_Tb9Akn6-184" value="varchar" style="text;strokeColor=none;fillColor=none;align=left;verticalAlign=middle;spacingLeft=4;spacingRight=4;overflow=hidden;points=[[0,0.5],[1,0.5]];portConstraint=eastwest;rotatable=0;whiteSpace=wrap;html=1;" parent="HJhV2FQeV8XM8kMmGPjY-107" vertex="1">
          <mxGeometry x="-190" y="874" width="140" height="30" as="geometry" />
        </mxCell>
        <mxCell id="AzpIxYVinU37_Tb9Akn6-185" value="information about from which dataset the data originates and&amp;nbsp; additional remarks about the source (e.g volume/ book) " style="text;strokeColor=none;fillColor=none;align=left;verticalAlign=middle;spacingLeft=4;spacingRight=4;overflow=hidden;points=[[0,0.5],[1,0.5]];portConstraint=eastwest;rotatable=0;whiteSpace=wrap;html=1;" parent="HJhV2FQeV8XM8kMmGPjY-107" vertex="1">
          <mxGeometry y="864" width="300" height="50" as="geometry" />
        </mxCell>
        <mxCell id="HJhV2FQeV8XM8kMmGPjY-139" value="11_clerus_alt_name" style="swimlane;childLayout=stackLayout;resizeParent=1;resizeParentMax=0;startSize=20;html=1;" parent="1" vertex="1">
          <mxGeometry x="-3340" y="270" width="800" height="280" as="geometry" />
        </mxCell>
        <mxCell id="HJhV2FQeV8XM8kMmGPjY-140" value="collumn_name" style="swimlane;startSize=20;html=1;" parent="HJhV2FQeV8XM8kMmGPjY-139" vertex="1">
          <mxGeometry y="20" width="200" height="260" as="geometry">
            <mxRectangle y="20" width="40" height="460" as="alternateBounds" />
          </mxGeometry>
        </mxCell>
        <mxCell id="HJhV2FQeV8XM8kMmGPjY-206" value="clerus_id" style="text;strokeColor=#82b366;fillColor=#d5e8d4;align=left;verticalAlign=middle;spacingLeft=4;spacingRight=4;overflow=hidden;points=[[0,0.5],[1,0.5]];portConstraint=eastwest;rotatable=0;whiteSpace=wrap;html=1;" parent="HJhV2FQeV8XM8kMmGPjY-140" vertex="1">
          <mxGeometry y="20" width="200" height="30" as="geometry" />
        </mxCell>
        <mxCell id="HJhV2FQeV8XM8kMmGPjY-166" value="keys" style="swimlane;startSize=20;html=1;" parent="HJhV2FQeV8XM8kMmGPjY-139" vertex="1">
          <mxGeometry x="200" y="20" width="140" height="260" as="geometry">
            <mxRectangle x="170" y="20" width="40" height="770" as="alternateBounds" />
          </mxGeometry>
        </mxCell>
        <mxCell id="HJhV2FQeV8XM8kMmGPjY-167" value="foreign_key" style="text;strokeColor=#82b366;fillColor=#d5e8d4;align=left;verticalAlign=middle;spacingLeft=4;spacingRight=4;overflow=hidden;points=[[0,0.5],[1,0.5]];portConstraint=eastwest;rotatable=0;whiteSpace=wrap;html=1;" parent="HJhV2FQeV8XM8kMmGPjY-166" vertex="1">
          <mxGeometry y="20" width="140" height="30" as="geometry" />
        </mxCell>
        <mxCell id="HJhV2FQeV8XM8kMmGPjY-168" value="type" style="swimlane;startSize=20;html=1;" parent="HJhV2FQeV8XM8kMmGPjY-139" vertex="1">
          <mxGeometry x="340" y="20" width="190" height="260" as="geometry">
            <mxRectangle x="260" y="20" width="40" height="770" as="alternateBounds" />
          </mxGeometry>
        </mxCell>
        <mxCell id="HJhV2FQeV8XM8kMmGPjY-170" value="integer" style="text;strokeColor=#82b366;fillColor=#d5e8d4;align=left;verticalAlign=middle;spacingLeft=4;spacingRight=4;overflow=hidden;points=[[0,0.5],[1,0.5]];portConstraint=eastwest;rotatable=0;whiteSpace=wrap;html=1;" parent="HJhV2FQeV8XM8kMmGPjY-168" vertex="1">
          <mxGeometry y="20" width="190" height="30" as="geometry" />
        </mxCell>
        <mxCell id="HJhV2FQeV8XM8kMmGPjY-194" value="description" style="swimlane;startSize=20;html=1;" parent="HJhV2FQeV8XM8kMmGPjY-139" vertex="1">
          <mxGeometry x="530" y="20" width="270" height="260" as="geometry" />
        </mxCell>
        <mxCell id="HJhV2FQeV8XM8kMmGPjY-617" value="foreign key to 01" style="text;strokeColor=#82b366;fillColor=#d5e8d4;align=left;verticalAlign=middle;spacingLeft=4;spacingRight=4;overflow=hidden;points=[[0,0.5],[1,0.5]];portConstraint=eastwest;rotatable=0;whiteSpace=wrap;html=1;" parent="HJhV2FQeV8XM8kMmGPjY-194" vertex="1">
          <mxGeometry y="20" width="270" height="30" as="geometry" />
        </mxCell>
        <mxCell id="HJhV2FQeV8XM8kMmGPjY-208" value="alt_name" style="text;strokeColor=none;fillColor=none;align=left;verticalAlign=middle;spacingLeft=4;spacingRight=4;overflow=hidden;points=[[0,0.5],[1,0.5]];portConstraint=eastwest;rotatable=0;whiteSpace=wrap;html=1;" parent="HJhV2FQeV8XM8kMmGPjY-194" vertex="1">
          <mxGeometry x="-530" y="50" width="200" height="30" as="geometry" />
        </mxCell>
        <mxCell id="HJhV2FQeV8XM8kMmGPjY-209" value="alt_first_name" style="text;strokeColor=none;fillColor=none;align=left;verticalAlign=middle;spacingLeft=4;spacingRight=4;overflow=hidden;points=[[0,0.5],[1,0.5]];portConstraint=eastwest;rotatable=0;whiteSpace=wrap;html=1;" parent="HJhV2FQeV8XM8kMmGPjY-194" vertex="1">
          <mxGeometry x="-530" y="80" width="200" height="30" as="geometry" />
        </mxCell>
        <mxCell id="HJhV2FQeV8XM8kMmGPjY-210" value="alt_infix" style="text;strokeColor=none;fillColor=none;align=left;verticalAlign=middle;spacingLeft=4;spacingRight=4;overflow=hidden;points=[[0,0.5],[1,0.5]];portConstraint=eastwest;rotatable=0;whiteSpace=wrap;html=1;" parent="HJhV2FQeV8XM8kMmGPjY-194" vertex="1">
          <mxGeometry x="-530" y="110" width="200" height="30" as="geometry" />
        </mxCell>
        <mxCell id="HJhV2FQeV8XM8kMmGPjY-211" value="alt_surname" style="text;strokeColor=none;fillColor=none;align=left;verticalAlign=middle;spacingLeft=4;spacingRight=4;overflow=hidden;points=[[0,0.5],[1,0.5]];portConstraint=eastwest;rotatable=0;whiteSpace=wrap;html=1;" parent="HJhV2FQeV8XM8kMmGPjY-194" vertex="1">
          <mxGeometry x="-530" y="140" width="200" height="30" as="geometry" />
        </mxCell>
        <mxCell id="HJhV2FQeV8XM8kMmGPjY-171" value="varchar" style="text;strokeColor=none;fillColor=none;align=left;verticalAlign=middle;spacingLeft=4;spacingRight=4;overflow=hidden;points=[[0,0.5],[1,0.5]];portConstraint=eastwest;rotatable=0;whiteSpace=wrap;html=1;" parent="HJhV2FQeV8XM8kMmGPjY-194" vertex="1">
          <mxGeometry x="-190" y="50" width="140" height="30" as="geometry" />
        </mxCell>
        <mxCell id="HJhV2FQeV8XM8kMmGPjY-172" value="varchar" style="text;strokeColor=none;fillColor=none;align=left;verticalAlign=middle;spacingLeft=4;spacingRight=4;overflow=hidden;points=[[0,0.5],[1,0.5]];portConstraint=eastwest;rotatable=0;whiteSpace=wrap;html=1;" parent="HJhV2FQeV8XM8kMmGPjY-194" vertex="1">
          <mxGeometry x="-190" y="80" width="140" height="30" as="geometry" />
        </mxCell>
        <mxCell id="HJhV2FQeV8XM8kMmGPjY-173" value="varchar" style="text;strokeColor=none;fillColor=none;align=left;verticalAlign=middle;spacingLeft=4;spacingRight=4;overflow=hidden;points=[[0,0.5],[1,0.5]];portConstraint=eastwest;rotatable=0;whiteSpace=wrap;html=1;" parent="HJhV2FQeV8XM8kMmGPjY-194" vertex="1">
          <mxGeometry x="-190" y="110" width="140" height="30" as="geometry" />
        </mxCell>
        <mxCell id="HJhV2FQeV8XM8kMmGPjY-174" value="varchar" style="text;strokeColor=none;fillColor=none;align=left;verticalAlign=middle;spacingLeft=4;spacingRight=4;overflow=hidden;points=[[0,0.5],[1,0.5]];portConstraint=eastwest;rotatable=0;whiteSpace=wrap;html=1;" parent="HJhV2FQeV8XM8kMmGPjY-194" vertex="1">
          <mxGeometry x="-190" y="140" width="140" height="30" as="geometry" />
        </mxCell>
        <mxCell id="HJhV2FQeV8XM8kMmGPjY-618" value="." style="text;strokeColor=none;fillColor=none;align=left;verticalAlign=middle;spacingLeft=4;spacingRight=4;overflow=hidden;points=[[0,0.5],[1,0.5]];portConstraint=eastwest;rotatable=0;whiteSpace=wrap;html=1;" parent="HJhV2FQeV8XM8kMmGPjY-194" vertex="1">
          <mxGeometry y="50" width="230" height="30" as="geometry" />
        </mxCell>
        <mxCell id="HJhV2FQeV8XM8kMmGPjY-619" value="alternative first name" style="text;strokeColor=none;fillColor=none;align=left;verticalAlign=middle;spacingLeft=4;spacingRight=4;overflow=hidden;points=[[0,0.5],[1,0.5]];portConstraint=eastwest;rotatable=0;whiteSpace=wrap;html=1;" parent="HJhV2FQeV8XM8kMmGPjY-194" vertex="1">
          <mxGeometry y="80" width="230" height="30" as="geometry" />
        </mxCell>
        <mxCell id="HJhV2FQeV8XM8kMmGPjY-620" value="alternative surname" style="text;strokeColor=none;fillColor=none;align=left;verticalAlign=middle;spacingLeft=4;spacingRight=4;overflow=hidden;points=[[0,0.5],[1,0.5]];portConstraint=eastwest;rotatable=0;whiteSpace=wrap;html=1;" parent="HJhV2FQeV8XM8kMmGPjY-194" vertex="1">
          <mxGeometry y="140" width="230" height="30" as="geometry" />
        </mxCell>
        <mxCell id="HJhV2FQeV8XM8kMmGPjY-621" value="alternative infix" style="text;strokeColor=none;fillColor=none;align=left;verticalAlign=middle;spacingLeft=4;spacingRight=4;overflow=hidden;points=[[0,0.5],[1,0.5]];portConstraint=eastwest;rotatable=0;whiteSpace=wrap;html=1;" parent="HJhV2FQeV8XM8kMmGPjY-194" vertex="1">
          <mxGeometry y="110" width="230" height="30" as="geometry" />
        </mxCell>
        <mxCell id="HJhV2FQeV8XM8kMmGPjY-643" value="alternative name it is not splitted" style="text;strokeColor=none;fillColor=none;align=left;verticalAlign=middle;spacingLeft=4;spacingRight=4;overflow=hidden;points=[[0,0.5],[1,0.5]];portConstraint=eastwest;rotatable=0;whiteSpace=wrap;html=1;" parent="HJhV2FQeV8XM8kMmGPjY-194" vertex="1">
          <mxGeometry y="50" width="230" height="30" as="geometry" />
        </mxCell>
        <mxCell id="HJhV2FQeV8XM8kMmGPjY-213" value="alt_info_family" style="text;strokeColor=none;fillColor=none;align=left;verticalAlign=middle;spacingLeft=4;spacingRight=4;overflow=hidden;points=[[0,0.5],[1,0.5]];portConstraint=eastwest;rotatable=0;whiteSpace=wrap;html=1;" parent="HJhV2FQeV8XM8kMmGPjY-194" vertex="1">
          <mxGeometry x="-530" y="170" width="200" height="30" as="geometry" />
        </mxCell>
        <mxCell id="HJhV2FQeV8XM8kMmGPjY-214" value="remarks_alt_name" style="text;strokeColor=none;fillColor=none;align=left;verticalAlign=middle;spacingLeft=4;spacingRight=4;overflow=hidden;points=[[0,0.5],[1,0.5]];portConstraint=eastwest;rotatable=0;whiteSpace=wrap;html=1;" parent="HJhV2FQeV8XM8kMmGPjY-194" vertex="1">
          <mxGeometry x="-530" y="200" width="200" height="30" as="geometry" />
        </mxCell>
        <mxCell id="xJq8VJdn7wkD5GuFVw5j-501" value="alt_initials" style="text;strokeColor=none;fillColor=none;align=left;verticalAlign=middle;spacingLeft=4;spacingRight=4;overflow=hidden;points=[[0,0.5],[1,0.5]];portConstraint=eastwest;rotatable=0;whiteSpace=wrap;html=1;" parent="HJhV2FQeV8XM8kMmGPjY-194" vertex="1">
          <mxGeometry x="-530" y="230" width="200" height="30" as="geometry" />
        </mxCell>
        <mxCell id="xJq8VJdn7wkD5GuFVw5j-504" value="varchar" style="text;strokeColor=none;fillColor=none;align=left;verticalAlign=middle;spacingLeft=4;spacingRight=4;overflow=hidden;points=[[0,0.5],[1,0.5]];portConstraint=eastwest;rotatable=0;whiteSpace=wrap;html=1;" parent="HJhV2FQeV8XM8kMmGPjY-194" vertex="1">
          <mxGeometry x="-190" y="230" width="140" height="30" as="geometry" />
        </mxCell>
        <mxCell id="HJhV2FQeV8XM8kMmGPjY-177" value="varchar" style="text;strokeColor=none;fillColor=none;align=left;verticalAlign=middle;spacingLeft=4;spacingRight=4;overflow=hidden;points=[[0,0.5],[1,0.5]];portConstraint=eastwest;rotatable=0;whiteSpace=wrap;html=1;" parent="HJhV2FQeV8XM8kMmGPjY-194" vertex="1">
          <mxGeometry x="-190" y="200" width="140" height="30" as="geometry" />
        </mxCell>
        <mxCell id="HJhV2FQeV8XM8kMmGPjY-176" value="varchar" style="text;strokeColor=none;fillColor=none;align=left;verticalAlign=middle;spacingLeft=4;spacingRight=4;overflow=hidden;points=[[0,0.5],[1,0.5]];portConstraint=eastwest;rotatable=0;whiteSpace=wrap;html=1;" parent="HJhV2FQeV8XM8kMmGPjY-194" vertex="1">
          <mxGeometry x="-190" y="170" width="140" height="30" as="geometry" />
        </mxCell>
        <mxCell id="HJhV2FQeV8XM8kMmGPjY-623" value="alternative information of family (zv, fillius etc.)" style="text;strokeColor=none;fillColor=none;align=left;verticalAlign=middle;spacingLeft=4;spacingRight=4;overflow=hidden;points=[[0,0.5],[1,0.5]];portConstraint=eastwest;rotatable=0;whiteSpace=wrap;html=1;" parent="HJhV2FQeV8XM8kMmGPjY-194" vertex="1">
          <mxGeometry y="170" width="270" height="30" as="geometry" />
        </mxCell>
        <mxCell id="HJhV2FQeV8XM8kMmGPjY-625" value="remarks" style="text;strokeColor=none;fillColor=none;align=left;verticalAlign=middle;spacingLeft=4;spacingRight=4;overflow=hidden;points=[[0,0.5],[1,0.5]];portConstraint=eastwest;rotatable=0;whiteSpace=wrap;html=1;" parent="HJhV2FQeV8XM8kMmGPjY-194" vertex="1">
          <mxGeometry y="200" width="230" height="30" as="geometry" />
        </mxCell>
        <mxCell id="xJq8VJdn7wkD5GuFVw5j-505" value="alternative initials" style="text;strokeColor=none;fillColor=none;align=left;verticalAlign=middle;spacingLeft=4;spacingRight=4;overflow=hidden;points=[[0,0.5],[1,0.5]];portConstraint=eastwest;rotatable=0;whiteSpace=wrap;html=1;" parent="HJhV2FQeV8XM8kMmGPjY-194" vertex="1">
          <mxGeometry y="230" width="270" height="30" as="geometry" />
        </mxCell>
        <mxCell id="HJhV2FQeV8XM8kMmGPjY-215" value="12_clerus_role" style="swimlane;childLayout=stackLayout;resizeParent=1;resizeParentMax=0;startSize=20;html=1;" parent="1" vertex="1">
          <mxGeometry x="-3340" y="614" width="800" height="690" as="geometry" />
        </mxCell>
        <mxCell id="HJhV2FQeV8XM8kMmGPjY-216" value="collumn_name" style="swimlane;startSize=20;html=1;" parent="HJhV2FQeV8XM8kMmGPjY-215" vertex="1">
          <mxGeometry y="20" width="200" height="670" as="geometry">
            <mxRectangle y="20" width="40" height="460" as="alternateBounds" />
          </mxGeometry>
        </mxCell>
        <mxCell id="HJhV2FQeV8XM8kMmGPjY-296" value="clerus_id" style="text;strokeColor=#82b366;fillColor=#d5e8d4;align=left;verticalAlign=middle;spacingLeft=4;spacingRight=4;overflow=hidden;points=[[0,0.5],[1,0.5]];portConstraint=eastwest;rotatable=0;whiteSpace=wrap;html=1;" parent="HJhV2FQeV8XM8kMmGPjY-216" vertex="1">
          <mxGeometry y="20" width="200" height="30" as="geometry" />
        </mxCell>
        <mxCell id="MycioCW-ojI7vUGecbIW-1" value="role_remarks_source" style="text;strokeColor=none;fillColor=none;align=left;verticalAlign=middle;spacingLeft=4;spacingRight=4;overflow=hidden;points=[[0,0.5],[1,0.5]];portConstraint=eastwest;rotatable=0;whiteSpace=wrap;html=1;" parent="HJhV2FQeV8XM8kMmGPjY-216" vertex="1">
          <mxGeometry y="571" width="140" height="30" as="geometry" />
        </mxCell>
        <mxCell id="HJhV2FQeV8XM8kMmGPjY-242" value="keys" style="swimlane;startSize=20;html=1;" parent="HJhV2FQeV8XM8kMmGPjY-215" vertex="1">
          <mxGeometry x="200" y="20" width="140" height="670" as="geometry">
            <mxRectangle x="170" y="20" width="40" height="770" as="alternateBounds" />
          </mxGeometry>
        </mxCell>
        <mxCell id="HJhV2FQeV8XM8kMmGPjY-243" value="foreign_key" style="text;strokeColor=#82b366;fillColor=#d5e8d4;align=left;verticalAlign=middle;spacingLeft=4;spacingRight=4;overflow=hidden;points=[[0,0.5],[1,0.5]];portConstraint=eastwest;rotatable=0;whiteSpace=wrap;html=1;" parent="HJhV2FQeV8XM8kMmGPjY-242" vertex="1">
          <mxGeometry y="20" width="140" height="30" as="geometry" />
        </mxCell>
        <mxCell id="HJhV2FQeV8XM8kMmGPjY-244" value="type" style="swimlane;startSize=20;html=1;" parent="HJhV2FQeV8XM8kMmGPjY-215" vertex="1">
          <mxGeometry x="340" y="20" width="190" height="670" as="geometry">
            <mxRectangle x="260" y="20" width="40" height="770" as="alternateBounds" />
          </mxGeometry>
        </mxCell>
        <mxCell id="HJhV2FQeV8XM8kMmGPjY-246" value="integer" style="text;strokeColor=#82b366;fillColor=#d5e8d4;align=left;verticalAlign=middle;spacingLeft=4;spacingRight=4;overflow=hidden;points=[[0,0.5],[1,0.5]];portConstraint=eastwest;rotatable=0;whiteSpace=wrap;html=1;" parent="HJhV2FQeV8XM8kMmGPjY-244" vertex="1">
          <mxGeometry y="20" width="190" height="30" as="geometry" />
        </mxCell>
        <mxCell id="HJhV2FQeV8XM8kMmGPjY-249" value="integer" style="text;strokeColor=#6c8ebf;fillColor=#dae8fc;align=left;verticalAlign=middle;spacingLeft=4;spacingRight=4;overflow=hidden;points=[[0,0.5],[1,0.5]];portConstraint=eastwest;rotatable=0;whiteSpace=wrap;html=1;" parent="HJhV2FQeV8XM8kMmGPjY-244" vertex="1">
          <mxGeometry y="110" width="190" height="30" as="geometry" />
        </mxCell>
        <mxCell id="HJhV2FQeV8XM8kMmGPjY-298" value="role_type" style="text;strokeColor=none;fillColor=none;align=left;verticalAlign=middle;spacingLeft=4;spacingRight=4;overflow=hidden;points=[[0,0.5],[1,0.5]];portConstraint=eastwest;rotatable=0;whiteSpace=wrap;html=1;" parent="HJhV2FQeV8XM8kMmGPjY-244" vertex="1">
          <mxGeometry x="-340" y="50" width="200" height="30" as="geometry" />
        </mxCell>
        <mxCell id="HJhV2FQeV8XM8kMmGPjY-299" value="role_place" style="text;strokeColor=none;fillColor=none;align=left;verticalAlign=middle;spacingLeft=4;spacingRight=4;overflow=hidden;points=[[0,0.5],[1,0.5]];portConstraint=eastwest;rotatable=0;whiteSpace=wrap;html=1;" parent="HJhV2FQeV8XM8kMmGPjY-244" vertex="1">
          <mxGeometry x="-340" y="80" width="200" height="30" as="geometry" />
        </mxCell>
        <mxCell id="HJhV2FQeV8XM8kMmGPjY-300" value="role_place_id" style="text;strokeColor=#6c8ebf;fillColor=#dae8fc;align=left;verticalAlign=middle;spacingLeft=4;spacingRight=4;overflow=hidden;points=[[0,0.5],[1,0.5]];portConstraint=eastwest;rotatable=0;whiteSpace=wrap;html=1;" parent="HJhV2FQeV8XM8kMmGPjY-244" vertex="1">
          <mxGeometry x="-340" y="110" width="200" height="30" as="geometry" />
        </mxCell>
        <mxCell id="HJhV2FQeV8XM8kMmGPjY-301" value="role_classis_code" style="text;strokeColor=none;fillColor=none;align=left;verticalAlign=middle;spacingLeft=4;spacingRight=4;overflow=hidden;points=[[0,0.5],[1,0.5]];portConstraint=eastwest;rotatable=0;whiteSpace=wrap;html=1;" parent="HJhV2FQeV8XM8kMmGPjY-244" vertex="1">
          <mxGeometry x="-340" y="140" width="200" height="30" as="geometry" />
        </mxCell>
        <mxCell id="HJhV2FQeV8XM8kMmGPjY-302" value="role_province" style="text;strokeColor=none;fillColor=none;align=left;verticalAlign=middle;spacingLeft=4;spacingRight=4;overflow=hidden;points=[[0,0.5],[1,0.5]];portConstraint=eastwest;rotatable=0;whiteSpace=wrap;html=1;" parent="HJhV2FQeV8XM8kMmGPjY-244" vertex="1">
          <mxGeometry x="-340" y="235" width="200" height="30" as="geometry" />
        </mxCell>
        <mxCell id="HJhV2FQeV8XM8kMmGPjY-304" value="role_region" style="text;strokeColor=none;fillColor=none;align=left;verticalAlign=middle;spacingLeft=4;spacingRight=4;overflow=hidden;points=[[0,0.5],[1,0.5]];portConstraint=eastwest;rotatable=0;whiteSpace=wrap;html=1;" parent="HJhV2FQeV8XM8kMmGPjY-244" vertex="1">
          <mxGeometry x="-340" y="265" width="200" height="30" as="geometry" />
        </mxCell>
        <mxCell id="HJhV2FQeV8XM8kMmGPjY-305" value="role_start_year" style="text;strokeColor=none;fillColor=none;align=left;verticalAlign=middle;spacingLeft=4;spacingRight=4;overflow=hidden;points=[[0,0.5],[1,0.5]];portConstraint=eastwest;rotatable=0;whiteSpace=wrap;html=1;" parent="HJhV2FQeV8XM8kMmGPjY-244" vertex="1">
          <mxGeometry x="-340" y="295" width="200" height="30" as="geometry" />
        </mxCell>
        <mxCell id="HJhV2FQeV8XM8kMmGPjY-329" value="role_classis" style="text;strokeColor=none;fillColor=none;align=left;verticalAlign=middle;spacingLeft=4;spacingRight=4;overflow=hidden;points=[[0,0.5],[1,0.5]];portConstraint=eastwest;rotatable=0;whiteSpace=wrap;html=1;" parent="HJhV2FQeV8XM8kMmGPjY-244" vertex="1">
          <mxGeometry x="-340" y="170" width="200" height="30" as="geometry" />
        </mxCell>
        <mxCell id="xJq8VJdn7wkD5GuFVw5j-464" value="role_parish" style="text;strokeColor=none;fillColor=none;align=left;verticalAlign=middle;spacingLeft=4;spacingRight=4;overflow=hidden;points=[[0,0.5],[1,0.5]];portConstraint=eastwest;rotatable=0;whiteSpace=wrap;html=1;" parent="HJhV2FQeV8XM8kMmGPjY-244" vertex="1">
          <mxGeometry x="-340" y="200" width="200" height="30" as="geometry" />
        </mxCell>
        <mxCell id="HJhV2FQeV8XM8kMmGPjY-326" value="primary_key" style="text;strokeColor=#6c8ebf;fillColor=#dae8fc;align=left;verticalAlign=middle;spacingLeft=4;spacingRight=4;overflow=hidden;points=[[0,0.5],[1,0.5]];portConstraint=eastwest;rotatable=0;whiteSpace=wrap;html=1;" parent="HJhV2FQeV8XM8kMmGPjY-244" vertex="1">
          <mxGeometry x="-140" y="110" width="140" height="30" as="geometry" />
        </mxCell>
        <mxCell id="HJhV2FQeV8XM8kMmGPjY-247" value="varchar" style="text;strokeColor=none;fillColor=none;align=left;verticalAlign=middle;spacingLeft=4;spacingRight=4;overflow=hidden;points=[[0,0.5],[1,0.5]];portConstraint=eastwest;rotatable=0;whiteSpace=wrap;html=1;" parent="HJhV2FQeV8XM8kMmGPjY-244" vertex="1">
          <mxGeometry y="50" width="140" height="30" as="geometry" />
        </mxCell>
        <mxCell id="HJhV2FQeV8XM8kMmGPjY-248" value="varchar" style="text;strokeColor=none;fillColor=none;align=left;verticalAlign=middle;spacingLeft=4;spacingRight=4;overflow=hidden;points=[[0,0.5],[1,0.5]];portConstraint=eastwest;rotatable=0;whiteSpace=wrap;html=1;" parent="HJhV2FQeV8XM8kMmGPjY-244" vertex="1">
          <mxGeometry y="80" width="140" height="30" as="geometry" />
        </mxCell>
        <mxCell id="HJhV2FQeV8XM8kMmGPjY-250" value="integer" style="text;strokeColor=none;fillColor=none;align=left;verticalAlign=middle;spacingLeft=4;spacingRight=4;overflow=hidden;points=[[0,0.5],[1,0.5]];portConstraint=eastwest;rotatable=0;whiteSpace=wrap;html=1;" parent="HJhV2FQeV8XM8kMmGPjY-244" vertex="1">
          <mxGeometry y="140" width="140" height="30" as="geometry" />
        </mxCell>
        <mxCell id="HJhV2FQeV8XM8kMmGPjY-251" value="varchar" style="text;strokeColor=none;fillColor=none;align=left;verticalAlign=middle;spacingLeft=4;spacingRight=4;overflow=hidden;points=[[0,0.5],[1,0.5]];portConstraint=eastwest;rotatable=0;whiteSpace=wrap;html=1;" parent="HJhV2FQeV8XM8kMmGPjY-244" vertex="1">
          <mxGeometry y="170" width="140" height="30" as="geometry" />
        </mxCell>
        <mxCell id="HJhV2FQeV8XM8kMmGPjY-252" value="varchar" style="text;strokeColor=none;fillColor=none;align=left;verticalAlign=middle;spacingLeft=4;spacingRight=4;overflow=hidden;points=[[0,0.5],[1,0.5]];portConstraint=eastwest;rotatable=0;whiteSpace=wrap;html=1;" parent="HJhV2FQeV8XM8kMmGPjY-244" vertex="1">
          <mxGeometry y="235" width="140" height="30" as="geometry" />
        </mxCell>
        <mxCell id="HJhV2FQeV8XM8kMmGPjY-254" value="varchar" style="text;strokeColor=none;fillColor=none;align=left;verticalAlign=middle;spacingLeft=4;spacingRight=4;overflow=hidden;points=[[0,0.5],[1,0.5]];portConstraint=eastwest;rotatable=0;whiteSpace=wrap;html=1;" parent="HJhV2FQeV8XM8kMmGPjY-244" vertex="1">
          <mxGeometry y="265" width="140" height="30" as="geometry" />
        </mxCell>
        <mxCell id="HJhV2FQeV8XM8kMmGPjY-255" value="integer" style="text;strokeColor=none;fillColor=none;align=left;verticalAlign=middle;spacingLeft=4;spacingRight=4;overflow=hidden;points=[[0,0.5],[1,0.5]];portConstraint=eastwest;rotatable=0;whiteSpace=wrap;html=1;" parent="HJhV2FQeV8XM8kMmGPjY-244" vertex="1">
          <mxGeometry y="295" width="140" height="30" as="geometry" />
        </mxCell>
        <mxCell id="xJq8VJdn7wkD5GuFVw5j-465" value="varchar" style="text;strokeColor=none;fillColor=none;align=left;verticalAlign=middle;spacingLeft=4;spacingRight=4;overflow=hidden;points=[[0,0.5],[1,0.5]];portConstraint=eastwest;rotatable=0;whiteSpace=wrap;html=1;" parent="HJhV2FQeV8XM8kMmGPjY-244" vertex="1">
          <mxGeometry y="200" width="140" height="30" as="geometry" />
        </mxCell>
        <mxCell id="AzpIxYVinU37_Tb9Akn6-30" value="role_start_date_exact" style="text;strokeColor=none;fillColor=none;align=left;verticalAlign=middle;spacingLeft=4;spacingRight=4;overflow=hidden;points=[[0,0.5],[1,0.5]];portConstraint=eastwest;rotatable=0;whiteSpace=wrap;html=1;" parent="HJhV2FQeV8XM8kMmGPjY-244" vertex="1">
          <mxGeometry x="-340" y="325" width="200" height="30" as="geometry" />
        </mxCell>
        <mxCell id="AzpIxYVinU37_Tb9Akn6-31" value="varchar" style="text;strokeColor=none;fillColor=none;align=left;verticalAlign=middle;spacingLeft=4;spacingRight=4;overflow=hidden;points=[[0,0.5],[1,0.5]];portConstraint=eastwest;rotatable=0;whiteSpace=wrap;html=1;" parent="HJhV2FQeV8XM8kMmGPjY-244" vertex="1">
          <mxGeometry y="325" width="140" height="30" as="geometry" />
        </mxCell>
        <mxCell id="HJhV2FQeV8XM8kMmGPjY-306" value="role_start_year_accuracy" style="text;strokeColor=none;fillColor=none;align=left;verticalAlign=middle;spacingLeft=4;spacingRight=4;overflow=hidden;points=[[0,0.5],[1,0.5]];portConstraint=eastwest;rotatable=0;whiteSpace=wrap;html=1;" parent="HJhV2FQeV8XM8kMmGPjY-244" vertex="1">
          <mxGeometry x="-340" y="355" width="200" height="30" as="geometry" />
        </mxCell>
        <mxCell id="HJhV2FQeV8XM8kMmGPjY-256" value="varchar" style="text;strokeColor=none;fillColor=none;align=left;verticalAlign=middle;spacingLeft=4;spacingRight=4;overflow=hidden;points=[[0,0.5],[1,0.5]];portConstraint=eastwest;rotatable=0;whiteSpace=wrap;html=1;" parent="HJhV2FQeV8XM8kMmGPjY-244" vertex="1">
          <mxGeometry y="355" width="140" height="30" as="geometry" />
        </mxCell>
        <mxCell id="HJhV2FQeV8XM8kMmGPjY-307" value="role_end_year" style="text;strokeColor=none;fillColor=none;align=left;verticalAlign=middle;spacingLeft=4;spacingRight=4;overflow=hidden;points=[[0,0.5],[1,0.5]];portConstraint=eastwest;rotatable=0;whiteSpace=wrap;html=1;" parent="HJhV2FQeV8XM8kMmGPjY-244" vertex="1">
          <mxGeometry x="-340" y="385" width="200" height="30" as="geometry" />
        </mxCell>
        <mxCell id="HJhV2FQeV8XM8kMmGPjY-257" value="integer" style="text;strokeColor=none;fillColor=none;align=left;verticalAlign=middle;spacingLeft=4;spacingRight=4;overflow=hidden;points=[[0,0.5],[1,0.5]];portConstraint=eastwest;rotatable=0;whiteSpace=wrap;html=1;" parent="HJhV2FQeV8XM8kMmGPjY-244" vertex="1">
          <mxGeometry y="385" width="140" height="30" as="geometry" />
        </mxCell>
        <mxCell id="HJhV2FQeV8XM8kMmGPjY-308" value="role_end_year_accuracy" style="text;strokeColor=none;fillColor=none;align=left;verticalAlign=middle;spacingLeft=4;spacingRight=4;overflow=hidden;points=[[0,0.5],[1,0.5]];portConstraint=eastwest;rotatable=0;whiteSpace=wrap;html=1;" parent="HJhV2FQeV8XM8kMmGPjY-244" vertex="1">
          <mxGeometry x="-340" y="445" width="200" height="30" as="geometry" />
        </mxCell>
        <mxCell id="HJhV2FQeV8XM8kMmGPjY-258" value="varchar" style="text;strokeColor=none;fillColor=none;align=left;verticalAlign=middle;spacingLeft=4;spacingRight=4;overflow=hidden;points=[[0,0.5],[1,0.5]];portConstraint=eastwest;rotatable=0;whiteSpace=wrap;html=1;" parent="HJhV2FQeV8XM8kMmGPjY-244" vertex="1">
          <mxGeometry y="445" width="140" height="30" as="geometry" />
        </mxCell>
        <mxCell id="AzpIxYVinU37_Tb9Akn6-139" value="role_end_date_exact" style="text;strokeColor=none;fillColor=none;align=left;verticalAlign=middle;spacingLeft=4;spacingRight=4;overflow=hidden;points=[[0,0.5],[1,0.5]];portConstraint=eastwest;rotatable=0;whiteSpace=wrap;html=1;" parent="HJhV2FQeV8XM8kMmGPjY-244" vertex="1">
          <mxGeometry x="-340" y="415" width="200" height="30" as="geometry" />
        </mxCell>
        <mxCell id="AzpIxYVinU37_Tb9Akn6-140" value="varchar" style="text;strokeColor=none;fillColor=none;align=left;verticalAlign=middle;spacingLeft=4;spacingRight=4;overflow=hidden;points=[[0,0.5],[1,0.5]];portConstraint=eastwest;rotatable=0;whiteSpace=wrap;html=1;" parent="HJhV2FQeV8XM8kMmGPjY-244" vertex="1">
          <mxGeometry y="415" width="140" height="30" as="geometry" />
        </mxCell>
        <mxCell id="HJhV2FQeV8XM8kMmGPjY-309" value="role_residence_place" style="text;strokeColor=none;fillColor=none;align=left;verticalAlign=middle;spacingLeft=4;spacingRight=4;overflow=hidden;points=[[0,0.5],[1,0.5]];portConstraint=eastwest;rotatable=0;whiteSpace=wrap;html=1;" parent="HJhV2FQeV8XM8kMmGPjY-244" vertex="1">
          <mxGeometry x="-340" y="475" width="200" height="30" as="geometry" />
        </mxCell>
        <mxCell id="HJhV2FQeV8XM8kMmGPjY-310" value="role_residence_place_id" style="text;strokeColor=#6c8ebf;fillColor=#dae8fc;align=left;verticalAlign=middle;spacingLeft=4;spacingRight=4;overflow=hidden;points=[[0,0.5],[1,0.5]];portConstraint=eastwest;rotatable=0;whiteSpace=wrap;html=1;" parent="HJhV2FQeV8XM8kMmGPjY-244" vertex="1">
          <mxGeometry x="-340" y="505" width="200" height="30" as="geometry" />
        </mxCell>
        <mxCell id="HJhV2FQeV8XM8kMmGPjY-327" value="primary_key" style="text;strokeColor=#6c8ebf;fillColor=#dae8fc;align=left;verticalAlign=middle;spacingLeft=4;spacingRight=4;overflow=hidden;points=[[0,0.5],[1,0.5]];portConstraint=eastwest;rotatable=0;whiteSpace=wrap;html=1;" parent="HJhV2FQeV8XM8kMmGPjY-244" vertex="1">
          <mxGeometry x="-140" y="505" width="140" height="30" as="geometry" />
        </mxCell>
        <mxCell id="HJhV2FQeV8XM8kMmGPjY-259" value="varchar" style="text;strokeColor=none;fillColor=none;align=left;verticalAlign=middle;spacingLeft=4;spacingRight=4;overflow=hidden;points=[[0,0.5],[1,0.5]];portConstraint=eastwest;rotatable=0;whiteSpace=wrap;html=1;" parent="HJhV2FQeV8XM8kMmGPjY-244" vertex="1">
          <mxGeometry y="475" width="140" height="30" as="geometry" />
        </mxCell>
        <mxCell id="HJhV2FQeV8XM8kMmGPjY-317" value="role_remarks" style="text;strokeColor=none;fillColor=none;align=left;verticalAlign=middle;spacingLeft=4;spacingRight=4;overflow=hidden;points=[[0,0.5],[1,0.5]];portConstraint=eastwest;rotatable=0;whiteSpace=wrap;html=1;" parent="HJhV2FQeV8XM8kMmGPjY-244" vertex="1">
          <mxGeometry x="-340" y="535" width="200" height="30" as="geometry" />
        </mxCell>
        <mxCell id="HJhV2FQeV8XM8kMmGPjY-267" value="varchar" style="text;strokeColor=none;fillColor=none;align=left;verticalAlign=middle;spacingLeft=4;spacingRight=4;overflow=hidden;points=[[0,0.5],[1,0.5]];portConstraint=eastwest;rotatable=0;whiteSpace=wrap;html=1;" parent="HJhV2FQeV8XM8kMmGPjY-244" vertex="1">
          <mxGeometry y="535" width="140" height="30" as="geometry" />
        </mxCell>
        <mxCell id="HJhV2FQeV8XM8kMmGPjY-260" value="integer" style="text;strokeColor=#6c8ebf;fillColor=#dae8fc;align=left;verticalAlign=middle;spacingLeft=4;spacingRight=4;overflow=hidden;points=[[0,0.5],[1,0.5]];portConstraint=eastwest;rotatable=0;whiteSpace=wrap;html=1;" parent="HJhV2FQeV8XM8kMmGPjY-244" vertex="1">
          <mxGeometry y="505" width="190" height="30" as="geometry" />
        </mxCell>
        <mxCell id="MycioCW-ojI7vUGecbIW-2" value="varchar" style="text;strokeColor=none;fillColor=none;align=left;verticalAlign=middle;spacingLeft=4;spacingRight=4;overflow=hidden;points=[[0,0.5],[1,0.5]];portConstraint=eastwest;rotatable=0;whiteSpace=wrap;html=1;" parent="HJhV2FQeV8XM8kMmGPjY-244" vertex="1">
          <mxGeometry y="565" width="140" height="30" as="geometry" />
        </mxCell>
        <mxCell id="MycioCW-ojI7vUGecbIW-9" value="integer" style="text;strokeColor=none;fillColor=none;align=left;verticalAlign=middle;spacingLeft=4;spacingRight=4;overflow=hidden;points=[[0,0.5],[1,0.5]];portConstraint=eastwest;rotatable=0;whiteSpace=wrap;html=1;" parent="HJhV2FQeV8XM8kMmGPjY-244" vertex="1">
          <mxGeometry y="630" width="140" height="30" as="geometry" />
        </mxCell>
        <mxCell id="HJhV2FQeV8XM8kMmGPjY-270" value="description" style="swimlane;startSize=20;html=1;" parent="HJhV2FQeV8XM8kMmGPjY-215" vertex="1">
          <mxGeometry x="530" y="20" width="270" height="670" as="geometry" />
        </mxCell>
        <mxCell id="HJhV2FQeV8XM8kMmGPjY-567" value="type of role" style="text;strokeColor=none;fillColor=none;align=left;verticalAlign=middle;spacingLeft=4;spacingRight=4;overflow=hidden;points=[[0,0.5],[1,0.5]];portConstraint=eastwest;rotatable=0;whiteSpace=wrap;html=1;" parent="HJhV2FQeV8XM8kMmGPjY-270" vertex="1">
          <mxGeometry y="50" width="230" height="30" as="geometry" />
        </mxCell>
        <mxCell id="HJhV2FQeV8XM8kMmGPjY-568" value="place of the role" style="text;strokeColor=none;fillColor=none;align=left;verticalAlign=middle;spacingLeft=4;spacingRight=4;overflow=hidden;points=[[0,0.5],[1,0.5]];portConstraint=eastwest;rotatable=0;whiteSpace=wrap;html=1;" parent="HJhV2FQeV8XM8kMmGPjY-270" vertex="1">
          <mxGeometry y="80" width="230" height="30" as="geometry" />
        </mxCell>
        <mxCell id="HJhV2FQeV8XM8kMmGPjY-569" value="clssis code" style="text;strokeColor=none;fillColor=none;align=left;verticalAlign=middle;spacingLeft=4;spacingRight=4;overflow=hidden;points=[[0,0.5],[1,0.5]];portConstraint=eastwest;rotatable=0;whiteSpace=wrap;html=1;" parent="HJhV2FQeV8XM8kMmGPjY-270" vertex="1">
          <mxGeometry y="140" width="230" height="30" as="geometry" />
        </mxCell>
        <mxCell id="HJhV2FQeV8XM8kMmGPjY-570" value="unique identifier in case there are alternative names for the place" style="text;strokeColor=#6c8ebf;fillColor=#dae8fc;align=left;verticalAlign=middle;spacingLeft=4;spacingRight=4;overflow=hidden;points=[[0,0.5],[1,0.5]];portConstraint=eastwest;rotatable=0;whiteSpace=wrap;html=1;" parent="HJhV2FQeV8XM8kMmGPjY-270" vertex="1">
          <mxGeometry y="110" width="270" height="30" as="geometry" />
        </mxCell>
        <mxCell id="HJhV2FQeV8XM8kMmGPjY-571" value="classis of role" style="text;strokeColor=none;fillColor=none;align=left;verticalAlign=middle;spacingLeft=4;spacingRight=4;overflow=hidden;points=[[0,0.5],[1,0.5]];portConstraint=eastwest;rotatable=0;whiteSpace=wrap;html=1;" parent="HJhV2FQeV8XM8kMmGPjY-270" vertex="1">
          <mxGeometry y="170" width="230" height="30" as="geometry" />
        </mxCell>
        <mxCell id="HJhV2FQeV8XM8kMmGPjY-572" value="province of role" style="text;strokeColor=none;fillColor=none;align=left;verticalAlign=middle;spacingLeft=4;spacingRight=4;overflow=hidden;points=[[0,0.5],[1,0.5]];portConstraint=eastwest;rotatable=0;whiteSpace=wrap;html=1;" parent="HJhV2FQeV8XM8kMmGPjY-270" vertex="1">
          <mxGeometry y="235" width="230" height="30" as="geometry" />
        </mxCell>
        <mxCell id="HJhV2FQeV8XM8kMmGPjY-573" value="region of role" style="text;strokeColor=none;fillColor=none;align=left;verticalAlign=middle;spacingLeft=4;spacingRight=4;overflow=hidden;points=[[0,0.5],[1,0.5]];portConstraint=eastwest;rotatable=0;whiteSpace=wrap;html=1;" parent="HJhV2FQeV8XM8kMmGPjY-270" vertex="1">
          <mxGeometry y="265" width="230" height="30" as="geometry" />
        </mxCell>
        <mxCell id="HJhV2FQeV8XM8kMmGPjY-575" value="start year of role" style="text;strokeColor=none;fillColor=none;align=left;verticalAlign=middle;spacingLeft=4;spacingRight=4;overflow=hidden;points=[[0,0.5],[1,0.5]];portConstraint=eastwest;rotatable=0;whiteSpace=wrap;html=1;" parent="HJhV2FQeV8XM8kMmGPjY-270" vertex="1">
          <mxGeometry y="295" width="230" height="30" as="geometry" />
        </mxCell>
        <mxCell id="HJhV2FQeV8XM8kMmGPjY-690" value="foreign key to 01" style="text;strokeColor=#82b366;fillColor=#d5e8d4;align=left;verticalAlign=middle;spacingLeft=4;spacingRight=4;overflow=hidden;points=[[0,0.5],[1,0.5]];portConstraint=eastwest;rotatable=0;whiteSpace=wrap;html=1;" parent="HJhV2FQeV8XM8kMmGPjY-270" vertex="1">
          <mxGeometry y="20" width="270" height="30" as="geometry" />
        </mxCell>
        <mxCell id="xJq8VJdn7wkD5GuFVw5j-466" value="parish of role" style="text;strokeColor=none;fillColor=none;align=left;verticalAlign=middle;spacingLeft=4;spacingRight=4;overflow=hidden;points=[[0,0.5],[1,0.5]];portConstraint=eastwest;rotatable=0;whiteSpace=wrap;html=1;" parent="HJhV2FQeV8XM8kMmGPjY-270" vertex="1">
          <mxGeometry y="200" width="230" height="30" as="geometry" />
        </mxCell>
        <mxCell id="AzpIxYVinU37_Tb9Akn6-32" value="exact date of start role dd-mm-yyyy" style="text;strokeColor=none;fillColor=none;align=left;verticalAlign=middle;spacingLeft=4;spacingRight=4;overflow=hidden;points=[[0,0.5],[1,0.5]];portConstraint=eastwest;rotatable=0;whiteSpace=wrap;html=1;" parent="HJhV2FQeV8XM8kMmGPjY-270" vertex="1">
          <mxGeometry y="325" width="250" height="30" as="geometry" />
        </mxCell>
        <mxCell id="HJhV2FQeV8XM8kMmGPjY-576" value="accuracy of start role " style="text;strokeColor=none;fillColor=none;align=left;verticalAlign=middle;spacingLeft=4;spacingRight=4;overflow=hidden;points=[[0,0.5],[1,0.5]];portConstraint=eastwest;rotatable=0;whiteSpace=wrap;html=1;" parent="HJhV2FQeV8XM8kMmGPjY-270" vertex="1">
          <mxGeometry y="355" width="250" height="30" as="geometry" />
        </mxCell>
        <mxCell id="HJhV2FQeV8XM8kMmGPjY-578" value="end year of role" style="text;strokeColor=none;fillColor=none;align=left;verticalAlign=middle;spacingLeft=4;spacingRight=4;overflow=hidden;points=[[0,0.5],[1,0.5]];portConstraint=eastwest;rotatable=0;whiteSpace=wrap;html=1;" parent="HJhV2FQeV8XM8kMmGPjY-270" vertex="1">
          <mxGeometry y="385" width="230" height="30" as="geometry" />
        </mxCell>
        <mxCell id="HJhV2FQeV8XM8kMmGPjY-577" value="accuracy of end role " style="text;strokeColor=none;fillColor=none;align=left;verticalAlign=middle;spacingLeft=4;spacingRight=4;overflow=hidden;points=[[0,0.5],[1,0.5]];portConstraint=eastwest;rotatable=0;whiteSpace=wrap;html=1;" parent="HJhV2FQeV8XM8kMmGPjY-270" vertex="1">
          <mxGeometry y="445" width="250" height="30" as="geometry" />
        </mxCell>
        <mxCell id="AzpIxYVinU37_Tb9Akn6-141" value="accuracy of start role " style="text;strokeColor=none;fillColor=none;align=left;verticalAlign=middle;spacingLeft=4;spacingRight=4;overflow=hidden;points=[[0,0.5],[1,0.5]];portConstraint=eastwest;rotatable=0;whiteSpace=wrap;html=1;" parent="HJhV2FQeV8XM8kMmGPjY-270" vertex="1">
          <mxGeometry y="415" width="250" height="30" as="geometry" />
        </mxCell>
        <mxCell id="HJhV2FQeV8XM8kMmGPjY-579" value="&lt;div&gt;place of residence in case it is different form the place of the role&lt;/div&gt;" style="text;strokeColor=none;fillColor=none;align=left;verticalAlign=middle;spacingLeft=4;spacingRight=4;overflow=hidden;points=[[0,0.5],[1,0.5]];portConstraint=eastwest;rotatable=0;whiteSpace=wrap;html=1;" parent="HJhV2FQeV8XM8kMmGPjY-270" vertex="1">
          <mxGeometry y="475" width="230" height="30" as="geometry" />
        </mxCell>
        <mxCell id="HJhV2FQeV8XM8kMmGPjY-580" value="unique identifier in case there are alternative names for the place" style="text;strokeColor=#6c8ebf;fillColor=#dae8fc;align=left;verticalAlign=middle;spacingLeft=4;spacingRight=4;overflow=hidden;points=[[0,0.5],[1,0.5]];portConstraint=eastwest;rotatable=0;whiteSpace=wrap;html=1;" parent="HJhV2FQeV8XM8kMmGPjY-270" vertex="1">
          <mxGeometry y="505" width="270" height="30" as="geometry" />
        </mxCell>
        <mxCell id="HJhV2FQeV8XM8kMmGPjY-587" value="remarks of role" style="text;strokeColor=none;fillColor=none;align=left;verticalAlign=middle;spacingLeft=4;spacingRight=4;overflow=hidden;points=[[0,0.5],[1,0.5]];portConstraint=eastwest;rotatable=0;whiteSpace=wrap;html=1;" parent="HJhV2FQeV8XM8kMmGPjY-270" vertex="1">
          <mxGeometry y="535" width="230" height="30" as="geometry" />
        </mxCell>
        <mxCell id="MycioCW-ojI7vUGecbIW-3" value="information about from which dataset the data originates and&amp;nbsp; additional remarks about the source (e.g volume/ book) " style="text;strokeColor=none;fillColor=none;align=left;verticalAlign=middle;spacingLeft=4;spacingRight=4;overflow=hidden;points=[[0,0.5],[1,0.5]];portConstraint=eastwest;rotatable=0;whiteSpace=wrap;html=1;" parent="HJhV2FQeV8XM8kMmGPjY-270" vertex="1">
          <mxGeometry y="565" width="270" height="50" as="geometry" />
        </mxCell>
        <mxCell id="MycioCW-ojI7vUGecbIW-8" value="role_source_id" style="text;strokeColor=none;fillColor=none;align=left;verticalAlign=middle;spacingLeft=4;spacingRight=4;overflow=hidden;points=[[0,0.5],[1,0.5]];portConstraint=eastwest;rotatable=0;whiteSpace=wrap;html=1;" parent="HJhV2FQeV8XM8kMmGPjY-270" vertex="1">
          <mxGeometry x="-530" y="626" width="140" height="30" as="geometry" />
        </mxCell>
        <mxCell id="MycioCW-ojI7vUGecbIW-10" value="in order to relate the information about the role to the original data source, a field to store the id of the source data is created (e.g. DM id)" style="text;strokeColor=none;fillColor=none;align=left;verticalAlign=middle;spacingLeft=4;spacingRight=4;overflow=hidden;points=[[0,0.5],[1,0.5]];portConstraint=eastwest;rotatable=0;whiteSpace=wrap;html=1;" parent="HJhV2FQeV8XM8kMmGPjY-270" vertex="1">
          <mxGeometry y="620" width="270" height="50" as="geometry" />
        </mxCell>
        <mxCell id="HJhV2FQeV8XM8kMmGPjY-449" value="&lt;pre&gt;&lt;font face=&quot;Helvetica&quot;&gt;21_birth_alt_place&lt;/font&gt;&lt;/pre&gt;" style="swimlane;childLayout=stackLayout;resizeParent=1;resizeParentMax=0;startSize=20;html=1;" parent="1" vertex="1">
          <mxGeometry x="-3340" y="1330" width="800" height="100" as="geometry" />
        </mxCell>
        <mxCell id="HJhV2FQeV8XM8kMmGPjY-450" value="collumn_name" style="swimlane;startSize=20;html=1;" parent="HJhV2FQeV8XM8kMmGPjY-449" vertex="1">
          <mxGeometry y="20" width="210" height="80" as="geometry">
            <mxRectangle y="20" width="40" height="460" as="alternateBounds" />
          </mxGeometry>
        </mxCell>
        <mxCell id="HJhV2FQeV8XM8kMmGPjY-439" value="birth_place_id" style="text;strokeColor=#82b366;fillColor=#d5e8d4;align=left;verticalAlign=middle;spacingLeft=4;spacingRight=4;overflow=hidden;points=[[0,0.5],[1,0.5]];portConstraint=eastwest;rotatable=0;whiteSpace=wrap;html=1;" parent="HJhV2FQeV8XM8kMmGPjY-450" vertex="1">
          <mxGeometry y="20" width="210" height="30" as="geometry" />
        </mxCell>
        <mxCell id="HJhV2FQeV8XM8kMmGPjY-446" value="alt_place_name" style="text;strokeColor=none;fillColor=none;align=left;verticalAlign=middle;spacingLeft=4;spacingRight=4;overflow=hidden;points=[[0,0.5],[1,0.5]];portConstraint=eastwest;rotatable=0;whiteSpace=wrap;html=1;" parent="HJhV2FQeV8XM8kMmGPjY-450" vertex="1">
          <mxGeometry y="49" width="170" height="30" as="geometry" />
        </mxCell>
        <mxCell id="HJhV2FQeV8XM8kMmGPjY-459" value="keys" style="swimlane;startSize=20;html=1;" parent="HJhV2FQeV8XM8kMmGPjY-449" vertex="1">
          <mxGeometry x="210" y="20" width="140" height="80" as="geometry">
            <mxRectangle x="170" y="20" width="40" height="770" as="alternateBounds" />
          </mxGeometry>
        </mxCell>
        <mxCell id="HJhV2FQeV8XM8kMmGPjY-460" value="foreign_key" style="text;strokeColor=#82b366;fillColor=#d5e8d4;align=left;verticalAlign=middle;spacingLeft=4;spacingRight=4;overflow=hidden;points=[[0,0.5],[1,0.5]];portConstraint=eastwest;rotatable=0;whiteSpace=wrap;html=1;" parent="HJhV2FQeV8XM8kMmGPjY-459" vertex="1">
          <mxGeometry y="20" width="140" height="30" as="geometry" />
        </mxCell>
        <mxCell id="HJhV2FQeV8XM8kMmGPjY-463" value="type" style="swimlane;startSize=20;html=1;" parent="HJhV2FQeV8XM8kMmGPjY-449" vertex="1">
          <mxGeometry x="350" y="20" width="190" height="80" as="geometry">
            <mxRectangle x="260" y="20" width="40" height="770" as="alternateBounds" />
          </mxGeometry>
        </mxCell>
        <mxCell id="HJhV2FQeV8XM8kMmGPjY-465" value="integer" style="text;strokeColor=#82b366;fillColor=#d5e8d4;align=left;verticalAlign=middle;spacingLeft=4;spacingRight=4;overflow=hidden;points=[[0,0.5],[1,0.5]];portConstraint=eastwest;rotatable=0;whiteSpace=wrap;html=1;" parent="HJhV2FQeV8XM8kMmGPjY-463" vertex="1">
          <mxGeometry y="20" width="190" height="30" as="geometry" />
        </mxCell>
        <mxCell id="HJhV2FQeV8XM8kMmGPjY-471" value="varchar" style="text;strokeColor=none;fillColor=none;align=left;verticalAlign=middle;spacingLeft=4;spacingRight=4;overflow=hidden;points=[[0,0.5],[1,0.5]];portConstraint=eastwest;rotatable=0;whiteSpace=wrap;html=1;" parent="HJhV2FQeV8XM8kMmGPjY-463" vertex="1">
          <mxGeometry y="50" width="140" height="30" as="geometry" />
        </mxCell>
        <mxCell id="HJhV2FQeV8XM8kMmGPjY-472" value="description" style="swimlane;startSize=20;html=1;" parent="HJhV2FQeV8XM8kMmGPjY-449" vertex="1">
          <mxGeometry x="540" y="20" width="260" height="80" as="geometry" />
        </mxCell>
        <mxCell id="HJhV2FQeV8XM8kMmGPjY-660" value="fk to 01" style="text;strokeColor=#82b366;fillColor=#d5e8d4;align=left;verticalAlign=middle;spacingLeft=4;spacingRight=4;overflow=hidden;points=[[0,0.5],[1,0.5]];portConstraint=eastwest;rotatable=0;whiteSpace=wrap;html=1;" parent="HJhV2FQeV8XM8kMmGPjY-472" vertex="1">
          <mxGeometry y="20" width="260" height="30" as="geometry" />
        </mxCell>
        <mxCell id="HJhV2FQeV8XM8kMmGPjY-666" value="alternative place name" style="text;strokeColor=none;fillColor=none;align=left;verticalAlign=middle;spacingLeft=4;spacingRight=4;overflow=hidden;points=[[0,0.5],[1,0.5]];portConstraint=eastwest;rotatable=0;whiteSpace=wrap;html=1;" parent="HJhV2FQeV8XM8kMmGPjY-472" vertex="1">
          <mxGeometry y="50" width="230" height="30" as="geometry" />
        </mxCell>
        <mxCell id="HJhV2FQeV8XM8kMmGPjY-691" style="edgeStyle=orthogonalEdgeStyle;rounded=0;orthogonalLoop=1;jettySize=auto;html=1;" parent="1" target="HJhV2FQeV8XM8kMmGPjY-206" edge="1">
          <mxGeometry relative="1" as="geometry">
            <mxPoint x="-3590.0000000000005" y="325" as="sourcePoint" />
          </mxGeometry>
        </mxCell>
        <mxCell id="HJhV2FQeV8XM8kMmGPjY-692" style="edgeStyle=orthogonalEdgeStyle;rounded=0;orthogonalLoop=1;jettySize=auto;html=1;entryX=0;entryY=0.5;entryDx=0;entryDy=0;exitX=1;exitY=0.5;exitDx=0;exitDy=0;" parent="1" source="HJhV2FQeV8XM8kMmGPjY-491" target="HJhV2FQeV8XM8kMmGPjY-296" edge="1">
          <mxGeometry relative="1" as="geometry">
            <Array as="points">
              <mxPoint x="-3450" y="325" />
              <mxPoint x="-3450" y="669" />
            </Array>
            <mxPoint x="-3590.0000000000005" y="325.0769230769231" as="sourcePoint" />
          </mxGeometry>
        </mxCell>
        <mxCell id="HJhV2FQeV8XM8kMmGPjY-694" style="edgeStyle=orthogonalEdgeStyle;rounded=0;orthogonalLoop=1;jettySize=auto;html=1;" parent="1" source="HJhV2FQeV8XM8kMmGPjY-497" edge="1">
          <mxGeometry relative="1" as="geometry">
            <mxPoint x="-3590.0000000000005" y="539.9999999999998" as="sourcePoint" />
            <mxPoint x="-3340" y="1390" as="targetPoint" />
            <Array as="points">
              <mxPoint x="-3480" y="565" />
              <mxPoint x="-3480" y="1390" />
              <mxPoint x="-3340" y="1390" />
            </Array>
          </mxGeometry>
        </mxCell>
        <mxCell id="HJhV2FQeV8XM8kMmGPjY-695" style="edgeStyle=orthogonalEdgeStyle;rounded=0;orthogonalLoop=1;jettySize=auto;html=1;exitX=1;exitY=0.5;exitDx=0;exitDy=0;entryX=0;entryY=0.5;entryDx=0;entryDy=0;" parent="1" target="AtQGug-ONYs-uCGSSlIK-5" edge="1">
          <mxGeometry relative="1" as="geometry">
            <Array as="points">
              <mxPoint x="-3510" y="720" />
              <mxPoint x="-3510" y="1509" />
            </Array>
            <mxPoint x="-3820" y="720" as="sourcePoint" />
            <mxPoint x="-3340" y="1415" as="targetPoint" />
          </mxGeometry>
        </mxCell>
        <mxCell id="HJhV2FQeV8XM8kMmGPjY-696" style="edgeStyle=orthogonalEdgeStyle;rounded=0;orthogonalLoop=1;jettySize=auto;html=1;exitX=1;exitY=0.5;exitDx=0;exitDy=0;" parent="1" source="HJhV2FQeV8XM8kMmGPjY-505" target="AtQGug-ONYs-uCGSSlIK-70" edge="1">
          <mxGeometry relative="1" as="geometry">
            <Array as="points">
              <mxPoint x="-3540" y="865" />
              <mxPoint x="-3540" y="1774" />
            </Array>
            <mxPoint x="-3730" y="1405" as="sourcePoint" />
            <mxPoint x="-3340" y="1445" as="targetPoint" />
          </mxGeometry>
        </mxCell>
        <mxCell id="HJhV2FQeV8XM8kMmGPjY-697" style="edgeStyle=orthogonalEdgeStyle;rounded=0;orthogonalLoop=1;jettySize=auto;html=1;entryX=0;entryY=0.5;entryDx=0;entryDy=0;exitX=1;exitY=0.5;exitDx=0;exitDy=0;" parent="1" source="HJhV2FQeV8XM8kMmGPjY-509" target="AtQGug-ONYs-uCGSSlIK-36" edge="1">
          <mxGeometry relative="1" as="geometry">
            <Array as="points">
              <mxPoint x="-3570" y="1015" />
              <mxPoint x="-3570" y="1649" />
            </Array>
            <mxPoint x="-3820" y="980" as="sourcePoint" />
            <mxPoint x="-3340" y="1475" as="targetPoint" />
          </mxGeometry>
        </mxCell>
        <mxCell id="HJhV2FQeV8XM8kMmGPjY-702" style="edgeStyle=orthogonalEdgeStyle;rounded=0;orthogonalLoop=1;jettySize=auto;html=1;entryX=1;entryY=0.5;entryDx=0;entryDy=0;exitX=1;exitY=0.5;exitDx=0;exitDy=0;" parent="1" source="HJhV2FQeV8XM8kMmGPjY-570" target="AtQGug-ONYs-uCGSSlIK-105" edge="1">
          <mxGeometry relative="1" as="geometry">
            <Array as="points">
              <mxPoint x="-2510" y="759" />
              <mxPoint x="-2510" y="1899" />
            </Array>
            <mxPoint x="-2480" y="1064" as="sourcePoint" />
            <mxPoint x="-2540" y="1505" as="targetPoint" />
          </mxGeometry>
        </mxCell>
        <mxCell id="HJhV2FQeV8XM8kMmGPjY-703" style="edgeStyle=orthogonalEdgeStyle;rounded=0;orthogonalLoop=1;jettySize=auto;html=1;entryX=1;entryY=0.5;entryDx=0;entryDy=0;exitX=1;exitY=0.5;exitDx=0;exitDy=0;" parent="1" source="HJhV2FQeV8XM8kMmGPjY-580" target="AtQGug-ONYs-uCGSSlIK-117" edge="1">
          <mxGeometry relative="1" as="geometry">
            <Array as="points">
              <mxPoint x="-2460" y="1154" />
              <mxPoint x="-2460" y="2029" />
            </Array>
            <mxPoint x="-2510" y="1124" as="sourcePoint" />
            <mxPoint x="-2530" y="2174" as="targetPoint" />
          </mxGeometry>
        </mxCell>
        <mxCell id="xJq8VJdn7wkD5GuFVw5j-230" value="Destination" style="swimlane;fontStyle=0;childLayout=stackLayout;horizontal=1;startSize=30;horizontalStack=0;resizeParent=1;resizeParentMax=0;resizeLast=0;collapsible=1;marginBottom=0;whiteSpace=wrap;html=1;fillColor=#e3c800;fontColor=#000000;strokeColor=#B09500;" parent="1" vertex="1">
          <mxGeometry x="-1520" y="450" width="180" height="180" as="geometry" />
        </mxCell>
        <mxCell id="xJq8VJdn7wkD5GuFVw5j-231" value="01 / 11 clerus_id " style="text;strokeColor=none;fillColor=none;align=left;verticalAlign=middle;spacingLeft=4;spacingRight=4;overflow=hidden;points=[[0,0.5],[1,0.5]];portConstraint=eastwest;rotatable=0;whiteSpace=wrap;html=1;" parent="xJq8VJdn7wkD5GuFVw5j-230" vertex="1">
          <mxGeometry y="30" width="180" height="30" as="geometry" />
        </mxCell>
        <mxCell id="06i2pUNaTt7zVlCuUhyh-5" value="11 alt_name" style="text;strokeColor=none;fillColor=none;align=left;verticalAlign=middle;spacingLeft=4;spacingRight=4;overflow=hidden;points=[[0,0.5],[1,0.5]];portConstraint=eastwest;rotatable=0;whiteSpace=wrap;html=1;" parent="xJq8VJdn7wkD5GuFVw5j-230" vertex="1">
          <mxGeometry y="60" width="180" height="30" as="geometry" />
        </mxCell>
        <mxCell id="06i2pUNaTt7zVlCuUhyh-6" value="11 alt_first_name" style="text;strokeColor=none;fillColor=none;align=left;verticalAlign=middle;spacingLeft=4;spacingRight=4;overflow=hidden;points=[[0,0.5],[1,0.5]];portConstraint=eastwest;rotatable=0;whiteSpace=wrap;html=1;" parent="xJq8VJdn7wkD5GuFVw5j-230" vertex="1">
          <mxGeometry y="90" width="180" height="30" as="geometry" />
        </mxCell>
        <mxCell id="06i2pUNaTt7zVlCuUhyh-8" value="11 alt_infix" style="text;strokeColor=none;fillColor=none;align=left;verticalAlign=middle;spacingLeft=4;spacingRight=4;overflow=hidden;points=[[0,0.5],[1,0.5]];portConstraint=eastwest;rotatable=0;whiteSpace=wrap;html=1;" parent="xJq8VJdn7wkD5GuFVw5j-230" vertex="1">
          <mxGeometry y="120" width="180" height="30" as="geometry" />
        </mxCell>
        <mxCell id="06i2pUNaTt7zVlCuUhyh-7" value="11 alt_surname" style="text;strokeColor=none;fillColor=none;align=left;verticalAlign=middle;spacingLeft=4;spacingRight=4;overflow=hidden;points=[[0,0.5],[1,0.5]];portConstraint=eastwest;rotatable=0;whiteSpace=wrap;html=1;" parent="xJq8VJdn7wkD5GuFVw5j-230" vertex="1">
          <mxGeometry y="150" width="180" height="30" as="geometry" />
        </mxCell>
        <mxCell id="xJq8VJdn7wkD5GuFVw5j-233" value="Destination" style="swimlane;fontStyle=0;childLayout=stackLayout;horizontal=1;startSize=30;horizontalStack=0;resizeParent=1;resizeParentMax=0;resizeLast=0;collapsible=1;marginBottom=0;whiteSpace=wrap;html=1;fillColor=#e3c800;fontColor=#000000;strokeColor=#B09500;" parent="1" vertex="1">
          <mxGeometry x="-1520" y="675" width="180" height="210" as="geometry" />
        </mxCell>
        <mxCell id="xJq8VJdn7wkD5GuFVw5j-234" value="01 / 12 clerus_id" style="text;strokeColor=none;fillColor=none;align=left;verticalAlign=middle;spacingLeft=4;spacingRight=4;overflow=hidden;points=[[0,0.5],[1,0.5]];portConstraint=eastwest;rotatable=0;whiteSpace=wrap;html=1;" parent="xJq8VJdn7wkD5GuFVw5j-233" vertex="1">
          <mxGeometry y="30" width="180" height="30" as="geometry" />
        </mxCell>
        <mxCell id="xJq8VJdn7wkD5GuFVw5j-235" value="12 role_type" style="text;strokeColor=none;fillColor=none;align=left;verticalAlign=middle;spacingLeft=4;spacingRight=4;overflow=hidden;points=[[0,0.5],[1,0.5]];portConstraint=eastwest;rotatable=0;whiteSpace=wrap;html=1;" parent="xJq8VJdn7wkD5GuFVw5j-233" vertex="1">
          <mxGeometry y="60" width="180" height="30" as="geometry" />
        </mxCell>
        <mxCell id="xJq8VJdn7wkD5GuFVw5j-236" value="12 role_place" style="text;strokeColor=none;fillColor=none;align=left;verticalAlign=middle;spacingLeft=4;spacingRight=4;overflow=hidden;points=[[0,0.5],[1,0.5]];portConstraint=eastwest;rotatable=0;whiteSpace=wrap;html=1;" parent="xJq8VJdn7wkD5GuFVw5j-233" vertex="1">
          <mxGeometry y="90" width="180" height="30" as="geometry" />
        </mxCell>
        <mxCell id="xJq8VJdn7wkD5GuFVw5j-237" value="12 role_start_year" style="text;strokeColor=none;fillColor=none;align=left;verticalAlign=middle;spacingLeft=4;spacingRight=4;overflow=hidden;points=[[0,0.5],[1,0.5]];portConstraint=eastwest;rotatable=0;whiteSpace=wrap;html=1;" parent="xJq8VJdn7wkD5GuFVw5j-233" vertex="1">
          <mxGeometry y="120" width="180" height="30" as="geometry" />
        </mxCell>
        <mxCell id="xJq8VJdn7wkD5GuFVw5j-238" value="12 role_start_year_accuracy" style="text;strokeColor=none;fillColor=none;align=left;verticalAlign=middle;spacingLeft=4;spacingRight=4;overflow=hidden;points=[[0,0.5],[1,0.5]];portConstraint=eastwest;rotatable=0;whiteSpace=wrap;html=1;" parent="xJq8VJdn7wkD5GuFVw5j-233" vertex="1">
          <mxGeometry y="150" width="180" height="30" as="geometry" />
        </mxCell>
        <mxCell id="xJq8VJdn7wkD5GuFVw5j-239" value="12 role_remarks" style="text;strokeColor=none;fillColor=none;align=left;verticalAlign=middle;spacingLeft=4;spacingRight=4;overflow=hidden;points=[[0,0.5],[1,0.5]];portConstraint=eastwest;rotatable=0;whiteSpace=wrap;html=1;" parent="xJq8VJdn7wkD5GuFVw5j-233" vertex="1">
          <mxGeometry y="180" width="180" height="30" as="geometry" />
        </mxCell>
        <mxCell id="xJq8VJdn7wkD5GuFVw5j-271" value="Destination" style="swimlane;fontStyle=0;childLayout=stackLayout;horizontal=1;startSize=30;horizontalStack=0;resizeParent=1;resizeParentMax=0;resizeLast=0;collapsible=1;marginBottom=0;whiteSpace=wrap;html=1;fillColor=#e3c800;fontColor=#000000;strokeColor=#B09500;" parent="1" vertex="1">
          <mxGeometry x="-2000" y="455" width="160" height="570" as="geometry" />
        </mxCell>
        <mxCell id="xJq8VJdn7wkD5GuFVw5j-273" value="01 clerus_id" style="text;strokeColor=none;fillColor=none;align=left;verticalAlign=middle;spacingLeft=4;spacingRight=4;overflow=hidden;points=[[0,0.5],[1,0.5]];portConstraint=eastwest;rotatable=0;whiteSpace=wrap;html=1;" parent="xJq8VJdn7wkD5GuFVw5j-271" vertex="1">
          <mxGeometry y="30" width="160" height="30" as="geometry" />
        </mxCell>
        <mxCell id="xJq8VJdn7wkD5GuFVw5j-274" value="01 first_name" style="text;strokeColor=none;fillColor=none;align=left;verticalAlign=middle;spacingLeft=4;spacingRight=4;overflow=hidden;points=[[0,0.5],[1,0.5]];portConstraint=eastwest;rotatable=0;whiteSpace=wrap;html=1;" parent="xJq8VJdn7wkD5GuFVw5j-271" vertex="1">
          <mxGeometry y="60" width="160" height="30" as="geometry" />
        </mxCell>
        <mxCell id="xJq8VJdn7wkD5GuFVw5j-275" value="01 infix" style="text;strokeColor=none;fillColor=none;align=left;verticalAlign=middle;spacingLeft=4;spacingRight=4;overflow=hidden;points=[[0,0.5],[1,0.5]];portConstraint=eastwest;rotatable=0;whiteSpace=wrap;html=1;" parent="xJq8VJdn7wkD5GuFVw5j-271" vertex="1">
          <mxGeometry y="90" width="160" height="30" as="geometry" />
        </mxCell>
        <mxCell id="xJq8VJdn7wkD5GuFVw5j-276" value="01 surname" style="text;strokeColor=none;fillColor=none;align=left;verticalAlign=middle;spacingLeft=4;spacingRight=4;overflow=hidden;points=[[0,0.5],[1,0.5]];portConstraint=eastwest;rotatable=0;whiteSpace=wrap;html=1;" parent="xJq8VJdn7wkD5GuFVw5j-271" vertex="1">
          <mxGeometry y="120" width="160" height="30" as="geometry" />
        </mxCell>
        <mxCell id="xJq8VJdn7wkD5GuFVw5j-277" value="01 info_family" style="text;strokeColor=none;fillColor=none;align=left;verticalAlign=middle;spacingLeft=4;spacingRight=4;overflow=hidden;points=[[0,0.5],[1,0.5]];portConstraint=eastwest;rotatable=0;whiteSpace=wrap;html=1;" parent="xJq8VJdn7wkD5GuFVw5j-271" vertex="1">
          <mxGeometry y="150" width="160" height="30" as="geometry" />
        </mxCell>
        <mxCell id="xJq8VJdn7wkD5GuFVw5j-278" value="01 birth_place" style="text;strokeColor=none;fillColor=none;align=left;verticalAlign=middle;spacingLeft=4;spacingRight=4;overflow=hidden;points=[[0,0.5],[1,0.5]];portConstraint=eastwest;rotatable=0;whiteSpace=wrap;html=1;" parent="xJq8VJdn7wkD5GuFVw5j-271" vertex="1">
          <mxGeometry y="180" width="160" height="30" as="geometry" />
        </mxCell>
        <mxCell id="xJq8VJdn7wkD5GuFVw5j-279" value="01 birth_year" style="text;strokeColor=none;fillColor=none;align=left;verticalAlign=middle;spacingLeft=4;spacingRight=4;overflow=hidden;points=[[0,0.5],[1,0.5]];portConstraint=eastwest;rotatable=0;whiteSpace=wrap;html=1;" parent="xJq8VJdn7wkD5GuFVw5j-271" vertex="1">
          <mxGeometry y="210" width="160" height="30" as="geometry" />
        </mxCell>
        <mxCell id="xJq8VJdn7wkD5GuFVw5j-280" value="01_birth_year_accuracy" style="text;strokeColor=none;fillColor=none;align=left;verticalAlign=middle;spacingLeft=4;spacingRight=4;overflow=hidden;points=[[0,0.5],[1,0.5]];portConstraint=eastwest;rotatable=0;whiteSpace=wrap;html=1;" parent="xJq8VJdn7wkD5GuFVw5j-271" vertex="1">
          <mxGeometry y="240" width="160" height="30" as="geometry" />
        </mxCell>
        <mxCell id="xJq8VJdn7wkD5GuFVw5j-281" value="01 baptized_place" style="text;strokeColor=none;fillColor=none;align=left;verticalAlign=middle;spacingLeft=4;spacingRight=4;overflow=hidden;points=[[0,0.5],[1,0.5]];portConstraint=eastwest;rotatable=0;whiteSpace=wrap;html=1;" parent="xJq8VJdn7wkD5GuFVw5j-271" vertex="1">
          <mxGeometry y="270" width="160" height="30" as="geometry" />
        </mxCell>
        <mxCell id="xJq8VJdn7wkD5GuFVw5j-282" value="01 baptism_year" style="text;strokeColor=none;fillColor=none;align=left;verticalAlign=middle;spacingLeft=4;spacingRight=4;overflow=hidden;points=[[0,0.5],[1,0.5]];portConstraint=eastwest;rotatable=0;whiteSpace=wrap;html=1;" parent="xJq8VJdn7wkD5GuFVw5j-271" vertex="1">
          <mxGeometry y="300" width="160" height="30" as="geometry" />
        </mxCell>
        <mxCell id="xJq8VJdn7wkD5GuFVw5j-283" value="01 baptism_year_accuracy" style="text;strokeColor=none;fillColor=none;align=left;verticalAlign=middle;spacingLeft=4;spacingRight=4;overflow=hidden;points=[[0,0.5],[1,0.5]];portConstraint=eastwest;rotatable=0;whiteSpace=wrap;html=1;" parent="xJq8VJdn7wkD5GuFVw5j-271" vertex="1">
          <mxGeometry y="330" width="160" height="30" as="geometry" />
        </mxCell>
        <mxCell id="xJq8VJdn7wkD5GuFVw5j-284" value="01 place_death" style="text;strokeColor=none;fillColor=none;align=left;verticalAlign=middle;spacingLeft=4;spacingRight=4;overflow=hidden;points=[[0,0.5],[1,0.5]];portConstraint=eastwest;rotatable=0;whiteSpace=wrap;html=1;" parent="xJq8VJdn7wkD5GuFVw5j-271" vertex="1">
          <mxGeometry y="360" width="160" height="30" as="geometry" />
        </mxCell>
        <mxCell id="xJq8VJdn7wkD5GuFVw5j-285" value="01 death_year" style="text;strokeColor=none;fillColor=none;align=left;verticalAlign=middle;spacingLeft=4;spacingRight=4;overflow=hidden;points=[[0,0.5],[1,0.5]];portConstraint=eastwest;rotatable=0;whiteSpace=wrap;html=1;" parent="xJq8VJdn7wkD5GuFVw5j-271" vertex="1">
          <mxGeometry y="390" width="160" height="30" as="geometry" />
        </mxCell>
        <mxCell id="xJq8VJdn7wkD5GuFVw5j-286" value="01 death_year_accuracy" style="text;strokeColor=none;fillColor=none;align=left;verticalAlign=middle;spacingLeft=4;spacingRight=4;overflow=hidden;points=[[0,0.5],[1,0.5]];portConstraint=eastwest;rotatable=0;whiteSpace=wrap;html=1;" parent="xJq8VJdn7wkD5GuFVw5j-271" vertex="1">
          <mxGeometry y="420" width="160" height="30" as="geometry" />
        </mxCell>
        <mxCell id="xJq8VJdn7wkD5GuFVw5j-287" value="01 burried_place" style="text;strokeColor=none;fillColor=none;align=left;verticalAlign=middle;spacingLeft=4;spacingRight=4;overflow=hidden;points=[[0,0.5],[1,0.5]];portConstraint=eastwest;rotatable=0;whiteSpace=wrap;html=1;" parent="xJq8VJdn7wkD5GuFVw5j-271" vertex="1">
          <mxGeometry y="450" width="160" height="30" as="geometry" />
        </mxCell>
        <mxCell id="xJq8VJdn7wkD5GuFVw5j-288" value="01 funeral_year" style="text;strokeColor=none;fillColor=none;align=left;verticalAlign=middle;spacingLeft=4;spacingRight=4;overflow=hidden;points=[[0,0.5],[1,0.5]];portConstraint=eastwest;rotatable=0;whiteSpace=wrap;html=1;" parent="xJq8VJdn7wkD5GuFVw5j-271" vertex="1">
          <mxGeometry y="480" width="160" height="30" as="geometry" />
        </mxCell>
        <mxCell id="xJq8VJdn7wkD5GuFVw5j-289" value="01 funeral_year_accuracy" style="text;strokeColor=none;fillColor=none;align=left;verticalAlign=middle;spacingLeft=4;spacingRight=4;overflow=hidden;points=[[0,0.5],[1,0.5]];portConstraint=eastwest;rotatable=0;whiteSpace=wrap;html=1;" parent="xJq8VJdn7wkD5GuFVw5j-271" vertex="1">
          <mxGeometry y="510" width="160" height="30" as="geometry" />
        </mxCell>
        <mxCell id="xJq8VJdn7wkD5GuFVw5j-290" value="01 remarks" style="text;strokeColor=none;fillColor=none;align=left;verticalAlign=middle;spacingLeft=4;spacingRight=4;overflow=hidden;points=[[0,0.5],[1,0.5]];portConstraint=eastwest;rotatable=0;whiteSpace=wrap;html=1;" parent="xJq8VJdn7wkD5GuFVw5j-271" vertex="1">
          <mxGeometry y="540" width="160" height="30" as="geometry" />
        </mxCell>
        <mxCell id="xJq8VJdn7wkD5GuFVw5j-293" value="Destination" style="swimlane;fontStyle=0;childLayout=stackLayout;horizontal=1;startSize=30;horizontalStack=0;resizeParent=1;resizeParentMax=0;resizeLast=0;collapsible=1;marginBottom=0;whiteSpace=wrap;html=1;fillColor=#fad9d5;strokeColor=#ae4132;" parent="1" vertex="1">
          <mxGeometry x="-890" y="450" width="220" height="480" as="geometry" />
        </mxCell>
        <mxCell id="xJq8VJdn7wkD5GuFVw5j-294" value="12 role_source_id" style="text;strokeColor=none;fillColor=none;align=left;verticalAlign=middle;spacingLeft=4;spacingRight=4;overflow=hidden;points=[[0,0.5],[1,0.5]];portConstraint=eastwest;rotatable=0;whiteSpace=wrap;html=1;" parent="xJq8VJdn7wkD5GuFVw5j-293" vertex="1">
          <mxGeometry y="30" width="220" height="30" as="geometry" />
        </mxCell>
        <mxCell id="xJq8VJdn7wkD5GuFVw5j-295" value="12 role_province" style="text;strokeColor=none;fillColor=none;align=left;verticalAlign=middle;spacingLeft=4;spacingRight=4;overflow=hidden;points=[[0,0.5],[1,0.5]];portConstraint=eastwest;rotatable=0;whiteSpace=wrap;html=1;" parent="xJq8VJdn7wkD5GuFVw5j-293" vertex="1">
          <mxGeometry y="60" width="220" height="30" as="geometry" />
        </mxCell>
        <mxCell id="7QPDLyYBN54F9DGwP9kU-1" value="12 role_classi" style="text;strokeColor=none;fillColor=none;align=left;verticalAlign=middle;spacingLeft=4;spacingRight=4;overflow=hidden;points=[[0,0.5],[1,0.5]];portConstraint=eastwest;rotatable=0;whiteSpace=wrap;html=1;" parent="xJq8VJdn7wkD5GuFVw5j-293" vertex="1">
          <mxGeometry y="90" width="220" height="30" as="geometry" />
        </mxCell>
        <mxCell id="xJq8VJdn7wkD5GuFVw5j-296" value="12 role_place" style="text;strokeColor=none;fillColor=none;align=left;verticalAlign=middle;spacingLeft=4;spacingRight=4;overflow=hidden;points=[[0,0.5],[1,0.5]];portConstraint=eastwest;rotatable=0;whiteSpace=wrap;html=1;" parent="xJq8VJdn7wkD5GuFVw5j-293" vertex="1">
          <mxGeometry y="120" width="220" height="30" as="geometry" />
        </mxCell>
        <mxCell id="xJq8VJdn7wkD5GuFVw5j-297" value="12 role_parish" style="text;strokeColor=none;fillColor=none;align=left;verticalAlign=middle;spacingLeft=4;spacingRight=4;overflow=hidden;points=[[0,0.5],[1,0.5]];portConstraint=eastwest;rotatable=0;whiteSpace=wrap;html=1;" parent="xJq8VJdn7wkD5GuFVw5j-293" vertex="1">
          <mxGeometry y="150" width="220" height="30" as="geometry" />
        </mxCell>
        <mxCell id="xJq8VJdn7wkD5GuFVw5j-299" value="01 first_name / 01 infix / 01 surname / 01 info family / 11 alt_name/ 01_sex" style="text;strokeColor=none;fillColor=none;align=left;verticalAlign=middle;spacingLeft=4;spacingRight=4;overflow=hidden;points=[[0,0.5],[1,0.5]];portConstraint=eastwest;rotatable=0;whiteSpace=wrap;html=1;" parent="xJq8VJdn7wkD5GuFVw5j-293" vertex="1">
          <mxGeometry y="180" width="220" height="30" as="geometry" />
        </mxCell>
        <mxCell id="GV-DoJ2eRcKxmy_nCd3e-2" value="discard (used to extract individuals by combining it with gemeente and &quot;vertrek naar of vanwege&quot;)" style="text;strokeColor=none;fillColor=none;align=left;verticalAlign=middle;spacingLeft=4;spacingRight=4;overflow=hidden;points=[[0,0.5],[1,0.5]];portConstraint=eastwest;rotatable=0;whiteSpace=wrap;html=1;" parent="xJq8VJdn7wkD5GuFVw5j-293" vertex="1">
          <mxGeometry y="210" width="220" height="30" as="geometry" />
        </mxCell>
        <mxCell id="xJq8VJdn7wkD5GuFVw5j-300" value="12 role_place" style="text;strokeColor=none;fillColor=none;align=left;verticalAlign=middle;spacingLeft=4;spacingRight=4;overflow=hidden;points=[[0,0.5],[1,0.5]];portConstraint=eastwest;rotatable=0;whiteSpace=wrap;html=1;" parent="xJq8VJdn7wkD5GuFVw5j-293" vertex="1">
          <mxGeometry y="240" width="220" height="30" as="geometry" />
        </mxCell>
        <mxCell id="xJq8VJdn7wkD5GuFVw5j-301" value="parsed to 12 role_start_year_accuracy" style="text;strokeColor=none;fillColor=none;align=left;verticalAlign=middle;spacingLeft=4;spacingRight=4;overflow=hidden;points=[[0,0.5],[1,0.5]];portConstraint=eastwest;rotatable=0;whiteSpace=wrap;html=1;" parent="xJq8VJdn7wkD5GuFVw5j-293" vertex="1">
          <mxGeometry y="270" width="220" height="30" as="geometry" />
        </mxCell>
        <mxCell id="xJq8VJdn7wkD5GuFVw5j-302" value="parsed to 12 role_start_year_accuracy" style="text;strokeColor=none;fillColor=none;align=left;verticalAlign=middle;spacingLeft=4;spacingRight=4;overflow=hidden;points=[[0,0.5],[1,0.5]];portConstraint=eastwest;rotatable=0;whiteSpace=wrap;html=1;" parent="xJq8VJdn7wkD5GuFVw5j-293" vertex="1">
          <mxGeometry y="300" width="220" height="30" as="geometry" />
        </mxCell>
        <mxCell id="xJq8VJdn7wkD5GuFVw5j-303" value="12 role_start_year" style="text;strokeColor=none;fillColor=none;align=left;verticalAlign=middle;spacingLeft=4;spacingRight=4;overflow=hidden;points=[[0,0.5],[1,0.5]];portConstraint=eastwest;rotatable=0;whiteSpace=wrap;html=1;" parent="xJq8VJdn7wkD5GuFVw5j-293" vertex="1">
          <mxGeometry y="330" width="220" height="30" as="geometry" />
        </mxCell>
        <mxCell id="xJq8VJdn7wkD5GuFVw5j-304" value="12 role_remarks" style="text;strokeColor=none;fillColor=none;align=left;verticalAlign=middle;spacingLeft=4;spacingRight=4;overflow=hidden;points=[[0,0.5],[1,0.5]];portConstraint=eastwest;rotatable=0;whiteSpace=wrap;html=1;" parent="xJq8VJdn7wkD5GuFVw5j-293" vertex="1">
          <mxGeometry y="360" width="220" height="30" as="geometry" />
        </mxCell>
        <mxCell id="xJq8VJdn7wkD5GuFVw5j-305" value="parsed to 12 role_end_year_accuracy" style="text;strokeColor=none;fillColor=none;align=left;verticalAlign=middle;spacingLeft=4;spacingRight=4;overflow=hidden;points=[[0,0.5],[1,0.5]];portConstraint=eastwest;rotatable=0;whiteSpace=wrap;html=1;" parent="xJq8VJdn7wkD5GuFVw5j-293" vertex="1">
          <mxGeometry y="390" width="220" height="30" as="geometry" />
        </mxCell>
        <mxCell id="xJq8VJdn7wkD5GuFVw5j-306" value="parsed to 12 role_end_year_accuracy" style="text;strokeColor=none;fillColor=none;align=left;verticalAlign=middle;spacingLeft=4;spacingRight=4;overflow=hidden;points=[[0,0.5],[1,0.5]];portConstraint=eastwest;rotatable=0;whiteSpace=wrap;html=1;" parent="xJq8VJdn7wkD5GuFVw5j-293" vertex="1">
          <mxGeometry y="420" width="220" height="30" as="geometry" />
        </mxCell>
        <mxCell id="xJq8VJdn7wkD5GuFVw5j-307" value="12 role_remarks" style="text;strokeColor=none;fillColor=none;align=left;verticalAlign=middle;spacingLeft=4;spacingRight=4;overflow=hidden;points=[[0,0.5],[1,0.5]];portConstraint=eastwest;rotatable=0;whiteSpace=wrap;html=1;" parent="xJq8VJdn7wkD5GuFVw5j-293" vertex="1">
          <mxGeometry y="450" width="220" height="30" as="geometry" />
        </mxCell>
        <mxCell id="xJq8VJdn7wkD5GuFVw5j-652" value="&lt;font style=&quot;font-size: 86px;&quot;&gt;INPUT DATA CLERUS&lt;br&gt;&lt;/font&gt;" style="whiteSpace=wrap;html=1;" parent="1" vertex="1">
          <mxGeometry x="-2280" y="80" width="1220" height="150" as="geometry" />
        </mxCell>
        <mxCell id="xJq8VJdn7wkD5GuFVw5j-653" value="&lt;font style=&quot;font-size: 86px;&quot;&gt;&amp;nbsp;DATAMODEL CLERUS 1555 - 2004 &lt;br&gt;&lt;/font&gt;" style="whiteSpace=wrap;html=1;" parent="1" vertex="1">
          <mxGeometry x="-4600" y="80" width="1630" height="150" as="geometry" />
        </mxCell>
        <mxCell id="AzpIxYVinU37_Tb9Akn6-40" value="02_drc_org" style="swimlane;childLayout=stackLayout;resizeParent=1;resizeParentMax=0;startSize=20;html=1;" parent="1" vertex="1">
          <mxGeometry x="-4620" y="1230" width="800" height="106" as="geometry" />
        </mxCell>
        <mxCell id="AzpIxYVinU37_Tb9Akn6-41" value="collumn_name" style="swimlane;startSize=20;html=1;" parent="AzpIxYVinU37_Tb9Akn6-40" vertex="1">
          <mxGeometry y="20" width="200" height="86" as="geometry">
            <mxRectangle y="20" width="40" height="460" as="alternateBounds" />
          </mxGeometry>
        </mxCell>
        <mxCell id="AzpIxYVinU37_Tb9Akn6-134" value="drc_id" style="text;strokeColor=#6c8ebf;fillColor=#dae8fc;align=left;verticalAlign=middle;spacingLeft=4;spacingRight=4;overflow=hidden;points=[[0,0.5],[1,0.5]];portConstraint=eastwest;rotatable=0;whiteSpace=wrap;html=1;" parent="AzpIxYVinU37_Tb9Akn6-41" vertex="1">
          <mxGeometry y="20" width="200" height="30" as="geometry" />
        </mxCell>
        <mxCell id="HJhV2FQeV8XM8kMmGPjY-101" value="drc_original_input" style="text;strokeColor=none;fillColor=none;align=left;verticalAlign=middle;spacingLeft=4;spacingRight=4;overflow=hidden;points=[[0,0.5],[1,0.5]];portConstraint=eastwest;rotatable=0;whiteSpace=wrap;html=1;" parent="AzpIxYVinU37_Tb9Akn6-41" vertex="1">
          <mxGeometry y="50" width="140" height="30" as="geometry" />
        </mxCell>
        <mxCell id="AzpIxYVinU37_Tb9Akn6-47" value="keys" style="swimlane;startSize=20;html=1;" parent="AzpIxYVinU37_Tb9Akn6-40" vertex="1">
          <mxGeometry x="200" y="20" width="140" height="86" as="geometry">
            <mxRectangle x="170" y="20" width="40" height="770" as="alternateBounds" />
          </mxGeometry>
        </mxCell>
        <mxCell id="AzpIxYVinU37_Tb9Akn6-49" value="type" style="swimlane;startSize=20;html=1;" parent="AzpIxYVinU37_Tb9Akn6-40" vertex="1">
          <mxGeometry x="340" y="20" width="190" height="86" as="geometry">
            <mxRectangle x="260" y="20" width="40" height="770" as="alternateBounds" />
          </mxGeometry>
        </mxCell>
        <mxCell id="AzpIxYVinU37_Tb9Akn6-55" value="description" style="swimlane;startSize=20;html=1;" parent="AzpIxYVinU37_Tb9Akn6-40" vertex="1">
          <mxGeometry x="530" y="20" width="270" height="86" as="geometry" />
        </mxCell>
        <mxCell id="AzpIxYVinU37_Tb9Akn6-135" value="primary_key" style="text;strokeColor=#6c8ebf;fillColor=#dae8fc;align=left;verticalAlign=middle;spacingLeft=4;spacingRight=4;overflow=hidden;points=[[0,0.5],[1,0.5]];portConstraint=eastwest;rotatable=0;whiteSpace=wrap;html=1;" parent="AzpIxYVinU37_Tb9Akn6-55" vertex="1">
          <mxGeometry x="-330" y="20" width="140" height="30" as="geometry" />
        </mxCell>
        <mxCell id="AzpIxYVinU37_Tb9Akn6-136" value="integer" style="text;strokeColor=#6c8ebf;fillColor=#dae8fc;align=left;verticalAlign=middle;spacingLeft=4;spacingRight=4;overflow=hidden;points=[[0,0.5],[1,0.5]];portConstraint=eastwest;rotatable=0;whiteSpace=wrap;html=1;" parent="AzpIxYVinU37_Tb9Akn6-55" vertex="1">
          <mxGeometry x="-190" y="20" width="190" height="30" as="geometry" />
        </mxCell>
        <mxCell id="AzpIxYVinU37_Tb9Akn6-137" value="drc_id is clerus_id (we used the original DRC id as clerus_id)" style="text;strokeColor=#6c8ebf;fillColor=#dae8fc;align=left;verticalAlign=middle;spacingLeft=4;spacingRight=4;overflow=hidden;points=[[0,0.5],[1,0.5]];portConstraint=eastwest;rotatable=0;whiteSpace=wrap;html=1;" parent="AzpIxYVinU37_Tb9Akn6-55" vertex="1">
          <mxGeometry y="20" width="270" height="30" as="geometry" />
        </mxCell>
        <mxCell id="HJhV2FQeV8XM8kMmGPjY-132" value="varchar" style="text;strokeColor=none;fillColor=none;align=left;verticalAlign=middle;spacingLeft=4;spacingRight=4;overflow=hidden;points=[[0,0.5],[1,0.5]];portConstraint=eastwest;rotatable=0;whiteSpace=wrap;html=1;" parent="AzpIxYVinU37_Tb9Akn6-55" vertex="1">
          <mxGeometry x="-190" y="50" width="140" height="30" as="geometry" />
        </mxCell>
        <mxCell id="HJhV2FQeV8XM8kMmGPjY-512" value="original input from DRC dataset" style="text;strokeColor=none;fillColor=none;align=left;verticalAlign=middle;spacingLeft=4;spacingRight=4;overflow=hidden;points=[[0,0.5],[1,0.5]];portConstraint=eastwest;rotatable=0;whiteSpace=wrap;html=1;" parent="AzpIxYVinU37_Tb9Akn6-55" vertex="1">
          <mxGeometry y="50" width="230" height="30" as="geometry" />
        </mxCell>
        <mxCell id="AzpIxYVinU37_Tb9Akn6-165" value="1 (parent)" style="text;html=1;strokeColor=none;fillColor=none;align=center;verticalAlign=middle;whiteSpace=wrap;rounded=0;" parent="1" vertex="1">
          <mxGeometry x="-3820" y="300" width="60" height="30" as="geometry" />
        </mxCell>
        <mxCell id="AzpIxYVinU37_Tb9Akn6-166" value="* (child)" style="text;html=1;strokeColor=none;fillColor=none;align=center;verticalAlign=middle;whiteSpace=wrap;rounded=0;" parent="1" vertex="1">
          <mxGeometry x="-3410" y="300" width="60" height="30" as="geometry" />
        </mxCell>
        <mxCell id="AzpIxYVinU37_Tb9Akn6-167" value="* (child)" style="text;html=1;strokeColor=none;fillColor=none;align=center;verticalAlign=middle;whiteSpace=wrap;rounded=0;" parent="1" vertex="1">
          <mxGeometry x="-3430" y="624" width="60" height="30" as="geometry" />
        </mxCell>
        <mxCell id="AzpIxYVinU37_Tb9Akn6-169" value="* (child)" style="text;html=1;strokeColor=none;fillColor=none;align=center;verticalAlign=middle;whiteSpace=wrap;rounded=0;" parent="1" vertex="1">
          <mxGeometry x="-3430" y="1459" width="60" height="30" as="geometry" />
        </mxCell>
        <mxCell id="AzpIxYVinU37_Tb9Akn6-170" value="* (child)" style="text;html=1;strokeColor=none;fillColor=none;align=center;verticalAlign=middle;whiteSpace=wrap;rounded=0;" parent="1" vertex="1">
          <mxGeometry x="-3430" y="1344" width="60" height="30" as="geometry" />
        </mxCell>
        <mxCell id="AzpIxYVinU37_Tb9Akn6-171" value="* (child)" style="text;html=1;strokeColor=none;fillColor=none;align=center;verticalAlign=middle;whiteSpace=wrap;rounded=0;" parent="1" vertex="1">
          <mxGeometry x="-3430" y="1594" width="60" height="30" as="geometry" />
        </mxCell>
        <mxCell id="AzpIxYVinU37_Tb9Akn6-172" value="* (child)" style="text;html=1;strokeColor=none;fillColor=none;align=center;verticalAlign=middle;whiteSpace=wrap;rounded=0;" parent="1" vertex="1">
          <mxGeometry x="-3430" y="1724" width="60" height="30" as="geometry" />
        </mxCell>
        <mxCell id="AzpIxYVinU37_Tb9Akn6-173" value="* (child)" style="text;html=1;strokeColor=none;fillColor=none;align=center;verticalAlign=middle;whiteSpace=wrap;rounded=0;" parent="1" vertex="1">
          <mxGeometry x="-2540" y="1904" width="60" height="30" as="geometry" />
        </mxCell>
        <mxCell id="AzpIxYVinU37_Tb9Akn6-174" value="* (child)" style="text;html=1;strokeColor=none;fillColor=none;align=center;verticalAlign=middle;whiteSpace=wrap;rounded=0;" parent="1" vertex="1">
          <mxGeometry x="-2520" y="2034" width="60" height="30" as="geometry" />
        </mxCell>
        <mxCell id="AzpIxYVinU37_Tb9Akn6-176" value="1 (parent)" style="text;html=1;strokeColor=none;fillColor=none;align=center;verticalAlign=middle;whiteSpace=wrap;rounded=0;" parent="1" vertex="1">
          <mxGeometry x="-2530" y="724" width="60" height="30" as="geometry" />
        </mxCell>
        <mxCell id="AzpIxYVinU37_Tb9Akn6-182" value="" style="rounded=0;whiteSpace=wrap;html=1;fillColor=#666666;" parent="1" vertex="1">
          <mxGeometry x="-2370.5" y="20" width="30" height="3230" as="geometry" />
        </mxCell>
        <mxCell id="AzpIxYVinU37_Tb9Akn6-318" value="1" style="text;html=1;strokeColor=none;fillColor=none;align=center;verticalAlign=middle;whiteSpace=wrap;rounded=0;" parent="1" vertex="1">
          <mxGeometry x="-3834" y="1256" width="60" height="30" as="geometry" />
        </mxCell>
        <mxCell id="AzpIxYVinU37_Tb9Akn6-319" style="edgeStyle=orthogonalEdgeStyle;rounded=0;orthogonalLoop=1;jettySize=auto;html=1;exitX=0;exitY=1;exitDx=0;exitDy=0;" parent="1" source="AzpIxYVinU37_Tb9Akn6-165" edge="1">
          <mxGeometry relative="1" as="geometry">
            <Array as="points">
              <mxPoint x="-3790" y="330" />
              <mxPoint x="-3790" y="1279" />
            </Array>
            <mxPoint x="-3820" y="340" as="sourcePoint" />
            <mxPoint x="-3820" y="1279" as="targetPoint" />
          </mxGeometry>
        </mxCell>
        <mxCell id="JUBbh8SxSXCd4grOUi1N-1" value="" style="edgeStyle=orthogonalEdgeStyle;rounded=0;orthogonalLoop=1;jettySize=auto;html=1;exitX=1;exitY=0.5;exitDx=0;exitDy=0;" parent="1" source="HJhV2FQeV8XM8kMmGPjY-580" edge="1">
          <mxGeometry relative="1" as="geometry">
            <Array as="points" />
            <mxPoint x="-2560" y="1154" as="sourcePoint" />
            <mxPoint x="-2540" y="1154" as="targetPoint" />
          </mxGeometry>
        </mxCell>
        <mxCell id="AtQGug-ONYs-uCGSSlIK-1" value="&lt;pre&gt;&lt;font face=&quot;Helvetica&quot;&gt;22_baptism_alt_place&lt;/font&gt;&lt;/pre&gt;" style="swimlane;childLayout=stackLayout;resizeParent=1;resizeParentMax=0;startSize=20;html=1;" parent="1" vertex="1">
          <mxGeometry x="-3340" y="1454" width="800" height="100" as="geometry" />
        </mxCell>
        <mxCell id="AtQGug-ONYs-uCGSSlIK-2" value="collumn_name" style="swimlane;startSize=20;html=1;" parent="AtQGug-ONYs-uCGSSlIK-1" vertex="1">
          <mxGeometry y="20" width="210" height="80" as="geometry">
            <mxRectangle y="20" width="40" height="460" as="alternateBounds" />
          </mxGeometry>
        </mxCell>
        <mxCell id="AtQGug-ONYs-uCGSSlIK-30" value="alt_place_name" style="text;strokeColor=none;fillColor=none;align=left;verticalAlign=middle;spacingLeft=4;spacingRight=4;overflow=hidden;points=[[0,0.5],[1,0.5]];portConstraint=eastwest;rotatable=0;whiteSpace=wrap;html=1;" parent="AtQGug-ONYs-uCGSSlIK-2" vertex="1">
          <mxGeometry y="50" width="170" height="30" as="geometry" />
        </mxCell>
        <mxCell id="AtQGug-ONYs-uCGSSlIK-9" value="keys" style="swimlane;startSize=20;html=1;" parent="AtQGug-ONYs-uCGSSlIK-1" vertex="1">
          <mxGeometry x="210" y="20" width="140" height="80" as="geometry">
            <mxRectangle x="170" y="20" width="40" height="770" as="alternateBounds" />
          </mxGeometry>
        </mxCell>
        <mxCell id="AtQGug-ONYs-uCGSSlIK-16" value="type" style="swimlane;startSize=20;html=1;" parent="AtQGug-ONYs-uCGSSlIK-1" vertex="1">
          <mxGeometry x="350" y="20" width="190" height="80" as="geometry">
            <mxRectangle x="260" y="20" width="40" height="770" as="alternateBounds" />
          </mxGeometry>
        </mxCell>
        <mxCell id="AtQGug-ONYs-uCGSSlIK-31" value="varchar" style="text;strokeColor=none;fillColor=none;align=left;verticalAlign=middle;spacingLeft=4;spacingRight=4;overflow=hidden;points=[[0,0.5],[1,0.5]];portConstraint=eastwest;rotatable=0;whiteSpace=wrap;html=1;" parent="AtQGug-ONYs-uCGSSlIK-16" vertex="1">
          <mxGeometry y="50" width="140" height="30" as="geometry" />
        </mxCell>
        <mxCell id="AtQGug-ONYs-uCGSSlIK-23" value="description" style="swimlane;startSize=20;html=1;" parent="AtQGug-ONYs-uCGSSlIK-1" vertex="1">
          <mxGeometry x="540" y="20" width="260" height="80" as="geometry" />
        </mxCell>
        <mxCell id="AtQGug-ONYs-uCGSSlIK-32" value="alternative place name" style="text;strokeColor=none;fillColor=none;align=left;verticalAlign=middle;spacingLeft=4;spacingRight=4;overflow=hidden;points=[[0,0.5],[1,0.5]];portConstraint=eastwest;rotatable=0;whiteSpace=wrap;html=1;" parent="AtQGug-ONYs-uCGSSlIK-23" vertex="1">
          <mxGeometry y="50" width="230" height="30" as="geometry" />
        </mxCell>
        <mxCell id="AtQGug-ONYs-uCGSSlIK-5" value="baptized_place_id" style="text;strokeColor=#82b366;fillColor=#d5e8d4;align=left;verticalAlign=middle;spacingLeft=4;spacingRight=4;overflow=hidden;points=[[0,0.5],[1,0.5]];portConstraint=eastwest;rotatable=0;whiteSpace=wrap;html=1;" parent="AtQGug-ONYs-uCGSSlIK-23" vertex="1">
          <mxGeometry x="-540" y="20" width="210" height="30" as="geometry" />
        </mxCell>
        <mxCell id="AtQGug-ONYs-uCGSSlIK-11" value="foreign_key" style="text;strokeColor=#82b366;fillColor=#d5e8d4;align=left;verticalAlign=middle;spacingLeft=4;spacingRight=4;overflow=hidden;points=[[0,0.5],[1,0.5]];portConstraint=eastwest;rotatable=0;whiteSpace=wrap;html=1;" parent="AtQGug-ONYs-uCGSSlIK-23" vertex="1">
          <mxGeometry x="-330" y="20" width="140" height="30" as="geometry" />
        </mxCell>
        <mxCell id="AtQGug-ONYs-uCGSSlIK-17" value="integer" style="text;strokeColor=#82b366;fillColor=#d5e8d4;align=left;verticalAlign=middle;spacingLeft=4;spacingRight=4;overflow=hidden;points=[[0,0.5],[1,0.5]];portConstraint=eastwest;rotatable=0;whiteSpace=wrap;html=1;" parent="AtQGug-ONYs-uCGSSlIK-23" vertex="1">
          <mxGeometry x="-190" y="20" width="190" height="30" as="geometry" />
        </mxCell>
        <mxCell id="AtQGug-ONYs-uCGSSlIK-25" value="fk to 01" style="text;strokeColor=#82b366;fillColor=#d5e8d4;align=left;verticalAlign=middle;spacingLeft=4;spacingRight=4;overflow=hidden;points=[[0,0.5],[1,0.5]];portConstraint=eastwest;rotatable=0;whiteSpace=wrap;html=1;" parent="AtQGug-ONYs-uCGSSlIK-23" vertex="1">
          <mxGeometry y="20" width="260" height="30" as="geometry" />
        </mxCell>
        <mxCell id="AtQGug-ONYs-uCGSSlIK-33" value="&lt;pre&gt;&lt;font face=&quot;Helvetica&quot;&gt;23_death_alt_place&lt;/font&gt;&lt;/pre&gt;" style="swimlane;childLayout=stackLayout;resizeParent=1;resizeParentMax=0;startSize=20;html=1;" parent="1" vertex="1">
          <mxGeometry x="-3340" y="1594" width="800" height="100" as="geometry" />
        </mxCell>
        <mxCell id="AtQGug-ONYs-uCGSSlIK-34" value="collumn_name" style="swimlane;startSize=20;html=1;" parent="AtQGug-ONYs-uCGSSlIK-33" vertex="1">
          <mxGeometry y="20" width="210" height="80" as="geometry">
            <mxRectangle y="20" width="40" height="460" as="alternateBounds" />
          </mxGeometry>
        </mxCell>
        <mxCell id="AtQGug-ONYs-uCGSSlIK-41" value="keys" style="swimlane;startSize=20;html=1;" parent="AtQGug-ONYs-uCGSSlIK-33" vertex="1">
          <mxGeometry x="210" y="20" width="140" height="80" as="geometry">
            <mxRectangle x="170" y="20" width="40" height="770" as="alternateBounds" />
          </mxGeometry>
        </mxCell>
        <mxCell id="AtQGug-ONYs-uCGSSlIK-48" value="type" style="swimlane;startSize=20;html=1;" parent="AtQGug-ONYs-uCGSSlIK-33" vertex="1">
          <mxGeometry x="350" y="20" width="190" height="80" as="geometry">
            <mxRectangle x="260" y="20" width="40" height="770" as="alternateBounds" />
          </mxGeometry>
        </mxCell>
        <mxCell id="AtQGug-ONYs-uCGSSlIK-55" value="description" style="swimlane;startSize=20;html=1;" parent="AtQGug-ONYs-uCGSSlIK-33" vertex="1">
          <mxGeometry x="540" y="20" width="260" height="80" as="geometry" />
        </mxCell>
        <mxCell id="AtQGug-ONYs-uCGSSlIK-36" value="death_place_id" style="text;strokeColor=#82b366;fillColor=#d5e8d4;align=left;verticalAlign=middle;spacingLeft=4;spacingRight=4;overflow=hidden;points=[[0,0.5],[1,0.5]];portConstraint=eastwest;rotatable=0;whiteSpace=wrap;html=1;" parent="AtQGug-ONYs-uCGSSlIK-55" vertex="1">
          <mxGeometry x="-540" y="20" width="210" height="30" as="geometry" />
        </mxCell>
        <mxCell id="AtQGug-ONYs-uCGSSlIK-44" value="foreign_key" style="text;strokeColor=#82b366;fillColor=#d5e8d4;align=left;verticalAlign=middle;spacingLeft=4;spacingRight=4;overflow=hidden;points=[[0,0.5],[1,0.5]];portConstraint=eastwest;rotatable=0;whiteSpace=wrap;html=1;" parent="AtQGug-ONYs-uCGSSlIK-55" vertex="1">
          <mxGeometry x="-330" y="20" width="140" height="30" as="geometry" />
        </mxCell>
        <mxCell id="AtQGug-ONYs-uCGSSlIK-51" value="integer" style="text;strokeColor=#82b366;fillColor=#d5e8d4;align=left;verticalAlign=middle;spacingLeft=4;spacingRight=4;overflow=hidden;points=[[0,0.5],[1,0.5]];portConstraint=eastwest;rotatable=0;whiteSpace=wrap;html=1;" parent="AtQGug-ONYs-uCGSSlIK-55" vertex="1">
          <mxGeometry x="-190" y="20" width="190" height="30" as="geometry" />
        </mxCell>
        <mxCell id="AtQGug-ONYs-uCGSSlIK-59" value="fk to 01" style="text;strokeColor=#82b366;fillColor=#d5e8d4;align=left;verticalAlign=middle;spacingLeft=4;spacingRight=4;overflow=hidden;points=[[0,0.5],[1,0.5]];portConstraint=eastwest;rotatable=0;whiteSpace=wrap;html=1;" parent="AtQGug-ONYs-uCGSSlIK-55" vertex="1">
          <mxGeometry y="20" width="260" height="30" as="geometry" />
        </mxCell>
        <mxCell id="AtQGug-ONYs-uCGSSlIK-62" value="alt_place_name" style="text;strokeColor=none;fillColor=none;align=left;verticalAlign=middle;spacingLeft=4;spacingRight=4;overflow=hidden;points=[[0,0.5],[1,0.5]];portConstraint=eastwest;rotatable=0;whiteSpace=wrap;html=1;" parent="AtQGug-ONYs-uCGSSlIK-55" vertex="1">
          <mxGeometry x="-540" y="50" width="170" height="30" as="geometry" />
        </mxCell>
        <mxCell id="AtQGug-ONYs-uCGSSlIK-63" value="varchar" style="text;strokeColor=none;fillColor=none;align=left;verticalAlign=middle;spacingLeft=4;spacingRight=4;overflow=hidden;points=[[0,0.5],[1,0.5]];portConstraint=eastwest;rotatable=0;whiteSpace=wrap;html=1;" parent="AtQGug-ONYs-uCGSSlIK-55" vertex="1">
          <mxGeometry x="-190" y="50" width="140" height="30" as="geometry" />
        </mxCell>
        <mxCell id="AtQGug-ONYs-uCGSSlIK-64" value="alternative place name" style="text;strokeColor=none;fillColor=none;align=left;verticalAlign=middle;spacingLeft=4;spacingRight=4;overflow=hidden;points=[[0,0.5],[1,0.5]];portConstraint=eastwest;rotatable=0;whiteSpace=wrap;html=1;" parent="AtQGug-ONYs-uCGSSlIK-55" vertex="1">
          <mxGeometry y="50" width="230" height="30" as="geometry" />
        </mxCell>
        <mxCell id="AtQGug-ONYs-uCGSSlIK-65" value="&lt;pre&gt;&lt;font face=&quot;Helvetica&quot;&gt;24_burried_alt_place&lt;/font&gt;&lt;/pre&gt;" style="swimlane;childLayout=stackLayout;resizeParent=1;resizeParentMax=0;startSize=20;html=1;" parent="1" vertex="1">
          <mxGeometry x="-3340" y="1714" width="800" height="100" as="geometry" />
        </mxCell>
        <mxCell id="AtQGug-ONYs-uCGSSlIK-66" value="collumn_name" style="swimlane;startSize=20;html=1;" parent="AtQGug-ONYs-uCGSSlIK-65" vertex="1">
          <mxGeometry y="20" width="210" height="80" as="geometry">
            <mxRectangle y="20" width="40" height="460" as="alternateBounds" />
          </mxGeometry>
        </mxCell>
        <mxCell id="AtQGug-ONYs-uCGSSlIK-73" value="keys" style="swimlane;startSize=20;html=1;" parent="AtQGug-ONYs-uCGSSlIK-65" vertex="1">
          <mxGeometry x="210" y="20" width="140" height="80" as="geometry">
            <mxRectangle x="170" y="20" width="40" height="770" as="alternateBounds" />
          </mxGeometry>
        </mxCell>
        <mxCell id="AtQGug-ONYs-uCGSSlIK-80" value="type" style="swimlane;startSize=20;html=1;" parent="AtQGug-ONYs-uCGSSlIK-65" vertex="1">
          <mxGeometry x="350" y="20" width="190" height="80" as="geometry">
            <mxRectangle x="260" y="20" width="40" height="770" as="alternateBounds" />
          </mxGeometry>
        </mxCell>
        <mxCell id="AtQGug-ONYs-uCGSSlIK-87" value="description" style="swimlane;startSize=20;html=1;" parent="AtQGug-ONYs-uCGSSlIK-65" vertex="1">
          <mxGeometry x="540" y="20" width="260" height="80" as="geometry" />
        </mxCell>
        <mxCell id="AtQGug-ONYs-uCGSSlIK-70" value="burried_place_id" style="text;strokeColor=#82b366;fillColor=#d5e8d4;align=left;verticalAlign=middle;spacingLeft=4;spacingRight=4;overflow=hidden;points=[[0,0.5],[1,0.5]];portConstraint=eastwest;rotatable=0;whiteSpace=wrap;html=1;" parent="AtQGug-ONYs-uCGSSlIK-87" vertex="1">
          <mxGeometry x="-540" y="20" width="210" height="30" as="geometry" />
        </mxCell>
        <mxCell id="AtQGug-ONYs-uCGSSlIK-77" value="foreign_key" style="text;strokeColor=#82b366;fillColor=#d5e8d4;align=left;verticalAlign=middle;spacingLeft=4;spacingRight=4;overflow=hidden;points=[[0,0.5],[1,0.5]];portConstraint=eastwest;rotatable=0;whiteSpace=wrap;html=1;" parent="AtQGug-ONYs-uCGSSlIK-87" vertex="1">
          <mxGeometry x="-330" y="20" width="140" height="30" as="geometry" />
        </mxCell>
        <mxCell id="AtQGug-ONYs-uCGSSlIK-84" value="integer" style="text;strokeColor=#82b366;fillColor=#d5e8d4;align=left;verticalAlign=middle;spacingLeft=4;spacingRight=4;overflow=hidden;points=[[0,0.5],[1,0.5]];portConstraint=eastwest;rotatable=0;whiteSpace=wrap;html=1;" parent="AtQGug-ONYs-uCGSSlIK-87" vertex="1">
          <mxGeometry x="-190" y="20" width="190" height="30" as="geometry" />
        </mxCell>
        <mxCell id="AtQGug-ONYs-uCGSSlIK-90" value="fk to 01" style="text;strokeColor=#82b366;fillColor=#d5e8d4;align=left;verticalAlign=middle;spacingLeft=4;spacingRight=4;overflow=hidden;points=[[0,0.5],[1,0.5]];portConstraint=eastwest;rotatable=0;whiteSpace=wrap;html=1;" parent="AtQGug-ONYs-uCGSSlIK-87" vertex="1">
          <mxGeometry y="20" width="260" height="30" as="geometry" />
        </mxCell>
        <mxCell id="AtQGug-ONYs-uCGSSlIK-94" value="alt_place_name" style="text;strokeColor=none;fillColor=none;align=left;verticalAlign=middle;spacingLeft=4;spacingRight=4;overflow=hidden;points=[[0,0.5],[1,0.5]];portConstraint=eastwest;rotatable=0;whiteSpace=wrap;html=1;" parent="AtQGug-ONYs-uCGSSlIK-87" vertex="1">
          <mxGeometry x="-540" y="50" width="170" height="30" as="geometry" />
        </mxCell>
        <mxCell id="AtQGug-ONYs-uCGSSlIK-95" value="varchar" style="text;strokeColor=none;fillColor=none;align=left;verticalAlign=middle;spacingLeft=4;spacingRight=4;overflow=hidden;points=[[0,0.5],[1,0.5]];portConstraint=eastwest;rotatable=0;whiteSpace=wrap;html=1;" parent="AtQGug-ONYs-uCGSSlIK-87" vertex="1">
          <mxGeometry x="-190" y="50" width="140" height="30" as="geometry" />
        </mxCell>
        <mxCell id="AtQGug-ONYs-uCGSSlIK-96" value="alternative place name" style="text;strokeColor=none;fillColor=none;align=left;verticalAlign=middle;spacingLeft=4;spacingRight=4;overflow=hidden;points=[[0,0.5],[1,0.5]];portConstraint=eastwest;rotatable=0;whiteSpace=wrap;html=1;" parent="AtQGug-ONYs-uCGSSlIK-87" vertex="1">
          <mxGeometry y="50" width="230" height="30" as="geometry" />
        </mxCell>
        <mxCell id="AtQGug-ONYs-uCGSSlIK-97" value="&lt;pre&gt;&lt;font face=&quot;Helvetica&quot;&gt;25_role_alt_place&lt;/font&gt;&lt;/pre&gt;" style="swimlane;childLayout=stackLayout;resizeParent=1;resizeParentMax=0;startSize=20;html=1;" parent="1" vertex="1">
          <mxGeometry x="-3340" y="1844" width="800" height="100" as="geometry" />
        </mxCell>
        <mxCell id="AtQGug-ONYs-uCGSSlIK-98" value="collumn_name" style="swimlane;startSize=20;html=1;" parent="AtQGug-ONYs-uCGSSlIK-97" vertex="1">
          <mxGeometry y="20" width="210" height="80" as="geometry">
            <mxRectangle y="20" width="40" height="460" as="alternateBounds" />
          </mxGeometry>
        </mxCell>
        <mxCell id="AtQGug-ONYs-uCGSSlIK-99" value="keys" style="swimlane;startSize=20;html=1;" parent="AtQGug-ONYs-uCGSSlIK-97" vertex="1">
          <mxGeometry x="210" y="20" width="140" height="80" as="geometry">
            <mxRectangle x="170" y="20" width="40" height="770" as="alternateBounds" />
          </mxGeometry>
        </mxCell>
        <mxCell id="AtQGug-ONYs-uCGSSlIK-100" value="type" style="swimlane;startSize=20;html=1;" parent="AtQGug-ONYs-uCGSSlIK-97" vertex="1">
          <mxGeometry x="350" y="20" width="190" height="80" as="geometry">
            <mxRectangle x="260" y="20" width="40" height="770" as="alternateBounds" />
          </mxGeometry>
        </mxCell>
        <mxCell id="AtQGug-ONYs-uCGSSlIK-101" value="description" style="swimlane;startSize=20;html=1;" parent="AtQGug-ONYs-uCGSSlIK-97" vertex="1">
          <mxGeometry x="540" y="20" width="260" height="80" as="geometry" />
        </mxCell>
        <mxCell id="AtQGug-ONYs-uCGSSlIK-102" value="role_place_id" style="text;strokeColor=#82b366;fillColor=#d5e8d4;align=left;verticalAlign=middle;spacingLeft=4;spacingRight=4;overflow=hidden;points=[[0,0.5],[1,0.5]];portConstraint=eastwest;rotatable=0;whiteSpace=wrap;html=1;" parent="AtQGug-ONYs-uCGSSlIK-101" vertex="1">
          <mxGeometry x="-540" y="20" width="210" height="30" as="geometry" />
        </mxCell>
        <mxCell id="AtQGug-ONYs-uCGSSlIK-103" value="foreign_key" style="text;strokeColor=#82b366;fillColor=#d5e8d4;align=left;verticalAlign=middle;spacingLeft=4;spacingRight=4;overflow=hidden;points=[[0,0.5],[1,0.5]];portConstraint=eastwest;rotatable=0;whiteSpace=wrap;html=1;" parent="AtQGug-ONYs-uCGSSlIK-101" vertex="1">
          <mxGeometry x="-330" y="20" width="140" height="30" as="geometry" />
        </mxCell>
        <mxCell id="AtQGug-ONYs-uCGSSlIK-104" value="integer" style="text;strokeColor=#82b366;fillColor=#d5e8d4;align=left;verticalAlign=middle;spacingLeft=4;spacingRight=4;overflow=hidden;points=[[0,0.5],[1,0.5]];portConstraint=eastwest;rotatable=0;whiteSpace=wrap;html=1;" parent="AtQGug-ONYs-uCGSSlIK-101" vertex="1">
          <mxGeometry x="-190" y="20" width="190" height="30" as="geometry" />
        </mxCell>
        <mxCell id="AtQGug-ONYs-uCGSSlIK-105" value="fk to 01" style="text;strokeColor=#82b366;fillColor=#d5e8d4;align=left;verticalAlign=middle;spacingLeft=4;spacingRight=4;overflow=hidden;points=[[0,0.5],[1,0.5]];portConstraint=eastwest;rotatable=0;whiteSpace=wrap;html=1;" parent="AtQGug-ONYs-uCGSSlIK-101" vertex="1">
          <mxGeometry y="20" width="260" height="30" as="geometry" />
        </mxCell>
        <mxCell id="AtQGug-ONYs-uCGSSlIK-106" value="alt_place_name" style="text;strokeColor=none;fillColor=none;align=left;verticalAlign=middle;spacingLeft=4;spacingRight=4;overflow=hidden;points=[[0,0.5],[1,0.5]];portConstraint=eastwest;rotatable=0;whiteSpace=wrap;html=1;" parent="AtQGug-ONYs-uCGSSlIK-101" vertex="1">
          <mxGeometry x="-540" y="50" width="170" height="30" as="geometry" />
        </mxCell>
        <mxCell id="AtQGug-ONYs-uCGSSlIK-107" value="varchar" style="text;strokeColor=none;fillColor=none;align=left;verticalAlign=middle;spacingLeft=4;spacingRight=4;overflow=hidden;points=[[0,0.5],[1,0.5]];portConstraint=eastwest;rotatable=0;whiteSpace=wrap;html=1;" parent="AtQGug-ONYs-uCGSSlIK-101" vertex="1">
          <mxGeometry x="-190" y="50" width="140" height="30" as="geometry" />
        </mxCell>
        <mxCell id="AtQGug-ONYs-uCGSSlIK-108" value="alternative place name" style="text;strokeColor=none;fillColor=none;align=left;verticalAlign=middle;spacingLeft=4;spacingRight=4;overflow=hidden;points=[[0,0.5],[1,0.5]];portConstraint=eastwest;rotatable=0;whiteSpace=wrap;html=1;" parent="AtQGug-ONYs-uCGSSlIK-101" vertex="1">
          <mxGeometry y="50" width="230" height="30" as="geometry" />
        </mxCell>
        <mxCell id="AtQGug-ONYs-uCGSSlIK-109" value="&lt;pre&gt;&lt;font face=&quot;Helvetica&quot;&gt;26_residence_alt_place&lt;/font&gt;&lt;/pre&gt;" style="swimlane;childLayout=stackLayout;resizeParent=1;resizeParentMax=0;startSize=20;html=1;" parent="1" vertex="1">
          <mxGeometry x="-3340" y="1974" width="800" height="100" as="geometry" />
        </mxCell>
        <mxCell id="AtQGug-ONYs-uCGSSlIK-110" value="collumn_name" style="swimlane;startSize=20;html=1;" parent="AtQGug-ONYs-uCGSSlIK-109" vertex="1">
          <mxGeometry y="20" width="210" height="80" as="geometry">
            <mxRectangle y="20" width="40" height="460" as="alternateBounds" />
          </mxGeometry>
        </mxCell>
        <mxCell id="AtQGug-ONYs-uCGSSlIK-111" value="keys" style="swimlane;startSize=20;html=1;" parent="AtQGug-ONYs-uCGSSlIK-109" vertex="1">
          <mxGeometry x="210" y="20" width="140" height="80" as="geometry">
            <mxRectangle x="170" y="20" width="40" height="770" as="alternateBounds" />
          </mxGeometry>
        </mxCell>
        <mxCell id="AtQGug-ONYs-uCGSSlIK-112" value="type" style="swimlane;startSize=20;html=1;" parent="AtQGug-ONYs-uCGSSlIK-109" vertex="1">
          <mxGeometry x="350" y="20" width="190" height="80" as="geometry">
            <mxRectangle x="260" y="20" width="40" height="770" as="alternateBounds" />
          </mxGeometry>
        </mxCell>
        <mxCell id="AtQGug-ONYs-uCGSSlIK-113" value="description" style="swimlane;startSize=20;html=1;" parent="AtQGug-ONYs-uCGSSlIK-109" vertex="1">
          <mxGeometry x="540" y="20" width="260" height="80" as="geometry" />
        </mxCell>
        <mxCell id="AtQGug-ONYs-uCGSSlIK-114" value="role_residence_place_id" style="text;strokeColor=#82b366;fillColor=#d5e8d4;align=left;verticalAlign=middle;spacingLeft=4;spacingRight=4;overflow=hidden;points=[[0,0.5],[1,0.5]];portConstraint=eastwest;rotatable=0;whiteSpace=wrap;html=1;" parent="AtQGug-ONYs-uCGSSlIK-113" vertex="1">
          <mxGeometry x="-540" y="20" width="210" height="30" as="geometry" />
        </mxCell>
        <mxCell id="AtQGug-ONYs-uCGSSlIK-115" value="foreign_key" style="text;strokeColor=#82b366;fillColor=#d5e8d4;align=left;verticalAlign=middle;spacingLeft=4;spacingRight=4;overflow=hidden;points=[[0,0.5],[1,0.5]];portConstraint=eastwest;rotatable=0;whiteSpace=wrap;html=1;" parent="AtQGug-ONYs-uCGSSlIK-113" vertex="1">
          <mxGeometry x="-330" y="20" width="140" height="30" as="geometry" />
        </mxCell>
        <mxCell id="AtQGug-ONYs-uCGSSlIK-116" value="integer" style="text;strokeColor=#82b366;fillColor=#d5e8d4;align=left;verticalAlign=middle;spacingLeft=4;spacingRight=4;overflow=hidden;points=[[0,0.5],[1,0.5]];portConstraint=eastwest;rotatable=0;whiteSpace=wrap;html=1;" parent="AtQGug-ONYs-uCGSSlIK-113" vertex="1">
          <mxGeometry x="-190" y="20" width="190" height="30" as="geometry" />
        </mxCell>
        <mxCell id="AtQGug-ONYs-uCGSSlIK-117" value="fk to 01" style="text;strokeColor=#82b366;fillColor=#d5e8d4;align=left;verticalAlign=middle;spacingLeft=4;spacingRight=4;overflow=hidden;points=[[0,0.5],[1,0.5]];portConstraint=eastwest;rotatable=0;whiteSpace=wrap;html=1;" parent="AtQGug-ONYs-uCGSSlIK-113" vertex="1">
          <mxGeometry y="20" width="260" height="30" as="geometry" />
        </mxCell>
        <mxCell id="AtQGug-ONYs-uCGSSlIK-118" value="alt_place_name" style="text;strokeColor=none;fillColor=none;align=left;verticalAlign=middle;spacingLeft=4;spacingRight=4;overflow=hidden;points=[[0,0.5],[1,0.5]];portConstraint=eastwest;rotatable=0;whiteSpace=wrap;html=1;" parent="AtQGug-ONYs-uCGSSlIK-113" vertex="1">
          <mxGeometry x="-540" y="50" width="170" height="30" as="geometry" />
        </mxCell>
        <mxCell id="AtQGug-ONYs-uCGSSlIK-119" value="varchar" style="text;strokeColor=none;fillColor=none;align=left;verticalAlign=middle;spacingLeft=4;spacingRight=4;overflow=hidden;points=[[0,0.5],[1,0.5]];portConstraint=eastwest;rotatable=0;whiteSpace=wrap;html=1;" parent="AtQGug-ONYs-uCGSSlIK-113" vertex="1">
          <mxGeometry x="-190" y="50" width="140" height="30" as="geometry" />
        </mxCell>
        <mxCell id="AtQGug-ONYs-uCGSSlIK-120" value="alternative place name" style="text;strokeColor=none;fillColor=none;align=left;verticalAlign=middle;spacingLeft=4;spacingRight=4;overflow=hidden;points=[[0,0.5],[1,0.5]];portConstraint=eastwest;rotatable=0;whiteSpace=wrap;html=1;" parent="AtQGug-ONYs-uCGSSlIK-113" vertex="1">
          <mxGeometry y="50" width="230" height="30" as="geometry" />
        </mxCell>
        <mxCell id="AzpIxYVinU37_Tb9Akn6-175" value="1 (parent)" style="text;html=1;strokeColor=none;fillColor=none;align=center;verticalAlign=middle;whiteSpace=wrap;rounded=0;" parent="1" vertex="1">
          <mxGeometry x="-2490" y="1114" width="60" height="46" as="geometry" />
        </mxCell>
        <mxCell id="GV-DoJ2eRcKxmy_nCd3e-3" value="&lt;font style=&quot;font-size: 36px;&quot; face=&quot;Helvetica&quot;&gt;Database Dutch Reformed Clergy (DRC) 1555-1816&lt;/font&gt;" style="text;html=1;align=center;verticalAlign=middle;whiteSpace=wrap;rounded=0;" parent="1" vertex="1">
          <mxGeometry x="-2140" y="360" width="790" height="30" as="geometry" />
        </mxCell>
        <mxCell id="GV-DoJ2eRcKxmy_nCd3e-4" value="&lt;font style=&quot;font-size: 36px;&quot; face=&quot;Helvetica&quot;&gt;Dutch Ministers (DM) 1572-2004&lt;/font&gt;" style="text;html=1;align=center;verticalAlign=middle;whiteSpace=wrap;rounded=0;" parent="1" vertex="1">
          <mxGeometry x="-1120" y="380" width="450" height="30" as="geometry" />
        </mxCell>
        <mxCell id="GV-DoJ2eRcKxmy_nCd3e-5" value="1 (parent)" style="text;html=1;strokeColor=none;fillColor=none;align=center;verticalAlign=middle;whiteSpace=wrap;rounded=0;" parent="1" vertex="1">
          <mxGeometry x="-1840" y="470" width="60" height="30" as="geometry" />
        </mxCell>
        <mxCell id="GV-DoJ2eRcKxmy_nCd3e-8" value="" style="edgeStyle=orthogonalEdgeStyle;rounded=0;orthogonalLoop=1;jettySize=auto;html=1;entryX=0;entryY=0.5;entryDx=0;entryDy=0;endArrow=none;endFill=0;" parent="1" source="v5tH6zYExcCofQopODxD-70" target="v5tH6zYExcCofQopODxD-46" edge="1">
          <mxGeometry relative="1" as="geometry">
            <Array as="points">
              <mxPoint x="-1780" y="720" />
              <mxPoint x="-1780" y="500" />
              <mxPoint x="-1660" y="500" />
            </Array>
            <mxPoint x="-1730" y="720" as="sourcePoint" />
            <mxPoint x="-1730" y="495" as="targetPoint" />
          </mxGeometry>
        </mxCell>
        <mxCell id="GV-DoJ2eRcKxmy_nCd3e-7" value="* (child)" style="text;html=1;strokeColor=none;fillColor=none;align=center;verticalAlign=middle;whiteSpace=wrap;rounded=0;" parent="1" vertex="1">
          <mxGeometry x="-1720" y="470" width="60" height="30" as="geometry" />
        </mxCell>
        <mxCell id="GV-DoJ2eRcKxmy_nCd3e-9" value="* (child)" style="text;html=1;strokeColor=none;fillColor=none;align=center;verticalAlign=middle;whiteSpace=wrap;rounded=0;" parent="1" vertex="1">
          <mxGeometry x="-1720" y="689" width="60" height="30" as="geometry" />
        </mxCell>
        <mxCell id="GV-DoJ2eRcKxmy_nCd3e-10" value="" style="endArrow=none;html=1;rounded=0;" parent="1" edge="1">
          <mxGeometry width="50" height="50" relative="1" as="geometry">
            <mxPoint x="-1840" y="500" as="sourcePoint" />
            <mxPoint x="-1780" y="500" as="targetPoint" />
          </mxGeometry>
        </mxCell>
      </root>
    </mxGraphModel>
  </diagram>
</mxfile>
